<svg width="180" height="129" viewBox="0 0 180 129" fill="none" xmlns="http://www.w3.org/2000/svg">
<g clip-path="url(#clip0_106_194)">
<mask id="mask0_106_194" style="mask-type:luminance" maskUnits="userSpaceOnUse" x="46" y="86" width="88" height="22">
<path d="M134 86H46V108H134V86Z" fill="white"/>
</mask>
<g mask="url(#mask0_106_194)">
<path d="M52.4827 103.188H48.2348V88.1468H56.7049V91.4193L52.4827 91.1627V94.6534H55.9476V97.836L52.4827 97.5794V103.188ZM57.747 103.188V88.673L56.977 88.211V87.0175L61.0965 86.3758H61.9307V103.188H57.747ZM69.9161 101.481C69.8648 101.6 69.7579 101.759 69.5953 101.956C69.4413 102.152 69.236 102.37 68.9793 102.61C68.7226 102.841 68.4061 103.038 68.0296 103.2C67.6532 103.371 67.2725 103.457 66.8875 103.457C65.6811 103.457 64.817 103.098 64.2951 102.379C63.7818 101.66 63.5251 100.463 63.5251 98.7856V94.217L63.076 93.755V92.2792H67.7345V99.5941C67.7259 99.9791 67.7901 100.266 67.927 100.454C68.0639 100.634 68.312 100.724 68.6713 100.724C68.7226 100.724 68.7697 100.724 68.8125 100.724C68.8552 100.715 68.898 100.706 68.9408 100.698C68.9836 100.681 69.0178 100.668 69.0435 100.659C69.0777 100.651 69.1162 100.638 69.159 100.621C69.2017 100.595 69.236 100.574 69.2616 100.557C69.2873 100.54 69.3215 100.518 69.3643 100.493C69.4071 100.458 69.437 100.433 69.4541 100.416C69.4798 100.398 69.514 100.373 69.5568 100.339C69.6081 100.296 69.6466 100.266 69.6723 100.249V94.217L68.9793 93.755V92.2792H73.8688V103.188H70.314L69.9161 101.481ZM81.3965 96.5526C81.3965 95.4661 81.3409 94.6961 81.2296 94.2426C81.1184 93.7892 80.9131 93.5625 80.6136 93.5625C80.357 93.5625 80.1474 93.6095 79.9848 93.7036C79.8222 93.7892 79.7025 93.9304 79.6255 94.1271C79.5485 94.3154 79.4971 94.5121 79.4715 94.7175C79.4544 94.9143 79.4458 95.1666 79.4458 95.4746V96.5526H81.3965ZM80.3698 103.457C79.4116 103.457 78.5774 103.312 77.8673 103.021C77.1657 102.73 76.6096 102.323 76.199 101.802C75.7969 101.28 75.5017 100.694 75.3135 100.043C75.1252 99.3845 75.0311 98.653 75.0311 97.8489C75.0311 95.9324 75.5188 94.4822 76.4941 93.4984C77.4695 92.5145 78.8341 92.0225 80.588 92.0225C82.2734 92.0225 83.4797 92.4203 84.207 93.216C84.9342 94.0031 85.2978 95.2736 85.2978 97.0275V98.452H79.433V98.6959C79.433 99.2006 79.4843 99.6155 79.587 99.9406C79.6982 100.266 79.8565 100.505 80.0618 100.659C80.2671 100.813 80.4767 100.916 80.6906 100.967C80.9045 101.019 81.1655 101.044 81.4735 101.044C81.7729 101.044 82.0937 101.006 82.436 100.929C82.7867 100.852 83.1375 100.732 83.4883 100.57C83.8476 100.407 84.1471 100.214 84.3866 99.992L85.1438 101.288C84.8272 101.802 84.361 102.234 83.745 102.584C83.1375 102.927 82.5515 103.158 81.9868 103.277C81.4221 103.397 80.8831 103.457 80.3698 103.457ZM90.8332 103.188H86.688V94.8844L85.918 94.4095V93.0364L88.6772 92.2792H90.8588V93.9346L91.0128 93.7421C91.1155 93.6053 91.2652 93.4427 91.462 93.2545C91.6673 93.0663 91.8941 92.8824 92.1422 92.7027C92.3903 92.5145 92.6854 92.3562 93.0277 92.2278C93.3784 92.091 93.7207 92.0225 94.0543 92.0225C95.2264 92.0225 96.0521 92.3433 96.5312 92.985C97.0188 93.6266 97.2627 94.7004 97.2627 96.2061C97.2627 96.2575 97.2627 96.3345 97.2627 96.4371C97.2542 96.5399 97.2498 96.6211 97.2498 96.681V103.188H93.0148V96.3089C93.0405 95.5046 92.6983 95.1025 91.9882 95.1025C91.9368 95.1025 91.8855 95.1068 91.8342 95.1154C91.7914 95.1239 91.7487 95.1325 91.7058 95.141C91.6717 95.1495 91.6288 95.1666 91.5775 95.1924C91.5347 95.2095 91.4962 95.2265 91.462 95.2436C91.4278 95.2522 91.3893 95.2736 91.3465 95.3079C91.3037 95.3335 91.2695 95.3549 91.2438 95.372C91.2182 95.3891 91.1797 95.419 91.1283 95.4619C91.0856 95.496 91.0513 95.5217 91.0257 95.5389C91.0086 95.556 90.9743 95.5859 90.923 95.6286C90.8802 95.6629 90.8503 95.6885 90.8332 95.7056V103.188ZM101.873 103.457C100.718 103.457 99.9091 103.111 99.4471 102.418C98.9937 101.725 98.767 100.552 98.767 98.9011V94.5379H97.8815V92.754L99.3958 92.2792L100.705 89.289H102.963V92.2792H105.068V94.5379H102.925V99.3119C102.925 99.9963 103.023 100.45 103.22 100.672C103.417 100.895 103.721 101.006 104.131 101.006C104.311 101.006 104.474 100.984 104.619 100.942C104.764 100.899 104.884 100.839 104.978 100.762V102.507C104.85 102.636 104.683 102.764 104.478 102.892C104.272 103.012 103.93 103.136 103.451 103.265C102.981 103.393 102.454 103.457 101.873 103.457Z" fill="#333333"/>
<mask id="mask1_106_194" style="mask-type:alpha" maskUnits="userSpaceOnUse" x="104" y="87" width="29" height="19">
<path d="M107.875 90.8125C107.875 88.914 109.414 87.375 111.312 87.375H129.188C131.086 87.375 132.625 88.914 132.625 90.8125V102.5C132.625 104.398 131.086 105.938 129.188 105.938H104.438L106.585 104.22C107.4 103.567 107.875 102.58 107.875 101.535V90.8125Z" fill="white"/>
</mask>
<g mask="url(#mask1_106_194)">
<path d="M135.375 87.375H105.125V93.5625H135.375V87.375Z" fill="#FFA216"/>
<path d="M135.375 93.5625H105.125V99.75H135.375V93.5625Z" fill="#FF6939"/>
<path d="M135.375 99.75H105.125V105.938H135.375V99.75Z" fill="#F03E06"/>
</g>
<g filter="url(#filter0_d_106_194)">
<path d="M116.464 103.423C115.693 103.423 115.008 103.348 114.409 103.199C113.818 103.049 113.331 102.847 112.949 102.592C112.575 102.338 112.264 102.023 112.017 101.649C111.778 101.267 111.609 100.867 111.512 100.448C111.415 100.028 111.366 99.5642 111.366 99.0551V90.0269H115.364V98.5498C115.364 99.5006 115.461 100.156 115.655 100.515C115.858 100.867 116.15 101.043 116.531 101.043C116.741 101.043 116.925 101.009 117.082 100.942C117.239 100.867 117.385 100.743 117.52 100.571C117.655 100.391 117.756 100.137 117.823 99.8075C117.898 99.4707 117.935 99.0626 117.935 98.5835V90.0269H121.483V99.1225C121.483 99.6241 121.439 100.077 121.349 100.481C121.267 100.886 121.109 101.279 120.877 101.66C120.653 102.035 120.353 102.349 119.979 102.604C119.612 102.851 119.129 103.049 118.531 103.199C117.939 103.348 117.25 103.423 116.464 103.423ZM124.798 103.188V95.9222L124.125 95.5068V94.3052L126.539 93.6427H128.414V103.188H124.798ZM126.426 92.6096L124.585 90.7568V90.3638L126.426 88.5222H126.853L128.774 90.3638V90.7568L126.853 92.6096H126.426Z" fill="white"/>
</g>
</g>
</g>
<path d="M21.5185 26V17.2727H26.581V17.9886H22.3153V21.2741H26.3125V21.9901H22.3153V25.2841H26.6662V26H21.5185ZM30.3139 26.1491C29.919 26.1491 29.5582 26.0724 29.2315 25.919C28.9048 25.7628 28.6449 25.5384 28.4517 25.2457C28.2585 24.9503 28.1619 24.5923 28.1619 24.1719C28.1619 23.848 28.223 23.5753 28.3452 23.3537C28.4673 23.1321 28.6406 22.9503 28.8651 22.8082C29.0895 22.6662 29.3551 22.554 29.6619 22.4716C29.9688 22.3892 30.3068 22.3253 30.6761 22.2798C31.0426 22.2344 31.3523 22.1946 31.6051 22.1605C31.8608 22.1264 32.0554 22.0724 32.1889 21.9986C32.3224 21.9247 32.3892 21.8054 32.3892 21.6406V21.4872C32.3892 21.0412 32.2557 20.6903 31.9886 20.4347C31.7244 20.1761 31.3438 20.0469 30.8466 20.0469C30.375 20.0469 29.9901 20.1506 29.6918 20.358C29.3963 20.5653 29.1889 20.8097 29.0696 21.0909L28.3494 20.831C28.4972 20.473 28.7017 20.1875 28.9631 19.9744C29.2244 19.7585 29.517 19.6037 29.8409 19.5099C30.1648 19.4134 30.4929 19.3651 30.8253 19.3651C31.0753 19.3651 31.3352 19.3977 31.6051 19.4631C31.8778 19.5284 32.1307 19.642 32.3636 19.804C32.5966 19.9631 32.7855 20.1861 32.9304 20.473C33.0753 20.7571 33.1477 21.1179 33.1477 21.5554V26H32.3892V24.9645H32.3423C32.2514 25.1577 32.1165 25.3452 31.9375 25.527C31.7585 25.7088 31.5341 25.858 31.2642 25.9744C30.9943 26.0909 30.6776 26.1491 30.3139 26.1491ZM30.4162 25.4545C30.8196 25.4545 31.169 25.3651 31.4645 25.1861C31.7599 25.0071 31.9872 24.7699 32.1463 24.4744C32.3082 24.1761 32.3892 23.848 32.3892 23.4901V22.544C32.3324 22.598 32.2372 22.6463 32.1037 22.6889C31.973 22.7315 31.821 22.7699 31.6477 22.804C31.4773 22.8352 31.3068 22.8622 31.1364 22.8849C30.9659 22.9077 30.8125 22.9276 30.6761 22.9446C30.3068 22.9901 29.9915 23.0611 29.7301 23.1577C29.4688 23.2543 29.2685 23.3878 29.1293 23.5582C28.9901 23.7259 28.9205 23.9418 28.9205 24.206C28.9205 24.6037 29.0625 24.9119 29.3466 25.1307C29.6307 25.3466 29.9872 25.4545 30.4162 25.4545ZM39.5632 20.8906L38.8686 21.0866C38.8004 20.8906 38.7038 20.7131 38.5788 20.554C38.4538 20.3949 38.2905 20.2685 38.0888 20.1747C37.8899 20.081 37.6428 20.0341 37.3473 20.0341C36.9041 20.0341 36.5405 20.1392 36.2564 20.3494C35.9723 20.5597 35.8303 20.831 35.8303 21.1634C35.8303 21.4446 35.9268 21.6733 36.12 21.8494C36.3161 22.0227 36.6172 22.1605 37.0234 22.2628L38.0121 22.5057C38.5604 22.6392 38.9709 22.8509 39.2436 23.1406C39.5192 23.4304 39.657 23.794 39.657 24.2315C39.657 24.6009 39.5547 24.929 39.3501 25.2159C39.1456 25.5028 38.8601 25.7287 38.4936 25.8935C38.13 26.0554 37.7081 26.1364 37.228 26.1364C36.5888 26.1364 36.0618 25.9929 35.647 25.706C35.2322 25.4162 34.9666 24.9986 34.8501 24.4531L35.5788 24.2741C35.6726 24.6634 35.8558 24.9574 36.1286 25.1562C36.4041 25.3551 36.7663 25.4545 37.2152 25.4545C37.718 25.4545 38.12 25.3423 38.4212 25.1179C38.7223 24.8906 38.8729 24.6065 38.8729 24.2656C38.8729 24.0014 38.7848 23.7798 38.6087 23.6009C38.4325 23.419 38.1655 23.2855 37.8075 23.2003L36.7379 22.9446C36.1697 22.8082 35.7493 22.5923 35.4766 22.2969C35.2038 22.0014 35.0675 21.6349 35.0675 21.1974C35.0675 20.8366 35.1655 20.5199 35.3615 20.2472C35.5575 19.9716 35.8274 19.7557 36.1712 19.5994C36.5149 19.4432 36.907 19.3651 37.3473 19.3651C37.9467 19.3651 38.4254 19.5014 38.7834 19.7741C39.1442 20.044 39.4041 20.4162 39.5632 20.8906ZM41.8462 28.4545C41.6957 28.4545 41.555 28.4403 41.4244 28.4119C41.2937 28.3835 41.19 28.3523 41.1133 28.3182L41.3178 27.6491C41.5763 27.7287 41.8065 27.7571 42.0082 27.7344C42.2099 27.7145 42.3888 27.6236 42.5451 27.4616C42.7013 27.3026 42.8406 27.0582 42.9627 26.7287L43.2013 26.0639L40.7937 19.4545H41.6161L43.5593 24.9986H43.619L45.5621 19.4545H46.3846L43.6147 27.0355C43.4982 27.3509 43.3548 27.6136 43.1843 27.8239C43.0138 28.0369 42.8164 28.1946 42.592 28.2969C42.3704 28.402 42.1218 28.4545 41.8462 28.4545ZM51.4013 21.9006V22.6165H47.7706V21.9006H51.4013ZM55.8842 19.4545V20.1151H52.7607V19.4545H55.8842ZM53.7365 17.8864H54.4993V24.2912C54.4993 24.5639 54.5462 24.7784 54.6399 24.9347C54.7337 25.0881 54.8558 25.1974 55.0064 25.2628C55.157 25.3253 55.3175 25.3565 55.4879 25.3565C55.5874 25.3565 55.6726 25.3509 55.7436 25.3395C55.8146 25.3253 55.8771 25.3111 55.9311 25.2969L56.093 25.983C56.0192 26.0114 55.9283 26.0369 55.8203 26.0597C55.7124 26.0852 55.5788 26.098 55.4197 26.098C55.1413 26.098 54.8729 26.0369 54.6143 25.9148C54.3587 25.7926 54.1484 25.6108 53.9837 25.3693C53.8189 25.1278 53.7365 24.8281 53.7365 24.4702V17.8864ZM60.0806 26.1364C59.5153 26.1364 59.0153 25.9929 58.5806 25.706C58.1488 25.419 57.8107 25.0227 57.5664 24.517C57.3221 24.0085 57.1999 23.4219 57.1999 22.7571C57.1999 22.0866 57.3221 21.4972 57.5664 20.9886C57.8107 20.4773 58.1488 20.0795 58.5806 19.7955C59.0153 19.5085 59.5153 19.3651 60.0806 19.3651C60.646 19.3651 61.1445 19.5085 61.5763 19.7955C62.0082 20.0824 62.3462 20.4801 62.5906 20.9886C62.8377 21.4972 62.9613 22.0866 62.9613 22.7571C62.9613 23.4219 62.8391 24.0085 62.5948 24.517C62.3505 25.0227 62.011 25.419 61.5763 25.706C61.1445 25.9929 60.646 26.1364 60.0806 26.1364ZM60.0806 25.4418C60.5352 25.4418 60.9201 25.3196 61.2354 25.0753C61.5508 24.831 61.7894 24.5057 61.9513 24.0994C62.1161 23.6932 62.1985 23.2457 62.1985 22.7571C62.1985 22.2685 62.1161 21.8196 61.9513 21.4105C61.7894 21.0014 61.5508 20.6733 61.2354 20.4261C60.9201 20.179 60.5352 20.0554 60.0806 20.0554C59.6289 20.0554 59.244 20.179 58.9258 20.4261C58.6104 20.6733 58.3704 21.0014 58.2056 21.4105C58.0437 21.8196 57.9627 22.2685 57.9627 22.7571C57.9627 23.2457 58.0437 23.6932 58.2056 24.0994C58.3704 24.5057 58.6104 24.831 58.9258 25.0753C59.2411 25.3196 59.6261 25.4418 60.0806 25.4418ZM68.1591 21.9006V22.6165H64.5284V21.9006H68.1591ZM74.223 23.4986V19.4545H74.9815V26H74.223V24.9134H74.1634C74.0099 25.2486 73.767 25.5284 73.4347 25.7528C73.1023 25.9744 72.696 26.0852 72.2159 26.0852C71.7983 26.0852 71.4276 25.9943 71.1037 25.8125C70.7798 25.6278 70.5256 25.358 70.3409 25.0028C70.1563 24.6477 70.0639 24.2116 70.0639 23.6946V19.4545H70.8224V23.6477C70.8224 24.1591 70.973 24.571 71.2741 24.8835C71.5753 25.1932 71.9616 25.348 72.4332 25.348C72.7287 25.348 73.0128 25.277 73.2855 25.1349C73.5582 24.9929 73.7827 24.7855 73.9588 24.5128C74.1349 24.2372 74.223 23.8991 74.223 23.4986ZM81.3874 20.8906L80.6928 21.0866C80.6246 20.8906 80.5281 20.7131 80.4031 20.554C80.2781 20.3949 80.1147 20.2685 79.913 20.1747C79.7141 20.081 79.467 20.0341 79.1715 20.0341C78.7283 20.0341 78.3647 20.1392 78.0806 20.3494C77.7965 20.5597 77.6545 20.831 77.6545 21.1634C77.6545 21.4446 77.7511 21.6733 77.9442 21.8494C78.1403 22.0227 78.4414 22.1605 78.8477 22.2628L79.8363 22.5057C80.3846 22.6392 80.7951 22.8509 81.0678 23.1406C81.3434 23.4304 81.4812 23.794 81.4812 24.2315C81.4812 24.6009 81.3789 24.929 81.1744 25.2159C80.9698 25.5028 80.6843 25.7287 80.3178 25.8935C79.9542 26.0554 79.5323 26.1364 79.0522 26.1364C78.413 26.1364 77.886 25.9929 77.4712 25.706C77.0565 25.4162 76.7908 24.9986 76.6744 24.4531L77.4031 24.2741C77.4968 24.6634 77.68 24.9574 77.9528 25.1562C78.2283 25.3551 78.5906 25.4545 79.0394 25.4545C79.5423 25.4545 79.9442 25.3423 80.2454 25.1179C80.5465 24.8906 80.6971 24.6065 80.6971 24.2656C80.6971 24.0014 80.609 23.7798 80.4329 23.6009C80.2567 23.419 79.9897 23.2855 79.6317 23.2003L78.5621 22.9446C77.994 22.8082 77.5735 22.5923 77.3008 22.2969C77.0281 22.0014 76.8917 21.6349 76.8917 21.1974C76.8917 20.8366 76.9897 20.5199 77.1857 20.2472C77.3817 19.9716 77.6516 19.7557 77.9954 19.5994C78.3391 19.4432 78.7312 19.3651 79.1715 19.3651C79.771 19.3651 80.2496 19.5014 80.6076 19.7741C80.9684 20.044 81.2283 20.4162 81.3874 20.8906ZM85.7884 26.1364C85.1776 26.1364 84.6491 25.9943 84.2031 25.7102C83.7571 25.4233 83.4119 25.027 83.1676 24.5213C82.9261 24.0128 82.8054 23.4276 82.8054 22.7656C82.8054 22.1065 82.9261 21.5213 83.1676 21.0099C83.4119 20.4957 83.7486 20.0937 84.1776 19.804C84.6094 19.5114 85.108 19.3651 85.6733 19.3651C86.0284 19.3651 86.3707 19.4304 86.7003 19.5611C87.0298 19.6889 87.3253 19.8864 87.5866 20.1534C87.8509 20.4176 88.0597 20.7514 88.2131 21.1548C88.3665 21.5554 88.4432 22.0298 88.4432 22.5781V22.9531H83.3295V22.2841H87.6676C87.6676 21.8636 87.5824 21.4858 87.4119 21.1506C87.2443 20.8125 87.0099 20.5455 86.7088 20.3494C86.4105 20.1534 86.0653 20.0554 85.6733 20.0554C85.2585 20.0554 84.8935 20.1662 84.5781 20.3878C84.2628 20.6094 84.0156 20.902 83.8366 21.2656C83.6605 21.6293 83.571 22.027 83.5682 22.4588V22.8594C83.5682 23.3793 83.6577 23.8338 83.8366 24.223C84.0185 24.6094 84.2756 24.9091 84.608 25.1222C84.9403 25.3352 85.3338 25.4418 85.7884 25.4418C86.098 25.4418 86.3693 25.3935 86.6023 25.2969C86.8381 25.2003 87.0355 25.071 87.1946 24.9091C87.3565 24.7443 87.4787 24.5639 87.5611 24.3679L88.2812 24.6023C88.1818 24.8778 88.0185 25.1321 87.7912 25.3651C87.5668 25.598 87.2855 25.7855 86.9474 25.9276C86.6122 26.0668 86.2259 26.1364 85.7884 26.1364ZM91.3761 24.8068L91.2994 25.2628C91.2511 25.5696 91.1829 25.9077 91.0948 26.277C91.0067 26.6463 90.9158 26.9972 90.8221 27.3295C90.7283 27.6619 90.6474 27.929 90.5792 28.1307H89.9954C90.0323 27.9375 90.0792 27.6918 90.136 27.3935C90.1957 27.0952 90.2567 26.7642 90.3192 26.4006C90.3817 26.0398 90.4386 25.6676 90.4897 25.2841L90.5494 24.8068H91.3761ZM99.4524 19.4545V20.1151H96.2351V19.4545H99.4524ZM97.2408 26V18.4957C97.2408 18.1435 97.3217 17.8466 97.4837 17.6051C97.6484 17.3636 97.8629 17.1804 98.1271 17.0554C98.3913 16.9304 98.6712 16.8679 98.9666 16.8679C99.1655 16.8679 99.3303 16.8849 99.4609 16.919C99.5945 16.9503 99.6996 16.9815 99.7763 17.0128L99.5547 17.6776C99.4979 17.6605 99.4283 17.6406 99.3459 17.6179C99.2635 17.5952 99.1598 17.5838 99.0348 17.5838C98.7053 17.5838 98.451 17.6761 98.272 17.8608C98.093 18.0455 98.0036 18.3097 98.0036 18.6534L97.9993 26H97.2408ZM105.125 23.4986V19.4545H105.884V26H105.125V24.9134H105.066C104.912 25.2486 104.669 25.5284 104.337 25.7528C104.005 25.9744 103.598 26.0852 103.118 26.0852C102.701 26.0852 102.33 25.9943 102.006 25.8125C101.682 25.6278 101.428 25.358 101.243 25.0028C101.059 24.6477 100.966 24.2116 100.966 23.6946V19.4545H101.725V23.6477C101.725 24.1591 101.875 24.571 102.176 24.8835C102.478 25.1932 102.864 25.348 103.336 25.348C103.631 25.348 103.915 25.277 104.188 25.1349C104.461 24.9929 104.685 24.7855 104.861 24.5128C105.037 24.2372 105.125 23.8991 105.125 23.4986ZM108.651 17.2727V26H107.892V17.2727H108.651ZM111.416 17.2727V26H110.658V17.2727H111.416ZM119.491 19.4545V20.1151H116.274V19.4545H119.491ZM117.28 26V18.4957C117.28 18.1435 117.361 17.8466 117.523 17.6051C117.688 17.3636 117.902 17.1804 118.166 17.0554C118.43 16.9304 118.71 16.8679 119.006 16.8679C119.205 16.8679 119.369 16.8849 119.5 16.919C119.634 16.9503 119.739 16.9815 119.815 17.0128L119.594 17.6776C119.537 17.6605 119.467 17.6406 119.385 17.6179C119.303 17.5952 119.199 17.5838 119.074 17.5838C118.744 17.5838 118.49 17.6761 118.311 17.8608C118.132 18.0455 118.043 18.3097 118.043 18.6534L118.038 26H117.28ZM121.764 17.2727V26H121.005V17.2727H121.764ZM126.417 26.1364C125.806 26.1364 125.278 25.9943 124.832 25.7102C124.386 25.4233 124.041 25.027 123.797 24.5213C123.555 24.0128 123.434 23.4276 123.434 22.7656C123.434 22.1065 123.555 21.5213 123.797 21.0099C124.041 20.4957 124.377 20.0937 124.806 19.804C125.238 19.5114 125.737 19.3651 126.302 19.3651C126.657 19.3651 127 19.4304 127.329 19.5611C127.659 19.6889 127.954 19.8864 128.216 20.1534C128.48 20.4176 128.689 20.7514 128.842 21.1548C128.995 21.5554 129.072 22.0298 129.072 22.5781V22.9531H123.958V22.2841H128.297C128.297 21.8636 128.211 21.4858 128.041 21.1506C127.873 20.8125 127.639 20.5455 127.338 20.3494C127.039 20.1534 126.694 20.0554 126.302 20.0554C125.887 20.0554 125.522 20.1662 125.207 20.3878C124.892 20.6094 124.645 20.902 124.466 21.2656C124.289 21.6293 124.2 22.027 124.197 22.4588V22.8594C124.197 23.3793 124.287 23.8338 124.466 24.223C124.647 24.6094 124.904 24.9091 125.237 25.1222C125.569 25.3352 125.963 25.4418 126.417 25.4418C126.727 25.4418 126.998 25.3935 127.231 25.2969C127.467 25.2003 127.664 25.071 127.824 24.9091C127.985 24.7443 128.108 24.5639 128.19 24.3679L128.91 24.6023C128.811 24.8778 128.647 25.1321 128.42 25.3651C128.196 25.598 127.914 25.7855 127.576 25.9276C127.241 26.0668 126.855 26.1364 126.417 26.1364ZM133.1 26.1364C132.563 26.1364 132.093 25.9943 131.69 25.7102C131.286 25.4261 130.971 25.0298 130.744 24.5213C130.519 24.0128 130.407 23.4205 130.407 22.7443C130.407 22.071 130.519 21.4815 130.744 20.9759C130.971 20.4673 131.288 20.0724 131.694 19.7912C132.1 19.5071 132.573 19.3651 133.113 19.3651C133.511 19.3651 133.842 19.4361 134.106 19.5781C134.37 19.7173 134.582 19.8906 134.741 20.098C134.9 20.3054 135.023 20.5071 135.112 20.7031H135.18V17.2727H135.942V26H135.201V24.7855H135.112C135.023 24.9844 134.898 25.1889 134.737 25.3991C134.575 25.6065 134.36 25.7812 134.093 25.9233C133.829 26.0653 133.498 26.1364 133.1 26.1364ZM133.19 25.4418C133.613 25.4418 133.974 25.3267 134.272 25.0966C134.57 24.8636 134.798 24.544 134.954 24.1378C135.113 23.7287 135.192 23.2599 135.192 22.7315C135.192 22.2088 135.114 21.7472 134.958 21.3466C134.802 20.9432 134.575 20.6278 134.276 20.4006C133.978 20.1705 133.616 20.0554 133.19 20.0554C132.752 20.0554 132.383 20.1747 132.082 20.4134C131.783 20.6491 131.556 20.9687 131.4 21.3722C131.246 21.7756 131.17 22.2287 131.17 22.7315C131.17 23.2401 131.248 23.6989 131.404 24.108C131.56 24.517 131.788 24.8423 132.086 25.0838C132.387 25.3224 132.755 25.4418 133.19 25.4418ZM140.6 28.5909C140.154 28.5909 139.763 28.5327 139.428 28.4162C139.093 28.3026 138.81 28.1463 138.58 27.9474C138.35 27.7486 138.171 27.5256 138.043 27.2784L138.665 26.8693C138.759 27.0341 138.884 27.196 139.04 27.3551C139.2 27.5142 139.406 27.6463 139.658 27.7514C139.914 27.8565 140.228 27.9091 140.6 27.9091C141.18 27.9091 141.647 27.7642 142.002 27.4744C142.36 27.1847 142.539 26.7344 142.539 26.1236V24.6491H142.471C142.383 24.848 142.256 25.0469 142.092 25.2457C141.927 25.4418 141.711 25.6051 141.444 25.7358C141.18 25.8665 140.852 25.9318 140.46 25.9318C139.937 25.9318 139.472 25.8026 139.066 25.544C138.663 25.2855 138.344 24.9162 138.112 24.4361C137.881 23.9531 137.766 23.3778 137.766 22.7102C137.766 22.0483 137.879 21.4659 138.103 20.9631C138.33 20.4602 138.647 20.0682 139.053 19.7869C139.46 19.5057 139.933 19.3651 140.472 19.3651C140.873 19.3651 141.205 19.4361 141.469 19.5781C141.734 19.7173 141.945 19.8906 142.104 20.098C142.266 20.3054 142.393 20.5071 142.484 20.7031H142.56V19.4545H143.302V26.1705C143.302 26.7244 143.184 27.1804 142.948 27.5384C142.712 27.8963 142.391 28.1605 141.985 28.331C141.579 28.5043 141.117 28.5909 140.6 28.5909ZM140.549 25.2372C140.969 25.2372 141.329 25.1364 141.627 24.9347C141.925 24.7301 142.154 24.4375 142.313 24.0568C142.472 23.6761 142.552 23.223 142.552 22.6974C142.552 22.1861 142.474 21.733 142.317 21.3381C142.161 20.9403 141.934 20.6278 141.636 20.4006C141.34 20.1705 140.978 20.0554 140.549 20.0554C140.112 20.0554 139.742 20.1733 139.441 20.4091C139.14 20.6449 138.913 20.9631 138.759 21.3636C138.606 21.7614 138.529 22.206 138.529 22.6974C138.529 23.1974 138.607 23.6392 138.763 24.0227C138.92 24.4034 139.148 24.7017 139.45 24.9176C139.751 25.1307 140.117 25.2372 140.549 25.2372ZM147.956 26.1364C147.346 26.1364 146.817 25.9943 146.371 25.7102C145.925 25.4233 145.58 25.027 145.336 24.5213C145.094 24.0128 144.973 23.4276 144.973 22.7656C144.973 22.1065 145.094 21.5213 145.336 21.0099C145.58 20.4957 145.917 20.0937 146.346 19.804C146.777 19.5114 147.276 19.3651 147.841 19.3651C148.196 19.3651 148.539 19.4304 148.868 19.5611C149.198 19.6889 149.493 19.8864 149.755 20.1534C150.019 20.4176 150.228 20.7514 150.381 21.1548C150.534 21.5554 150.611 22.0298 150.611 22.5781V22.9531H145.498V22.2841H149.836C149.836 21.8636 149.75 21.4858 149.58 21.1506C149.412 20.8125 149.178 20.5455 148.877 20.3494C148.578 20.1534 148.233 20.0554 147.841 20.0554C147.426 20.0554 147.061 20.1662 146.746 20.3878C146.431 20.6094 146.184 20.902 146.005 21.2656C145.828 21.6293 145.739 22.027 145.736 22.4588V22.8594C145.736 23.3793 145.826 23.8338 146.005 24.223C146.186 24.6094 146.444 24.9091 146.776 25.1222C147.108 25.3352 147.502 25.4418 147.956 25.4418C148.266 25.4418 148.537 25.3935 148.77 25.2969C149.006 25.2003 149.203 25.071 149.363 24.9091C149.525 24.7443 149.647 24.5639 149.729 24.3679L150.449 24.6023C150.35 24.8778 150.186 25.1321 149.959 25.3651C149.735 25.598 149.453 25.7855 149.115 25.9276C148.78 26.0668 148.394 26.1364 147.956 26.1364ZM154.639 26.1364C154.102 26.1364 153.632 25.9943 153.229 25.7102C152.825 25.4261 152.51 25.0298 152.283 24.5213C152.058 24.0128 151.946 23.4205 151.946 22.7443C151.946 22.071 152.058 21.4815 152.283 20.9759C152.51 20.4673 152.827 20.0724 153.233 19.7912C153.639 19.5071 154.112 19.3651 154.652 19.3651C155.05 19.3651 155.381 19.4361 155.645 19.5781C155.909 19.7173 156.121 19.8906 156.28 20.098C156.439 20.3054 156.563 20.5071 156.651 20.7031H156.719V17.2727H157.482V26H156.74V24.7855H156.651C156.563 24.9844 156.438 25.1889 156.276 25.3991C156.114 25.6065 155.899 25.7812 155.632 25.9233C155.368 26.0653 155.037 26.1364 154.639 26.1364ZM154.729 25.4418C155.152 25.4418 155.513 25.3267 155.811 25.0966C156.109 24.8636 156.337 24.544 156.493 24.1378C156.652 23.7287 156.732 23.2599 156.732 22.7315C156.732 22.2088 156.653 21.7472 156.497 21.3466C156.341 20.9432 156.114 20.6278 155.815 20.4006C155.517 20.1705 155.155 20.0554 154.729 20.0554C154.291 20.0554 153.922 20.1747 153.621 20.4134C153.322 20.6491 153.095 20.9687 152.939 21.3722C152.786 21.7756 152.709 22.2287 152.709 22.7315C152.709 23.2401 152.787 23.6989 152.943 24.108C153.099 24.517 153.327 24.8423 153.625 25.0838C153.926 25.3224 154.294 25.4418 154.729 25.4418ZM37.8704 35.2727H38.6673V41.0511C38.6673 41.6449 38.5281 42.1761 38.2496 42.6449C37.9712 43.1108 37.5835 43.4787 37.0863 43.7486C36.592 44.0156 36.0167 44.1491 35.3604 44.1491C34.707 44.1491 34.1317 44.0142 33.6346 43.7443C33.1374 43.4744 32.7496 43.1065 32.4712 42.6406C32.1928 42.1747 32.0536 41.6449 32.0536 41.0511V35.2727H32.8505V40.9957C32.8505 41.4588 32.9542 41.8722 33.1616 42.2358C33.369 42.5966 33.6602 42.8807 34.0352 43.0881C34.413 43.2955 34.8548 43.3991 35.3604 43.3991C35.8661 43.3991 36.3079 43.2955 36.6857 43.0881C37.0636 42.8807 37.3548 42.5966 37.5593 42.2358C37.7667 41.8722 37.8704 41.4588 37.8704 40.9957V35.2727ZM41.7802 35.2727V44H40.9833V35.2727H41.7802ZM49.8746 44.1364C49.2894 44.1364 48.7795 43.9901 48.3448 43.6974C47.913 43.4048 47.5778 43.0043 47.3391 42.4957C47.1005 41.9872 46.9812 41.4077 46.9812 40.7571C46.9812 40.1009 47.1019 39.517 47.3434 39.0057C47.5877 38.4943 47.9258 38.0937 48.3576 37.804C48.7894 37.5114 49.2908 37.3651 49.8619 37.3651C50.2994 37.3651 50.6957 37.4503 51.0508 37.6207C51.4059 37.7884 51.6985 38.0256 51.9286 38.3324C52.1616 38.6364 52.3079 38.9915 52.3675 39.3977H51.6005C51.521 39.0284 51.3292 38.7131 51.0252 38.4517C50.7241 38.1875 50.3406 38.0554 49.8746 38.0554C49.457 38.0554 49.0877 38.169 48.7667 38.3963C48.4457 38.6207 48.1942 38.9347 48.0124 39.3381C47.8335 39.7386 47.744 40.2031 47.744 40.7315C47.744 41.2628 47.832 41.733 48.0082 42.142C48.1843 42.5483 48.4315 42.8665 48.7496 43.0966C49.0707 43.3267 49.4457 43.4418 49.8746 43.4418C50.1644 43.4418 50.4286 43.3878 50.6673 43.2798C50.9087 43.169 51.1104 43.0128 51.2724 42.8111C51.4371 42.6094 51.5479 42.3693 51.6048 42.0909H52.3718C52.315 42.4858 52.1744 42.8381 51.9499 43.1477C51.7283 43.4545 51.44 43.696 51.0849 43.8722C50.7326 44.0483 50.3292 44.1364 49.8746 44.1364ZM56.5415 44.1364C55.9762 44.1364 55.4762 43.9929 55.0415 43.706C54.6097 43.419 54.2717 43.0227 54.0273 42.517C53.783 42.0085 53.6609 41.4219 53.6609 40.7571C53.6609 40.0866 53.783 39.4972 54.0273 38.9886C54.2717 38.4773 54.6097 38.0795 55.0415 37.7955C55.4762 37.5085 55.9762 37.3651 56.5415 37.3651C57.1069 37.3651 57.6055 37.5085 58.0373 37.7955C58.4691 38.0824 58.8072 38.4801 59.0515 38.9886C59.2987 39.4972 59.4222 40.0866 59.4222 40.7571C59.4222 41.4219 59.3001 42.0085 59.0558 42.517C58.8114 43.0227 58.4719 43.419 58.0373 43.706C57.6055 43.9929 57.1069 44.1364 56.5415 44.1364ZM56.5415 43.4418C56.9961 43.4418 57.381 43.3196 57.6964 43.0753C58.0117 42.831 58.2504 42.5057 58.4123 42.0994C58.5771 41.6932 58.6594 41.2457 58.6594 40.7571C58.6594 40.2685 58.5771 39.8196 58.4123 39.4105C58.2504 39.0014 58.0117 38.6733 57.6964 38.4261C57.381 38.179 56.9961 38.0554 56.5415 38.0554C56.0898 38.0554 55.7049 38.179 55.3867 38.4261C55.0714 38.6733 54.8313 39.0014 54.6665 39.4105C54.5046 39.8196 54.4237 40.2685 54.4237 40.7571C54.4237 41.2457 54.5046 41.6932 54.6665 42.0994C54.8313 42.5057 55.0714 42.831 55.3867 43.0753C55.7021 43.3196 56.087 43.4418 56.5415 43.4418ZM61.0874 44V37.4545H61.8246V38.4602H61.8928C62.0234 38.1222 62.2408 37.8565 62.5447 37.6634C62.8516 37.4673 63.2195 37.3693 63.6484 37.3693C64.1001 37.3693 64.4709 37.4759 64.7607 37.6889C65.0533 37.8991 65.272 38.1889 65.4169 38.5582H65.4723C65.62 38.1946 65.8601 37.9062 66.1925 37.6932C66.5277 37.4773 66.9339 37.3693 67.4112 37.3693C68.0192 37.3693 68.4993 37.5611 68.8516 37.9446C69.2038 38.3253 69.38 38.8821 69.38 39.6151V44H68.6214V39.6151C68.6214 39.098 68.4893 38.7102 68.2251 38.4517C67.9609 38.1932 67.6129 38.0639 67.1811 38.0639C66.6811 38.0639 66.2962 38.2173 66.0263 38.5241C65.7564 38.831 65.6214 39.2202 65.6214 39.6918V44H64.8459V39.5469C64.8459 39.1037 64.7223 38.7457 64.4751 38.473C64.228 38.2003 63.88 38.0639 63.4311 38.0639C63.13 38.0639 62.8587 38.1378 62.6172 38.2855C62.3786 38.4332 62.1896 38.6392 62.0504 38.9034C61.9141 39.1648 61.8459 39.4659 61.8459 39.8068V44H61.0874ZM71.3881 46.4545V37.4545H72.1254V38.7031H72.2148C72.3058 38.5071 72.4308 38.3068 72.5898 38.1023C72.7489 37.8949 72.9592 37.7202 73.2205 37.5781C73.4847 37.4361 73.8171 37.3651 74.2177 37.3651C74.7575 37.3651 75.229 37.5071 75.6325 37.7912C76.0387 38.0724 76.354 38.4673 76.5785 38.9759C76.8058 39.4815 76.9194 40.071 76.9194 40.7443C76.9194 41.4205 76.8058 42.0128 76.5785 42.5213C76.354 43.0298 76.0387 43.4261 75.6325 43.7102C75.229 43.9943 74.7603 44.1364 74.2262 44.1364C73.8313 44.1364 73.5004 44.0653 73.2333 43.9233C72.9691 43.7812 72.7546 43.6065 72.5898 43.3991C72.4279 43.1889 72.3029 42.9844 72.2148 42.7855H72.1467V46.4545H71.3881ZM72.1381 40.7315C72.1381 41.2599 72.2163 41.7287 72.3725 42.1378C72.5316 42.544 72.7589 42.8636 73.0543 43.0966C73.3526 43.3267 73.7134 43.4418 74.1367 43.4418C74.5714 43.4418 74.9379 43.3224 75.2362 43.0838C75.5373 42.8423 75.766 42.517 75.9222 42.108C76.0813 41.6989 76.1609 41.2401 76.1609 40.7315C76.1609 40.2287 76.0827 39.7756 75.9265 39.3722C75.7731 38.9687 75.5458 38.6491 75.2447 38.4134C74.9435 38.1747 74.5742 38.0554 74.1367 38.0554C73.7106 38.0554 73.3484 38.1705 73.0501 38.4006C72.7518 38.6278 72.5245 38.9432 72.3683 39.3466C72.2148 39.7472 72.1381 40.2088 72.1381 40.7315ZM81.1275 44.1364C80.5621 44.1364 80.0621 43.9929 79.6275 43.706C79.1957 43.419 78.8576 43.0227 78.6133 42.517C78.369 42.0085 78.2468 41.4219 78.2468 40.7571C78.2468 40.0866 78.369 39.4972 78.6133 38.9886C78.8576 38.4773 79.1957 38.0795 79.6275 37.7955C80.0621 37.5085 80.5621 37.3651 81.1275 37.3651C81.6928 37.3651 82.1914 37.5085 82.6232 37.7955C83.055 38.0824 83.3931 38.4801 83.6374 38.9886C83.8846 39.4972 84.0082 40.0866 84.0082 40.7571C84.0082 41.4219 83.886 42.0085 83.6417 42.517C83.3974 43.0227 83.0579 43.419 82.6232 43.706C82.1914 43.9929 81.6928 44.1364 81.1275 44.1364ZM81.1275 43.4418C81.582 43.4418 81.967 43.3196 82.2823 43.0753C82.5977 42.831 82.8363 42.5057 82.9982 42.0994C83.163 41.6932 83.2454 41.2457 83.2454 40.7571C83.2454 40.2685 83.163 39.8196 82.9982 39.4105C82.8363 39.0014 82.5977 38.6733 82.2823 38.4261C81.967 38.179 81.582 38.0554 81.1275 38.0554C80.6758 38.0554 80.2908 38.179 79.9727 38.4261C79.6573 38.6733 79.4173 39.0014 79.2525 39.4105C79.0906 39.8196 79.0096 40.2685 79.0096 40.7571C79.0096 41.2457 79.0906 41.6932 79.2525 42.0994C79.4173 42.5057 79.6573 42.831 79.9727 43.0753C80.288 43.3196 80.6729 43.4418 81.1275 43.4418ZM86.4318 39.9091V44H85.6733V37.4545H86.4105V38.4815H86.4787C86.6321 38.1463 86.8707 37.8778 87.1946 37.6761C87.5213 37.4716 87.9247 37.3693 88.4048 37.3693C88.8452 37.3693 89.2315 37.4616 89.5639 37.6463C89.8991 37.8281 90.1591 38.0966 90.3438 38.4517C90.5312 38.8068 90.625 39.2429 90.625 39.7599V44H89.8665V39.8068C89.8665 39.2699 89.7159 38.8452 89.4148 38.5327C89.1165 38.2202 88.7159 38.0639 88.2131 38.0639C87.8693 38.0639 87.5639 38.1378 87.2969 38.2855C87.0298 38.4332 86.8182 38.6463 86.6619 38.9247C86.5085 39.2003 86.4318 39.5284 86.4318 39.9091ZM95.2688 44.1364C94.658 44.1364 94.1296 43.9943 93.6836 43.7102C93.2376 43.4233 92.8924 43.027 92.6481 42.5213C92.4066 42.0128 92.2859 41.4276 92.2859 40.7656C92.2859 40.1065 92.4066 39.5213 92.6481 39.0099C92.8924 38.4957 93.229 38.0937 93.658 37.804C94.0898 37.5114 94.5884 37.3651 95.1538 37.3651C95.5089 37.3651 95.8512 37.4304 96.1808 37.5611C96.5103 37.6889 96.8058 37.8864 97.0671 38.1534C97.3313 38.4176 97.5401 38.7514 97.6935 39.1548C97.8469 39.5554 97.9237 40.0298 97.9237 40.5781V40.9531H92.81V40.2841H97.1481C97.1481 39.8636 97.0629 39.4858 96.8924 39.1506C96.7248 38.8125 96.4904 38.5455 96.1893 38.3494C95.891 38.1534 95.5458 38.0554 95.1538 38.0554C94.739 38.0554 94.3739 38.1662 94.0586 38.3878C93.7433 38.6094 93.4961 38.902 93.3171 39.2656C93.141 39.6293 93.0515 40.027 93.0487 40.4588V40.8594C93.0487 41.3793 93.1381 41.8338 93.3171 42.223C93.4989 42.6094 93.756 42.9091 94.0884 43.1222C94.4208 43.3352 94.8143 43.4418 95.2688 43.4418C95.5785 43.4418 95.8498 43.3935 96.0827 43.2969C96.3185 43.2003 96.516 43.071 96.6751 42.9091C96.837 42.7443 96.9592 42.5639 97.0415 42.3679L97.7617 42.6023C97.6623 42.8778 97.4989 43.1321 97.2717 43.3651C97.0472 43.598 96.766 43.7855 96.4279 43.9276C96.0927 44.0668 95.7063 44.1364 95.2688 44.1364ZM100.354 39.9091V44H99.5952V37.4545H100.332V38.4815H100.401C100.554 38.1463 100.793 37.8778 101.116 37.6761C101.443 37.4716 101.847 37.3693 102.327 37.3693C102.767 37.3693 103.153 37.4616 103.486 37.6463C103.821 37.8281 104.081 38.0966 104.266 38.4517C104.453 38.8068 104.547 39.2429 104.547 39.7599V44H103.788V39.8068C103.788 39.2699 103.638 38.8452 103.337 38.5327C103.038 38.2202 102.638 38.0639 102.135 38.0639C101.791 38.0639 101.486 38.1378 101.219 38.2855C100.952 38.4332 100.74 38.6463 100.584 38.9247C100.43 39.2003 100.354 39.5284 100.354 39.9091ZM109.123 37.4545V38.1151H105.999V37.4545H109.123ZM106.975 35.8864H107.738V42.2912C107.738 42.5639 107.784 42.7784 107.878 42.9347C107.972 43.0881 108.094 43.1974 108.245 43.2628C108.395 43.3253 108.556 43.3565 108.726 43.3565C108.826 43.3565 108.911 43.3509 108.982 43.3395C109.053 43.3253 109.115 43.3111 109.169 43.2969L109.331 43.983C109.257 44.0114 109.167 44.0369 109.059 44.0597C108.951 44.0852 108.817 44.098 108.658 44.098C108.38 44.098 108.111 44.0369 107.853 43.9148C107.597 43.7926 107.387 43.6108 107.222 43.3693C107.057 43.1278 106.975 42.8281 106.975 42.4702V35.8864ZM114.979 35.2727V44H114.22V35.2727H114.979ZM116.994 44V37.4545H117.757V44H116.994ZM117.382 36.3295C117.226 36.3295 117.092 36.277 116.982 36.1719C116.871 36.0639 116.815 35.9347 116.815 35.7841C116.815 35.6335 116.871 35.5057 116.982 35.4006C117.092 35.2926 117.226 35.2386 117.382 35.2386C117.538 35.2386 117.672 35.2926 117.783 35.4006C117.893 35.5057 117.949 35.6335 117.949 35.7841C117.949 35.9347 117.893 36.0639 117.783 36.1719C117.672 36.277 117.538 36.3295 117.382 36.3295ZM119.921 44V35.2727H120.684V38.7031H120.752C120.837 38.5071 120.959 38.3054 121.118 38.098C121.28 37.8906 121.492 37.7173 121.753 37.5781C122.017 37.4361 122.35 37.3651 122.75 37.3651C123.287 37.3651 123.759 37.5071 124.165 37.7912C124.571 38.0724 124.888 38.4673 125.115 38.9759C125.343 39.4815 125.456 40.071 125.456 40.7443C125.456 41.4205 125.343 42.0128 125.115 42.5213C124.891 43.0298 124.576 43.4261 124.169 43.7102C123.766 43.9943 123.297 44.1364 122.763 44.1364C122.365 44.1364 122.033 44.0653 121.766 43.9233C121.502 43.7812 121.289 43.6065 121.127 43.3991C120.965 43.1889 120.84 42.9844 120.752 42.7855H120.658V44H119.921ZM120.671 40.7315C120.671 41.2599 120.749 41.7287 120.905 42.1378C121.064 42.544 121.292 42.8636 121.587 43.0966C121.885 43.3267 122.246 43.4418 122.669 43.4418C123.104 43.4418 123.472 43.3224 123.773 43.0838C124.074 42.8423 124.303 42.517 124.459 42.108C124.615 41.6989 124.694 41.2401 124.694 40.7315C124.694 40.2287 124.615 39.7756 124.459 39.3722C124.306 38.9687 124.078 38.6491 123.777 38.4134C123.476 38.1747 123.107 38.0554 122.669 38.0554C122.243 38.0554 121.881 38.1705 121.583 38.4006C121.287 38.6278 121.061 38.9432 120.905 39.3466C120.749 39.7472 120.671 40.2088 120.671 40.7315ZM127.123 44V37.4545H127.86V38.4602H127.915C128.046 38.1307 128.273 37.8651 128.597 37.6634C128.924 37.4588 129.293 37.3565 129.705 37.3565C129.767 37.3565 129.837 37.358 129.914 37.3608C129.99 37.3636 130.054 37.3665 130.105 37.3693V38.1406C130.071 38.1349 130.012 38.1264 129.926 38.1151C129.841 38.1037 129.749 38.098 129.65 38.098C129.309 38.098 129.005 38.1705 128.738 38.3153C128.473 38.4574 128.265 38.6548 128.111 38.9077C127.958 39.1605 127.881 39.4489 127.881 39.7727V44H127.123ZM133.228 44.1491C132.833 44.1491 132.472 44.0724 132.146 43.919C131.819 43.7628 131.559 43.5384 131.366 43.2457C131.173 42.9503 131.076 42.5923 131.076 42.1719C131.076 41.848 131.137 41.5753 131.259 41.3537C131.381 41.1321 131.555 40.9503 131.779 40.8082C132.004 40.6662 132.269 40.554 132.576 40.4716C132.883 40.3892 133.221 40.3253 133.59 40.2798C133.957 40.2344 134.266 40.1946 134.519 40.1605C134.775 40.1264 134.969 40.0724 135.103 39.9986C135.237 39.9247 135.303 39.8054 135.303 39.6406V39.4872C135.303 39.0412 135.17 38.6903 134.903 38.4347C134.638 38.1761 134.258 38.0469 133.761 38.0469C133.289 38.0469 132.904 38.1506 132.606 38.358C132.31 38.5653 132.103 38.8097 131.984 39.0909L131.263 38.831C131.411 38.473 131.616 38.1875 131.877 37.9744C132.138 37.7585 132.431 37.6037 132.755 37.5099C133.079 37.4134 133.407 37.3651 133.739 37.3651C133.989 37.3651 134.249 37.3977 134.519 37.4631C134.792 37.5284 135.045 37.642 135.278 37.804C135.511 37.9631 135.7 38.1861 135.844 38.473C135.989 38.7571 136.062 39.1179 136.062 39.5554V44H135.303V42.9645H135.256C135.165 43.1577 135.031 43.3452 134.852 43.527C134.673 43.7088 134.448 43.858 134.178 43.9744C133.908 44.0909 133.592 44.1491 133.228 44.1491ZM133.33 43.4545C133.734 43.4545 134.083 43.3651 134.379 43.1861C134.674 43.0071 134.901 42.7699 135.06 42.4744C135.222 42.1761 135.303 41.848 135.303 41.4901V40.544C135.246 40.598 135.151 40.6463 135.018 40.6889C134.887 40.7315 134.735 40.7699 134.562 40.804C134.391 40.8352 134.221 40.8622 134.05 40.8849C133.88 40.9077 133.727 40.9276 133.59 40.9446C133.221 40.9901 132.906 41.0611 132.644 41.1577C132.383 41.2543 132.183 41.3878 132.043 41.5582C131.904 41.7259 131.835 41.9418 131.835 42.206C131.835 42.6037 131.977 42.9119 132.261 43.1307C132.545 43.3466 132.901 43.4545 133.33 43.4545ZM138.08 44V37.4545H138.817V38.4602H138.872C139.003 38.1307 139.23 37.8651 139.554 37.6634C139.881 37.4588 140.25 37.3565 140.662 37.3565C140.724 37.3565 140.794 37.358 140.871 37.3608C140.947 37.3636 141.011 37.3665 141.062 37.3693V38.1406C141.028 38.1349 140.969 38.1264 140.884 38.1151C140.798 38.1037 140.706 38.098 140.607 38.098C140.266 38.098 139.962 38.1705 139.695 38.3153C139.43 38.4574 139.222 38.6548 139.068 38.9077C138.915 39.1605 138.838 39.4489 138.838 39.7727V44H138.08ZM143.085 46.4545C142.934 46.4545 142.793 46.4403 142.663 46.4119C142.532 46.3835 142.428 46.3523 142.352 46.3182L142.556 45.6491C142.815 45.7287 143.045 45.7571 143.246 45.7344C143.448 45.7145 143.627 45.6236 143.783 45.4616C143.94 45.3026 144.079 45.0582 144.201 44.7287L144.44 44.0639L142.032 37.4545H142.854L144.798 42.9986H144.857L146.8 37.4545H147.623L144.853 45.0355C144.737 45.3509 144.593 45.6136 144.423 45.8239C144.252 46.0369 144.055 46.1946 143.83 46.2969C143.609 46.402 143.36 46.4545 143.085 46.4545Z" fill="#333333"/>
<path d="M111.495 82.227C105.71 79.4867 100.399 74.0759 96.7143 68.7537C93.2132 63.6965 91.8053 57.8826 89.2695 52.8109" stroke="#A4A2A2" stroke-linecap="round" stroke-dasharray="1 6"/>
<defs>
<filter id="filter0_d_106_194" x="108.366" y="86.5222" width="23.4075" height="20.9011" filterUnits="userSpaceOnUse" color-interpolation-filters="sRGB">
<feFlood flood-opacity="0" result="BackgroundImageFix"/>
<feColorMatrix in="SourceAlpha" type="matrix" values="0 0 0 0 0 0 0 0 0 0 0 0 0 0 0 0 0 0 127 0" result="hardAlpha"/>
<feOffset dy="1"/>
<feGaussianBlur stdDeviation="1.5"/>
<feComposite in2="hardAlpha" operator="out"/>
<feColorMatrix type="matrix" values="0 0 0 0 0 0 0 0 0 0 0 0 0 0 0 0 0 0 0.25 0"/>
<feBlend mode="normal" in2="BackgroundImageFix" result="effect1_dropShadow_106_194"/>
<feBlend mode="normal" in="SourceGraphic" in2="effect1_dropShadow_106_194" result="shape"/>
</filter>
<clipPath id="clip0_106_194">
<rect width="88" height="22" fill="white" transform="translate(46 86)"/>
</clipPath>
</defs>
</svg>
