<svg width="180" height="129" viewBox="0 0 180 129" fill="none" xmlns="http://www.w3.org/2000/svg">
<g clip-path="url(#clip0_106_195)">
<mask id="mask0_106_195" style="mask-type:luminance" maskUnits="userSpaceOnUse" x="34" y="86" width="114" height="22">
<path d="M147.438 86H34V108H147.438V86Z" fill="white"/>
</mask>
<g mask="url(#mask0_106_195)">
<path d="M39.7952 103.188H35.5473V88.1468H44.0174V91.4193L39.7952 91.1627V94.6534H43.2601V97.836L39.7952 97.5794V103.188ZM49.3459 103.188H45.2007V94.8844L44.4307 94.4095V92.9594L47.1899 92.2792H48.2294L48.6015 95.3335C48.9523 93.2374 50.0774 92.1893 51.9767 92.1893C52.1906 92.1893 52.413 92.2278 52.644 92.3048L52.2077 96.8735C52.028 96.711 51.6345 96.6296 51.027 96.6296C50.1544 96.6296 49.594 96.8606 49.3459 97.3226V103.188ZM58.8192 101.917C59.1956 101.917 59.4823 101.763 59.679 101.455C59.8844 101.138 59.987 100.706 59.987 100.159V96.1035C59.987 94.4351 59.5934 93.601 58.8064 93.601C58.4384 93.601 58.1519 93.7507 57.9465 94.0501C57.7412 94.3496 57.6385 94.7731 57.6385 95.3206V99.4915C57.6385 101.109 58.032 101.917 58.8192 101.917ZM58.7165 103.457C56.7573 103.457 55.3243 103.012 54.4174 102.122C53.5104 101.233 53.057 99.8124 53.057 97.8616C53.057 95.9281 53.5148 94.4736 54.4302 93.4984C55.3456 92.5145 56.8343 92.0225 58.8962 92.0225C60.9068 92.0225 62.3569 92.4931 63.2467 93.4341C64.145 94.3667 64.5942 95.7827 64.5942 97.682C64.5942 99.6498 64.1194 101.104 63.1697 102.045C62.2285 102.986 60.7442 103.457 58.7165 103.457ZM70.1374 103.188H65.9922V94.8844L65.2222 94.4095V93.0364L67.9814 92.2792H70.163V93.9346L70.317 93.7421C70.4197 93.6053 70.5694 93.4427 70.7662 93.2545C70.9715 93.0663 71.1983 92.8824 71.4464 92.7027C71.6945 92.5145 71.9897 92.3562 72.3319 92.2278C72.6827 92.091 73.0249 92.0225 73.3585 92.0225C74.5307 92.0225 75.3563 92.3433 75.8354 92.985C76.323 93.6266 76.5669 94.7004 76.5669 96.2061C76.5669 96.2575 76.5669 96.3345 76.5669 96.4371C76.5583 96.5399 76.554 96.6211 76.554 96.681V103.188H72.319V96.3089C72.3447 95.5046 72.0025 95.1025 71.2924 95.1025C71.241 95.1025 71.1897 95.1068 71.1384 95.1154C71.0956 95.1239 71.0528 95.1325 71.01 95.141C70.9758 95.1495 70.933 95.1666 70.8817 95.1924C70.8389 95.2095 70.8004 95.2265 70.7662 95.2436C70.732 95.2522 70.6935 95.2736 70.6507 95.3079C70.6079 95.3335 70.5737 95.3549 70.548 95.372C70.5224 95.3891 70.4839 95.419 70.4325 95.4619C70.3898 95.496 70.3555 95.5217 70.3299 95.5389C70.3128 95.556 70.2785 95.5859 70.2272 95.6286C70.1844 95.6629 70.1545 95.6885 70.1374 95.7056V103.188ZM81.1769 103.457C80.0219 103.457 79.2134 103.111 78.7514 102.418C78.2979 101.725 78.0712 100.552 78.0712 98.9012V94.5379H77.1857V92.754L78.7 92.2792L80.009 89.289H82.2677V92.2792H84.3724V94.5379H82.2292V99.3119C82.2292 99.9963 82.3276 100.45 82.5244 100.672C82.7211 100.895 83.0249 101.006 83.4355 101.006C83.6152 101.006 83.7777 100.984 83.9232 100.942C84.0686 100.899 84.1884 100.839 84.2825 100.762V102.507C84.1542 102.636 83.9874 102.764 83.782 102.892C83.5767 103.012 83.2345 103.136 82.7554 103.265C82.2848 103.393 81.7586 103.457 81.1769 103.457ZM90.4334 101.083C91.0836 101.083 91.5798 100.681 91.9221 99.8765C92.2728 99.0723 92.4482 97.7461 92.4482 95.8981V94.602C92.4482 93.2502 92.2857 92.2065 91.9606 91.4707C91.6355 90.7349 91.1735 90.367 90.5746 90.367H89.6121V101.083H90.4334ZM90.8312 103.277C90.5232 103.277 90.0441 103.26 89.3939 103.226C88.7522 103.2 88.0892 103.188 87.4047 103.188H85.3642V88.1468H87.4047C87.978 88.1383 88.6025 88.1169 89.2784 88.0827C89.9542 88.0485 90.4847 88.0313 90.8697 88.0313C93.0514 88.0313 94.6127 88.6431 95.5539 89.8665C96.5036 91.09 96.9784 92.8738 96.9784 95.218C96.9784 96.0136 96.9227 96.7709 96.8116 97.4895C96.7089 98.2081 96.5121 98.9311 96.2212 99.6584C95.9303 100.377 95.5625 100.997 95.1176 101.519C94.6727 102.041 94.0823 102.465 93.3466 102.79C92.6107 103.115 91.7723 103.277 90.8312 103.277ZM104.089 96.5526C104.089 95.4661 104.033 94.6961 103.921 94.2426C103.81 93.7892 103.605 93.5625 103.305 93.5625C103.049 93.5625 102.839 93.6095 102.677 93.7036C102.514 93.7892 102.394 93.9304 102.317 94.1271C102.24 94.3154 102.189 94.5121 102.163 94.7175C102.146 94.9143 102.138 95.1666 102.138 95.4746V96.5526H104.089ZM103.061 103.457C102.103 103.457 101.269 103.312 100.559 103.021C99.8576 102.73 99.3015 102.323 98.8909 101.802C98.4887 101.28 98.1936 100.694 98.0054 100.043C97.8171 99.3845 97.723 98.653 97.723 97.8489C97.723 95.9324 98.2107 94.4822 99.186 93.4984C100.161 92.5145 101.526 92.0225 103.28 92.0225C104.965 92.0225 106.172 92.4203 106.899 93.216C107.626 94.0031 107.989 95.2736 107.989 97.0275V98.452H102.125V98.6959C102.125 99.2006 102.176 99.6155 102.279 99.9406C102.39 100.266 102.548 100.505 102.753 100.659C102.959 100.813 103.169 100.916 103.382 100.967C103.596 101.019 103.858 101.044 104.166 101.044C104.465 101.044 104.786 101.006 105.128 100.929C105.479 100.852 105.829 100.732 106.18 100.57C106.539 100.407 106.839 100.214 107.078 99.992L107.835 101.288C107.519 101.802 107.053 102.234 106.437 102.584C105.829 102.927 105.244 103.158 104.678 103.277C104.114 103.397 103.575 103.457 103.061 103.457ZM111.87 103.188L108.097 92.2792H112.704L113.525 96.219L114.116 99.6199L114.77 96.219L115.72 92.2792H119.185L115.912 103.188H111.87Z" fill="#333333"/>
<mask id="mask1_106_195" style="mask-type:alpha" maskUnits="userSpaceOnUse" x="117" y="87" width="30" height="19">
<path d="M121.312 90.8125C121.312 88.914 122.852 87.375 124.75 87.375H142.625C144.523 87.375 146.062 88.914 146.062 90.8125V102.5C146.062 104.398 144.523 105.938 142.625 105.938H117.875L120.022 104.22C120.838 103.567 121.312 102.58 121.312 101.535V90.8125Z" fill="white"/>
</mask>
<g mask="url(#mask1_106_195)">
<path d="M148.812 87.375H118.562V93.5625H148.812V87.375Z" fill="#FFA216"/>
<path d="M148.812 93.5625H118.562V99.75H148.812V93.5625Z" fill="#FF6939"/>
<path d="M148.812 99.75H118.562V105.938H148.812V99.75Z" fill="#F03E06"/>
</g>
<g filter="url(#filter0_d_106_195)">
<path d="M131.959 103.188L131.454 101.088H128.264L127.838 103.188H124.537L127.961 90.9365L127.692 90.0269H132.33L136.08 103.188H131.959ZM129.713 93.8898L128.725 98.7969H130.904L129.713 93.8898ZM138.331 103.188V95.9222L137.657 95.5068V94.3052L140.072 93.6427H141.947V103.188H138.331ZM139.96 92.6096L138.118 90.7568V90.3638L139.96 88.5222H140.386L142.306 90.3638V90.7568L140.386 92.6096H139.96Z" fill="white"/>
</g>
</g>
</g>
<path d="M21.2072 20H20.4061C20.3464 19.7017 20.2385 19.4261 20.0822 19.1733C19.9288 18.9176 19.7356 18.6946 19.5027 18.5043C19.2697 18.3139 19.0055 18.1662 18.71 18.0611C18.4146 17.956 18.095 17.9034 17.7512 17.9034C17.2001 17.9034 16.6973 18.0469 16.2427 18.3338C15.791 18.6207 15.4288 19.0426 15.1561 19.5994C14.8862 20.1534 14.7512 20.8324 14.7512 21.6364C14.7512 22.446 14.8862 23.1278 15.1561 23.6818C15.4288 24.2358 15.791 24.6562 16.2427 24.9432C16.6973 25.2273 17.2001 25.3693 17.7512 25.3693C18.095 25.3693 18.4146 25.3168 18.71 25.2116C19.0055 25.1065 19.2697 24.9602 19.5027 24.7727C19.7356 24.5824 19.9288 24.3594 20.0822 24.1037C20.2385 23.848 20.3464 23.571 20.4061 23.2727H21.2072C21.1362 23.6733 21.0027 24.0469 20.8066 24.3935C20.6135 24.7372 20.3663 25.0384 20.0652 25.2969C19.7669 25.5554 19.4231 25.7571 19.0339 25.902C18.6447 26.0469 18.2172 26.1193 17.7512 26.1193C17.0183 26.1193 16.3677 25.9361 15.7995 25.5696C15.2314 25.2003 14.7853 24.6804 14.4615 24.0099C14.1404 23.3395 13.9799 22.5483 13.9799 21.6364C13.9799 20.7244 14.1404 19.9332 14.4615 19.2628C14.7853 18.5923 15.2314 18.0739 15.7995 17.7074C16.3677 17.3381 17.0183 17.1534 17.7512 17.1534C18.2172 17.1534 18.6447 17.2259 19.0339 17.3707C19.4231 17.5128 19.7669 17.7145 20.0652 17.9759C20.3663 18.2344 20.6135 18.5355 20.8066 18.8793C21.0027 19.223 21.1362 19.5966 21.2072 20ZM23.6799 21.9091V26H22.9213V17.2727H23.6799V20.4815H23.748C23.9015 20.1435 24.1387 19.8736 24.4597 19.6719C24.7836 19.4702 25.1926 19.3693 25.687 19.3693C26.1301 19.3693 26.5194 19.4602 26.8546 19.642C27.1898 19.8239 27.4512 20.0923 27.6387 20.4474C27.8262 20.8026 27.9199 21.2401 27.9199 21.7599V26H27.1571V21.8068C27.1571 21.267 27.0066 20.8423 26.7054 20.5327C26.4071 20.2202 26.0037 20.0639 25.4952 20.0639C25.1458 20.0639 24.8347 20.1378 24.562 20.2855C24.2892 20.4332 24.0733 20.6463 23.9142 20.9247C23.758 21.2003 23.6799 21.5284 23.6799 21.9091ZM32.5637 26.1364C31.9529 26.1364 31.4245 25.9943 30.9785 25.7102C30.5325 25.4233 30.1873 25.027 29.943 24.5213C29.7015 24.0128 29.5808 23.4276 29.5808 22.7656C29.5808 22.1065 29.7015 21.5213 29.943 21.0099C30.1873 20.4957 30.524 20.0937 30.9529 19.804C31.3848 19.5114 31.8833 19.3651 32.4487 19.3651C32.8038 19.3651 33.1461 19.4304 33.4757 19.5611C33.8052 19.6889 34.1007 19.8864 34.362 20.1534C34.6262 20.4176 34.835 20.7514 34.9885 21.1548C35.1419 21.5554 35.2186 22.0298 35.2186 22.5781V22.9531H30.1049V22.2841H34.443C34.443 21.8636 34.3578 21.4858 34.1873 21.1506C34.0197 20.8125 33.7853 20.5455 33.4842 20.3494C33.1859 20.1534 32.8407 20.0554 32.4487 20.0554C32.0339 20.0554 31.6689 20.1662 31.3535 20.3878C31.0382 20.6094 30.791 20.902 30.612 21.2656C30.4359 21.6293 30.3464 22.027 30.3436 22.4588V22.8594C30.3436 23.3793 30.4331 23.8338 30.612 24.223C30.7939 24.6094 31.051 24.9091 31.3833 25.1222C31.7157 25.3352 32.1092 25.4418 32.5637 25.4418C32.8734 25.4418 33.1447 25.3935 33.3777 25.2969C33.6135 25.2003 33.8109 25.071 33.97 24.9091C34.1319 24.7443 34.2541 24.5639 34.3365 24.3679L35.0566 24.6023C34.9572 24.8778 34.7939 25.1321 34.5666 25.3651C34.3422 25.598 34.0609 25.7855 33.7228 25.9276C33.3876 26.0668 33.0012 26.1364 32.5637 26.1364ZM38.7182 26.1491C38.3233 26.1491 37.9625 26.0724 37.6358 25.919C37.3091 25.7628 37.0492 25.5384 36.856 25.2457C36.6628 24.9503 36.5662 24.5923 36.5662 24.1719C36.5662 23.848 36.6273 23.5753 36.7495 23.3537C36.8716 23.1321 37.0449 22.9503 37.2694 22.8082C37.4938 22.6662 37.7594 22.554 38.0662 22.4716C38.373 22.3892 38.7111 22.3253 39.0804 22.2798C39.4469 22.2344 39.7566 22.1946 40.0094 22.1605C40.2651 22.1264 40.4597 22.0724 40.5932 21.9986C40.7267 21.9247 40.7935 21.8054 40.7935 21.6406V21.4872C40.7935 21.0412 40.66 20.6903 40.3929 20.4347C40.1287 20.1761 39.748 20.0469 39.2509 20.0469C38.7793 20.0469 38.3944 20.1506 38.0961 20.358C37.8006 20.5653 37.5932 20.8097 37.4739 21.0909L36.7537 20.831C36.9015 20.473 37.106 20.1875 37.3674 19.9744C37.6287 19.7585 37.9213 19.6037 38.2452 19.5099C38.5691 19.4134 38.8972 19.3651 39.2296 19.3651C39.4796 19.3651 39.7395 19.3977 40.0094 19.4631C40.2821 19.5284 40.535 19.642 40.7679 19.804C41.0009 19.9631 41.1898 20.1861 41.3347 20.473C41.4796 20.7571 41.552 21.1179 41.552 21.5554V26H40.7935V24.9645H40.7466C40.6557 25.1577 40.5208 25.3452 40.3418 25.527C40.1628 25.7088 39.9384 25.858 39.6685 25.9744C39.3986 26.0909 39.0819 26.1491 38.7182 26.1491ZM38.8205 25.4545C39.2239 25.4545 39.5733 25.3651 39.8688 25.1861C40.1642 25.0071 40.3915 24.7699 40.5506 24.4744C40.7125 24.1761 40.7935 23.848 40.7935 23.4901V22.544C40.7367 22.598 40.6415 22.6463 40.508 22.6889C40.3773 22.7315 40.2253 22.7699 40.052 22.804C39.8816 22.8352 39.7111 22.8622 39.5407 22.8849C39.3702 22.9077 39.2168 22.9276 39.0804 22.9446C38.7111 22.9901 38.3958 23.0611 38.1344 23.1577C37.873 23.2543 37.6728 23.3878 37.5336 23.5582C37.3944 23.7259 37.3248 23.9418 37.3248 24.206C37.3248 24.6037 37.4668 24.9119 37.7509 25.1307C38.035 25.3466 38.3915 25.4545 38.8205 25.4545ZM43.5698 28.4545V19.4545H44.307V20.7031H44.3965C44.4874 20.5071 44.6124 20.3068 44.7715 20.1023C44.9306 19.8949 45.1408 19.7202 45.4022 19.5781C45.6664 19.4361 45.9988 19.3651 46.3993 19.3651C46.9391 19.3651 47.4107 19.5071 47.8141 19.7912C48.2203 20.0724 48.5357 20.4673 48.7601 20.9759C48.9874 21.4815 49.101 22.071 49.101 22.7443C49.101 23.4205 48.9874 24.0128 48.7601 24.5213C48.5357 25.0298 48.2203 25.4261 47.8141 25.7102C47.4107 25.9943 46.9419 26.1364 46.4078 26.1364C46.013 26.1364 45.682 26.0653 45.415 25.9233C45.1507 25.7812 44.9363 25.6065 44.7715 25.3991C44.6096 25.1889 44.4846 24.9844 44.3965 24.7855H44.3283V28.4545H43.5698ZM44.3198 22.7315C44.3198 23.2599 44.3979 23.7287 44.5542 24.1378C44.7132 24.544 44.9405 24.8636 45.236 25.0966C45.5343 25.3267 45.8951 25.4418 46.3184 25.4418C46.753 25.4418 47.1195 25.3224 47.4178 25.0838C47.7189 24.8423 47.9476 24.517 48.1039 24.108C48.263 23.6989 48.3425 23.2401 48.3425 22.7315C48.3425 22.2287 48.2644 21.7756 48.1081 21.3722C47.9547 20.9687 47.7275 20.6491 47.4263 20.4134C47.1252 20.1747 46.7559 20.0554 46.3184 20.0554C45.8922 20.0554 45.53 20.1705 45.2317 20.4006C44.9334 20.6278 44.7061 20.9432 44.5499 21.3466C44.3965 21.7472 44.3198 22.2088 44.3198 22.7315ZM52.0265 24.8068L51.9498 25.2628C51.9015 25.5696 51.8333 25.9077 51.7452 26.277C51.6571 26.6463 51.5662 26.9972 51.4725 27.3295C51.3787 27.6619 51.2978 27.929 51.2296 28.1307H50.6458C50.6827 27.9375 50.7296 27.6918 50.7864 27.3935C50.8461 27.0952 50.9071 26.7642 50.9696 26.4006C51.0321 26.0398 51.089 25.6676 51.1401 25.2841L51.1998 24.8068H52.0265ZM60.1028 19.4545V20.1151H56.8855V19.4545H60.1028ZM57.8912 26V18.4957C57.8912 18.1435 57.9721 17.8466 58.1341 17.6051C58.2988 17.3636 58.5133 17.1804 58.7775 17.0554C59.0417 16.9304 59.3216 16.8679 59.617 16.8679C59.8159 16.8679 59.9806 16.8849 60.1113 16.919C60.2449 16.9503 60.35 16.9815 60.4267 17.0128L60.2051 17.6776C60.1483 17.6605 60.0787 17.6406 59.9963 17.6179C59.9139 17.5952 59.8102 17.5838 59.6852 17.5838C59.3556 17.5838 59.1014 17.6761 58.9224 17.8608C58.7434 18.0455 58.6539 18.3097 58.6539 18.6534L58.6497 26H57.8912ZM63.269 26.1491C62.8741 26.1491 62.5133 26.0724 62.1866 25.919C61.8599 25.7628 61.6 25.5384 61.4068 25.2457C61.2136 24.9503 61.117 24.5923 61.117 24.1719C61.117 23.848 61.1781 23.5753 61.3002 23.3537C61.4224 23.1321 61.5957 22.9503 61.8201 22.8082C62.0446 22.6662 62.3102 22.554 62.617 22.4716C62.9238 22.3892 63.2619 22.3253 63.6312 22.2798C63.9977 22.2344 64.3074 22.1946 64.5602 22.1605C64.8159 22.1264 65.0105 22.0724 65.144 21.9986C65.2775 21.9247 65.3443 21.8054 65.3443 21.6406V21.4872C65.3443 21.0412 65.2108 20.6903 64.9437 20.4347C64.6795 20.1761 64.2988 20.0469 63.8017 20.0469C63.3301 20.0469 62.9451 20.1506 62.6468 20.358C62.3514 20.5653 62.144 20.8097 62.0247 21.0909L61.3045 20.831C61.4522 20.473 61.6568 20.1875 61.9181 19.9744C62.1795 19.7585 62.4721 19.6037 62.796 19.5099C63.1199 19.4134 63.448 19.3651 63.7804 19.3651C64.0304 19.3651 64.2903 19.3977 64.5602 19.4631C64.8329 19.5284 65.0858 19.642 65.3187 19.804C65.5517 19.9631 65.7406 20.1861 65.8855 20.473C66.0304 20.7571 66.1028 21.1179 66.1028 21.5554V26H65.3443V24.9645H65.2974C65.2065 25.1577 65.0716 25.3452 64.8926 25.527C64.7136 25.7088 64.4892 25.858 64.2193 25.9744C63.9494 26.0909 63.6326 26.1491 63.269 26.1491ZM63.3713 25.4545C63.7747 25.4545 64.1241 25.3651 64.4196 25.1861C64.715 25.0071 64.9423 24.7699 65.1014 24.4744C65.2633 24.1761 65.3443 23.848 65.3443 23.4901V22.544C65.2875 22.598 65.1923 22.6463 65.0588 22.6889C64.9281 22.7315 64.7761 22.7699 64.6028 22.804C64.4324 22.8352 64.2619 22.8622 64.0914 22.8849C63.921 22.9077 63.7676 22.9276 63.6312 22.9446C63.2619 22.9901 62.9466 23.0611 62.6852 23.1577C62.4238 23.2543 62.2235 23.3878 62.0843 23.5582C61.9451 23.7259 61.8755 23.9418 61.8755 24.206C61.8755 24.6037 62.0176 24.9119 62.3017 25.1307C62.5858 25.3466 62.9423 25.4545 63.3713 25.4545ZM72.5183 20.8906L71.8237 21.0866C71.7555 20.8906 71.6589 20.7131 71.5339 20.554C71.4089 20.3949 71.2456 20.2685 71.0439 20.1747C70.845 20.081 70.5978 20.0341 70.3024 20.0341C69.8592 20.0341 69.4956 20.1392 69.2115 20.3494C68.9274 20.5597 68.7853 20.831 68.7853 21.1634C68.7853 21.4446 68.8819 21.6733 69.0751 21.8494C69.2711 22.0227 69.5723 22.1605 69.9785 22.2628L70.9672 22.5057C71.5154 22.6392 71.926 22.8509 72.1987 23.1406C72.4743 23.4304 72.612 23.794 72.612 24.2315C72.612 24.6009 72.5098 24.929 72.3052 25.2159C72.1007 25.5028 71.8152 25.7287 71.4487 25.8935C71.085 26.0554 70.6632 26.1364 70.1831 26.1364C69.5439 26.1364 69.0169 25.9929 68.6021 25.706C68.1873 25.4162 67.9217 24.9986 67.8052 24.4531L68.5339 24.2741C68.6277 24.6634 68.8109 24.9574 69.0836 25.1562C69.3592 25.3551 69.7214 25.4545 70.1703 25.4545C70.6731 25.4545 71.0751 25.3423 71.3762 25.1179C71.6774 24.8906 71.8279 24.6065 71.8279 24.2656C71.8279 24.0014 71.7399 23.7798 71.5637 23.6009C71.3876 23.419 71.1206 23.2855 70.7626 23.2003L69.693 22.9446C69.1248 22.8082 68.7044 22.5923 68.4316 22.2969C68.1589 22.0014 68.0225 21.6349 68.0225 21.1974C68.0225 20.8366 68.1206 20.5199 68.3166 20.2472C68.5126 19.9716 68.7825 19.7557 69.1262 19.5994C69.47 19.4432 69.862 19.3651 70.3024 19.3651C70.9018 19.3651 71.3805 19.5014 71.7385 19.7741C72.0993 20.044 72.3592 20.4162 72.5183 20.8906ZM76.851 19.4545V20.1151H73.7275V19.4545H76.851ZM74.7033 17.8864H75.4661V24.2912C75.4661 24.5639 75.513 24.7784 75.6067 24.9347C75.7005 25.0881 75.8226 25.1974 75.9732 25.2628C76.1238 25.3253 76.2843 25.3565 76.4547 25.3565C76.5542 25.3565 76.6394 25.3509 76.7104 25.3395C76.7814 25.3253 76.8439 25.3111 76.8979 25.2969L77.0598 25.983C76.986 26.0114 76.8951 26.0369 76.7871 26.0597C76.6792 26.0852 76.5456 26.098 76.3865 26.098C76.1081 26.098 75.8397 26.0369 75.5811 25.9148C75.3255 25.7926 75.1152 25.6108 74.9505 25.3693C74.7857 25.1278 74.7033 24.8281 74.7033 24.4702V17.8864ZM79.835 24.8068L79.7583 25.2628C79.71 25.5696 79.6419 25.9077 79.5538 26.277C79.4657 26.6463 79.3748 26.9972 79.2811 27.3295C79.1873 27.6619 79.1064 27.929 79.0382 28.1307H78.4544C78.4913 27.9375 78.5382 27.6918 78.595 27.3935C78.6547 27.0952 78.7157 26.7642 78.7782 26.4006C78.8407 26.0398 78.8975 25.6676 78.9487 25.2841L79.0083 24.8068H79.835ZM87.5748 26.1364C87.0378 26.1364 86.5676 25.9943 86.1642 25.7102C85.7608 25.4261 85.4455 25.0298 85.2182 24.5213C84.9938 24.0128 84.8816 23.4205 84.8816 22.7443C84.8816 22.071 84.9938 21.4815 85.2182 20.9759C85.4455 20.4673 85.7623 20.0724 86.1685 19.7912C86.5748 19.5071 87.0478 19.3651 87.5875 19.3651C87.9853 19.3651 88.3162 19.4361 88.5804 19.5781C88.8446 19.7173 89.0563 19.8906 89.2154 20.098C89.3745 20.3054 89.498 20.5071 89.5861 20.7031H89.6543V17.2727H90.4171V26H89.6756V24.7855H89.5861C89.498 24.9844 89.373 25.1889 89.2111 25.3991C89.0492 25.6065 88.8347 25.7812 88.5676 25.9233C88.3034 26.0653 87.9725 26.1364 87.5748 26.1364ZM87.6642 25.4418C88.0875 25.4418 88.4483 25.3267 88.7466 25.0966C89.0449 24.8636 89.2722 24.544 89.4284 24.1378C89.5875 23.7287 89.6671 23.2599 89.6671 22.7315C89.6671 22.2088 89.589 21.7472 89.4327 21.3466C89.2765 20.9432 89.0492 20.6278 88.7509 20.4006C88.4526 20.1705 88.0904 20.0554 87.6642 20.0554C87.2267 20.0554 86.8574 20.1747 86.5563 20.4134C86.258 20.6491 86.0307 20.9687 85.8745 21.3722C85.7211 21.7756 85.6444 22.2287 85.6444 22.7315C85.6444 23.2401 85.7225 23.6989 85.8787 24.108C86.035 24.517 86.2623 24.8423 86.5605 25.0838C86.8617 25.3224 87.2296 25.4418 87.6642 25.4418ZM92.5861 26V19.4545H93.3489V26H92.5861ZM92.9739 18.3295C92.8176 18.3295 92.6841 18.277 92.5733 18.1719C92.4625 18.0639 92.4071 17.9347 92.4071 17.7841C92.4071 17.6335 92.4625 17.5057 92.5733 17.4006C92.6841 17.2926 92.8176 17.2386 92.9739 17.2386C93.1301 17.2386 93.2637 17.2926 93.3745 17.4006C93.4853 17.5057 93.5407 17.6335 93.5407 17.7841C93.5407 17.9347 93.4853 18.0639 93.3745 18.1719C93.2637 18.277 93.1301 18.3295 92.9739 18.3295ZM99.7527 20.8906L99.0581 21.0866C98.9899 20.8906 98.8933 20.7131 98.7683 20.554C98.6433 20.3949 98.4799 20.2685 98.2782 20.1747C98.0794 20.081 97.8322 20.0341 97.5368 20.0341C97.0936 20.0341 96.7299 20.1392 96.4458 20.3494C96.1618 20.5597 96.0197 20.831 96.0197 21.1634C96.0197 21.4446 96.1163 21.6733 96.3095 21.8494C96.5055 22.0227 96.8066 22.1605 97.2129 22.2628L98.2015 22.5057C98.7498 22.6392 99.1603 22.8509 99.4331 23.1406C99.7086 23.4304 99.8464 23.794 99.8464 24.2315C99.8464 24.6009 99.7441 24.929 99.5396 25.2159C99.335 25.5028 99.0495 25.7287 98.6831 25.8935C98.3194 26.0554 97.8975 26.1364 97.4174 26.1364C96.7782 26.1364 96.2512 25.9929 95.8365 25.706C95.4217 25.4162 95.1561 24.9986 95.0396 24.4531L95.7683 24.2741C95.862 24.6634 96.0453 24.9574 96.318 25.1562C96.5936 25.3551 96.9558 25.4545 97.4047 25.4545C97.9075 25.4545 98.3095 25.3423 98.6106 25.1179C98.9118 24.8906 99.0623 24.6065 99.0623 24.2656C99.0623 24.0014 98.9743 23.7798 98.7981 23.6009C98.622 23.419 98.3549 23.2855 97.997 23.2003L96.9274 22.9446C96.3592 22.8082 95.9387 22.5923 95.666 22.2969C95.3933 22.0014 95.2569 21.6349 95.2569 21.1974C95.2569 20.8366 95.3549 20.5199 95.551 20.2472C95.747 19.9716 96.0169 19.7557 96.3606 19.5994C96.7044 19.4432 97.0964 19.3651 97.5368 19.3651C98.1362 19.3651 98.6149 19.5014 98.9728 19.7741C99.3336 20.044 99.5936 20.4162 99.7527 20.8906ZM101.507 28.4545V19.4545H102.244V20.7031H102.334C102.425 20.5071 102.55 20.3068 102.709 20.1023C102.868 19.8949 103.078 19.7202 103.34 19.5781C103.604 19.4361 103.936 19.3651 104.337 19.3651C104.877 19.3651 105.348 19.5071 105.752 19.7912C106.158 20.0724 106.473 20.4673 106.698 20.9759C106.925 21.4815 107.039 22.071 107.039 22.7443C107.039 23.4205 106.925 24.0128 106.698 24.5213C106.473 25.0298 106.158 25.4261 105.752 25.7102C105.348 25.9943 104.879 26.1364 104.345 26.1364C103.95 26.1364 103.619 26.0653 103.352 25.9233C103.088 25.7812 102.874 25.6065 102.709 25.3991C102.547 25.1889 102.422 24.9844 102.334 24.7855H102.266V28.4545H101.507ZM102.257 22.7315C102.257 23.2599 102.335 23.7287 102.492 24.1378C102.651 24.544 102.878 24.8636 103.173 25.0966C103.472 25.3267 103.833 25.4418 104.256 25.4418C104.691 25.4418 105.057 25.3224 105.355 25.0838C105.656 24.8423 105.885 24.517 106.041 24.108C106.2 23.6989 106.28 23.2401 106.28 22.7315C106.28 22.2287 106.202 21.7756 106.046 21.3722C105.892 20.9687 105.665 20.6491 105.364 20.4134C105.063 20.1747 104.693 20.0554 104.256 20.0554C103.83 20.0554 103.468 20.1705 103.169 20.4006C102.871 20.6278 102.644 20.9432 102.487 21.3466C102.334 21.7472 102.257 22.2088 102.257 22.7315ZM111.247 26.1364C110.681 26.1364 110.181 25.9929 109.747 25.706C109.315 25.419 108.977 25.0227 108.732 24.517C108.488 24.0085 108.366 23.4219 108.366 22.7571C108.366 22.0866 108.488 21.4972 108.732 20.9886C108.977 20.4773 109.315 20.0795 109.747 19.7955C110.181 19.5085 110.681 19.3651 111.247 19.3651C111.812 19.3651 112.311 19.5085 112.742 19.7955C113.174 20.0824 113.512 20.4801 113.757 20.9886C114.004 21.4972 114.127 22.0866 114.127 22.7571C114.127 23.4219 114.005 24.0085 113.761 24.517C113.517 25.0227 113.177 25.419 112.742 25.706C112.311 25.9929 111.812 26.1364 111.247 26.1364ZM111.247 25.4418C111.701 25.4418 112.086 25.3196 112.401 25.0753C112.717 24.831 112.955 24.5057 113.117 24.0994C113.282 23.6932 113.365 23.2457 113.365 22.7571C113.365 22.2685 113.282 21.8196 113.117 21.4105C112.955 21.0014 112.717 20.6733 112.401 20.4261C112.086 20.179 111.701 20.0554 111.247 20.0554C110.795 20.0554 110.41 20.179 110.092 20.4261C109.776 20.6733 109.536 21.0014 109.372 21.4105C109.21 21.8196 109.129 22.2685 109.129 22.7571C109.129 23.2457 109.21 23.6932 109.372 24.0994C109.536 24.5057 109.776 24.831 110.092 25.0753C110.407 25.3196 110.792 25.4418 111.247 25.4418ZM120.19 20.8906L119.496 21.0866C119.427 20.8906 119.331 20.7131 119.206 20.554C119.081 20.3949 118.917 20.2685 118.716 20.1747C118.517 20.081 118.27 20.0341 117.974 20.0341C117.531 20.0341 117.167 20.1392 116.883 20.3494C116.599 20.5597 116.457 20.831 116.457 21.1634C116.457 21.4446 116.554 21.6733 116.747 21.8494C116.943 22.0227 117.244 22.1605 117.65 22.2628L118.639 22.5057C119.187 22.6392 119.598 22.8509 119.871 23.1406C120.146 23.4304 120.284 23.794 120.284 24.2315C120.284 24.6009 120.182 24.929 119.977 25.2159C119.773 25.5028 119.487 25.7287 119.121 25.8935C118.757 26.0554 118.335 26.1364 117.855 26.1364C117.216 26.1364 116.689 25.9929 116.274 25.706C115.859 25.4162 115.594 24.9986 115.477 24.4531L116.206 24.2741C116.3 24.6634 116.483 24.9574 116.756 25.1562C117.031 25.3551 117.393 25.4545 117.842 25.4545C118.345 25.4545 118.747 25.3423 119.048 25.1179C119.349 24.8906 119.5 24.6065 119.5 24.2656C119.5 24.0014 119.412 23.7798 119.236 23.6009C119.059 23.419 118.792 23.2855 118.434 23.2003L117.365 22.9446C116.797 22.8082 116.376 22.5923 116.104 22.2969C115.831 22.0014 115.694 21.6349 115.694 21.1974C115.694 20.8366 115.792 20.5199 115.988 20.2472C116.184 19.9716 116.454 19.7557 116.798 19.5994C117.142 19.4432 117.534 19.3651 117.974 19.3651C118.574 19.3651 119.052 19.5014 119.41 19.7741C119.771 20.044 120.031 20.4162 120.19 20.8906ZM123.773 26.1491C123.378 26.1491 123.017 26.0724 122.691 25.919C122.364 25.7628 122.104 25.5384 121.911 25.2457C121.718 24.9503 121.621 24.5923 121.621 24.1719C121.621 23.848 121.682 23.5753 121.804 23.3537C121.926 23.1321 122.1 22.9503 122.324 22.8082C122.548 22.6662 122.814 22.554 123.121 22.4716C123.428 22.3892 123.766 22.3253 124.135 22.2798C124.502 22.2344 124.811 22.1946 125.064 22.1605C125.32 22.1264 125.514 22.0724 125.648 21.9986C125.781 21.9247 125.848 21.8054 125.848 21.6406V21.4872C125.848 21.0412 125.715 20.6903 125.448 20.4347C125.183 20.1761 124.803 20.0469 124.306 20.0469C123.834 20.0469 123.449 20.1506 123.151 20.358C122.855 20.5653 122.648 20.8097 122.529 21.0909L121.808 20.831C121.956 20.473 122.161 20.1875 122.422 19.9744C122.683 19.7585 122.976 19.6037 123.3 19.5099C123.624 19.4134 123.952 19.3651 124.284 19.3651C124.534 19.3651 124.794 19.3977 125.064 19.4631C125.337 19.5284 125.59 19.642 125.823 19.804C126.056 19.9631 126.244 20.1861 126.389 20.473C126.534 20.7571 126.607 21.1179 126.607 21.5554V26H125.848V24.9645H125.801C125.71 25.1577 125.575 25.3452 125.396 25.527C125.218 25.7088 124.993 25.858 124.723 25.9744C124.453 26.0909 124.137 26.1491 123.773 26.1491ZM123.875 25.4545C124.279 25.4545 124.628 25.3651 124.923 25.1861C125.219 25.0071 125.446 24.7699 125.605 24.4744C125.767 24.1761 125.848 23.848 125.848 23.4901V22.544C125.791 22.598 125.696 22.6463 125.563 22.6889C125.432 22.7315 125.28 22.7699 125.107 22.804C124.936 22.8352 124.766 22.8622 124.595 22.8849C124.425 22.9077 124.271 22.9276 124.135 22.9446C123.766 22.9901 123.45 23.0611 123.189 23.1577C122.928 23.2543 122.727 23.3878 122.588 23.5582C122.449 23.7259 122.379 23.9418 122.379 24.206C122.379 24.6037 122.521 24.9119 122.806 25.1307C123.09 25.3466 123.446 25.4545 123.875 25.4545ZM128.782 26V17.2727H129.545V20.7031H129.613C129.698 20.5071 129.82 20.3054 129.98 20.098C130.142 19.8906 130.353 19.7173 130.615 19.5781C130.879 19.4361 131.211 19.3651 131.612 19.3651C132.149 19.3651 132.62 19.5071 133.026 19.7912C133.433 20.0724 133.749 20.4673 133.977 20.9759C134.204 21.4815 134.318 22.071 134.318 22.7443C134.318 23.4205 134.204 24.0128 133.977 24.5213C133.752 25.0298 133.437 25.4261 133.031 25.7102C132.627 25.9943 132.159 26.1364 131.624 26.1364C131.227 26.1364 130.894 26.0653 130.627 25.9233C130.363 25.7812 130.15 25.6065 129.988 25.3991C129.826 25.1889 129.701 24.9844 129.613 24.7855H129.519V26H128.782ZM129.532 22.7315C129.532 23.2599 129.61 23.7287 129.767 24.1378C129.926 24.544 130.153 24.8636 130.448 25.0966C130.747 25.3267 131.107 25.4418 131.531 25.4418C131.965 25.4418 132.333 25.3224 132.634 25.0838C132.936 24.8423 133.164 24.517 133.32 24.108C133.477 23.6989 133.555 23.2401 133.555 22.7315C133.555 22.2287 133.477 21.7756 133.32 21.3722C133.167 20.9687 132.94 20.6491 132.639 20.4134C132.338 20.1747 131.968 20.0554 131.531 20.0554C131.105 20.0554 130.742 20.1705 130.444 20.4006C130.149 20.6278 129.923 20.9432 129.767 21.3466C129.61 21.7472 129.532 22.2088 129.532 22.7315ZM136.742 17.2727V26H135.984V17.2727H136.742ZM141.396 26.1364C140.785 26.1364 140.257 25.9943 139.811 25.7102C139.365 25.4233 139.019 25.027 138.775 24.5213C138.534 24.0128 138.413 23.4276 138.413 22.7656C138.413 22.1065 138.534 21.5213 138.775 21.0099C139.019 20.4957 139.356 20.0937 139.785 19.804C140.217 19.5114 140.715 19.3651 141.281 19.3651C141.636 19.3651 141.978 19.4304 142.308 19.5611C142.637 19.6889 142.933 19.8864 143.194 20.1534C143.458 20.4176 143.667 20.7514 143.82 21.1548C143.974 21.5554 144.051 22.0298 144.051 22.5781V22.9531H138.937V22.2841H143.275C143.275 21.8636 143.19 21.4858 143.019 21.1506C142.852 20.8125 142.617 20.5455 142.316 20.3494C142.018 20.1534 141.673 20.0554 141.281 20.0554C140.866 20.0554 140.501 20.1662 140.186 20.3878C139.87 20.6094 139.623 20.902 139.444 21.2656C139.268 21.6293 139.178 22.027 139.176 22.4588V22.8594C139.176 23.3793 139.265 23.8338 139.444 24.223C139.626 24.6094 139.883 24.9091 140.215 25.1222C140.548 25.3352 140.941 25.4418 141.396 25.4418C141.705 25.4418 141.977 25.3935 142.21 25.2969C142.445 25.2003 142.643 25.071 142.802 24.9091C142.964 24.7443 143.086 24.5639 143.169 24.3679L143.889 24.6023C143.789 24.8778 143.626 25.1321 143.399 25.3651C143.174 25.598 142.893 25.7855 142.555 25.9276C142.22 26.0668 141.833 26.1364 141.396 26.1364ZM158.447 17.2727H159.243V23.0511C159.243 23.6449 159.104 24.1761 158.826 24.6449C158.547 25.1108 158.16 25.4787 157.662 25.7486C157.168 26.0156 156.593 26.1491 155.937 26.1491C155.283 26.1491 154.708 26.0142 154.211 25.7443C153.714 25.4744 153.326 25.1065 153.047 24.6406C152.769 24.1747 152.63 23.6449 152.63 23.0511V17.2727H153.427V22.9957C153.427 23.4588 153.53 23.8722 153.738 24.2358C153.945 24.5966 154.236 24.8807 154.611 25.0881C154.989 25.2955 155.431 25.3991 155.937 25.3991C156.442 25.3991 156.884 25.2955 157.262 25.0881C157.64 24.8807 157.931 24.5966 158.135 24.2358C158.343 23.8722 158.447 23.4588 158.447 22.9957V17.2727ZM162.356 17.2727V26H161.559V17.2727H162.356ZM165.78 24.8068L165.704 25.2628C165.655 25.5696 165.587 25.9077 165.499 26.277C165.411 26.6463 165.32 26.9972 165.226 27.3295C165.133 27.6619 165.052 27.929 164.983 28.1307H164.4C164.437 27.9375 164.483 27.6918 164.54 27.3935C164.6 27.0952 164.661 26.7642 164.724 26.4006C164.786 26.0398 164.843 25.6676 164.894 25.2841L164.954 24.8068H165.78ZM26.2798 46.5909C25.8338 46.5909 25.4432 46.5327 25.108 46.4162C24.7727 46.3026 24.4901 46.1463 24.2599 45.9474C24.0298 45.7486 23.8509 45.5256 23.723 45.2784L24.3452 44.8693C24.4389 45.0341 24.5639 45.196 24.7202 45.3551C24.8793 45.5142 25.0852 45.6463 25.3381 45.7514C25.5938 45.8565 25.9077 45.9091 26.2798 45.9091C26.8594 45.9091 27.3267 45.7642 27.6818 45.4744C28.0398 45.1847 28.2188 44.7344 28.2188 44.1236V42.6491H28.1506C28.0625 42.848 27.9361 43.0469 27.7713 43.2457C27.6065 43.4418 27.3906 43.6051 27.1236 43.7358C26.8594 43.8665 26.5313 43.9318 26.1392 43.9318C25.6165 43.9318 25.152 43.8026 24.7457 43.544C24.3423 43.2855 24.0241 42.9162 23.7912 42.4361C23.5611 41.9531 23.446 41.3778 23.446 40.7102C23.446 40.0483 23.5582 39.4659 23.7827 38.9631C24.0099 38.4602 24.3267 38.0682 24.733 37.7869C25.1392 37.5057 25.6122 37.3651 26.152 37.3651C26.5526 37.3651 26.8849 37.4361 27.1491 37.5781C27.4134 37.7173 27.625 37.8906 27.7841 38.098C27.946 38.3054 28.0724 38.5071 28.1634 38.7031H28.2401V37.4545H28.9815V44.1705C28.9815 44.7244 28.8636 45.1804 28.6278 45.5384C28.392 45.8963 28.071 46.1605 27.6648 46.331C27.2585 46.5043 26.7969 46.5909 26.2798 46.5909ZM26.2287 43.2372C26.6491 43.2372 27.0085 43.1364 27.3068 42.9347C27.6051 42.7301 27.8338 42.4375 27.9929 42.0568C28.152 41.6761 28.2315 41.223 28.2315 40.6974C28.2315 40.1861 28.1534 39.733 27.9972 39.3381C27.8409 38.9403 27.6136 38.6278 27.3153 38.4006C27.0199 38.1705 26.6577 38.0554 26.2287 38.0554C25.7912 38.0554 25.4219 38.1733 25.1207 38.4091C24.8196 38.6449 24.5923 38.9631 24.4389 39.3636C24.2855 39.7614 24.2088 40.206 24.2088 40.6974C24.2088 41.1974 24.2869 41.6392 24.4432 42.0227C24.5994 42.4034 24.8281 42.7017 25.1293 42.9176C25.4304 43.1307 25.7969 43.2372 26.2287 43.2372ZM33.636 44.1364C33.0252 44.1364 32.4968 43.9943 32.0508 43.7102C31.6048 43.4233 31.2596 43.027 31.0153 42.5213C30.7738 42.0128 30.6531 41.4276 30.6531 40.7656C30.6531 40.1065 30.7738 39.5213 31.0153 39.0099C31.2596 38.4957 31.5962 38.0937 32.0252 37.804C32.457 37.5114 32.9556 37.3651 33.521 37.3651C33.8761 37.3651 34.2184 37.4304 34.5479 37.5611C34.8775 37.6889 35.1729 37.8864 35.4343 38.1534C35.6985 38.4176 35.9073 38.7514 36.0607 39.1548C36.2141 39.5554 36.2908 40.0298 36.2908 40.5781V40.9531H31.1772V40.2841H35.5153C35.5153 39.8636 35.43 39.4858 35.2596 39.1506C35.092 38.8125 34.8576 38.5455 34.5565 38.3494C34.2582 38.1534 33.913 38.0554 33.521 38.0554C33.1062 38.0554 32.7411 38.1662 32.4258 38.3878C32.1104 38.6094 31.8633 38.902 31.6843 39.2656C31.5082 39.6293 31.4187 40.027 31.4158 40.4588V40.8594C31.4158 41.3793 31.5053 41.8338 31.6843 42.223C31.8661 42.6094 32.1232 42.9091 32.4556 43.1222C32.788 43.3352 33.1815 43.4418 33.636 43.4418C33.9457 43.4418 34.217 43.3935 34.4499 43.2969C34.6857 43.2003 34.8832 43.071 35.0423 42.9091C35.2042 42.7443 35.3263 42.5639 35.4087 42.3679L36.1289 42.6023C36.0295 42.8778 35.8661 43.1321 35.6388 43.3651C35.4144 43.598 35.1332 43.7855 34.7951 43.9276C34.4599 44.0668 34.0735 44.1364 33.636 44.1364ZM38.7209 39.9091V44H37.9624V37.4545H38.6996V38.4815H38.7678C38.9212 38.1463 39.1598 37.8778 39.4837 37.6761C39.8104 37.4716 40.2138 37.3693 40.6939 37.3693C41.1342 37.3693 41.5206 37.4616 41.853 37.6463C42.1882 37.8281 42.4482 38.0966 42.6328 38.4517C42.8203 38.8068 42.9141 39.2429 42.9141 39.7599V44H42.1555V39.8068C42.1555 39.2699 42.005 38.8452 41.7038 38.5327C41.4055 38.2202 41.005 38.0639 40.5021 38.0639C40.1584 38.0639 39.853 38.1378 39.5859 38.2855C39.3189 38.4332 39.1072 38.6463 38.951 38.9247C38.7976 39.2003 38.7209 39.5284 38.7209 39.9091ZM47.5579 44.1364C46.9471 44.1364 46.4187 43.9943 45.9727 43.7102C45.5266 43.4233 45.1815 43.027 44.9371 42.5213C44.6957 42.0128 44.5749 41.4276 44.5749 40.7656C44.5749 40.1065 44.6957 39.5213 44.9371 39.0099C45.1815 38.4957 45.5181 38.0937 45.9471 37.804C46.3789 37.5114 46.8775 37.3651 47.4428 37.3651C47.7979 37.3651 48.1403 37.4304 48.4698 37.5611C48.7994 37.6889 49.0948 37.8864 49.3562 38.1534C49.6204 38.4176 49.8292 38.7514 49.9826 39.1548C50.136 39.5554 50.2127 40.0298 50.2127 40.5781V40.9531H45.0991V40.2841H49.4371C49.4371 39.8636 49.3519 39.4858 49.1815 39.1506C49.0138 38.8125 48.7795 38.5455 48.4783 38.3494C48.18 38.1534 47.8349 38.0554 47.4428 38.0554C47.0281 38.0554 46.663 38.1662 46.3477 38.3878C46.0323 38.6094 45.7852 38.902 45.6062 39.2656C45.43 39.6293 45.3406 40.027 45.3377 40.4588V40.8594C45.3377 41.3793 45.4272 41.8338 45.6062 42.223C45.788 42.6094 46.0451 42.9091 46.3775 43.1222C46.7099 43.3352 47.1033 43.4418 47.5579 43.4418C47.8675 43.4418 48.1388 43.3935 48.3718 43.2969C48.6076 43.2003 48.805 43.071 48.9641 42.9091C49.1261 42.7443 49.2482 42.5639 49.3306 42.3679L50.0508 42.6023C49.9513 42.8778 49.788 43.1321 49.5607 43.3651C49.3363 43.598 49.055 43.7855 48.717 43.9276C48.3817 44.0668 47.9954 44.1364 47.5579 44.1364ZM51.8842 44V37.4545H52.6214V38.4602H52.6768C52.8075 38.1307 53.0348 37.8651 53.3587 37.6634C53.6854 37.4588 54.0547 37.3565 54.4666 37.3565C54.5291 37.3565 54.5987 37.358 54.6754 37.3608C54.7521 37.3636 54.8161 37.3665 54.8672 37.3693V38.1406C54.8331 38.1349 54.7734 38.1264 54.6882 38.1151C54.603 38.1037 54.5107 38.098 54.4112 38.098C54.0703 38.098 53.7663 38.1705 53.4993 38.3153C53.2351 38.4574 53.0263 38.6548 52.8729 38.9077C52.7195 39.1605 52.6428 39.4489 52.6428 39.7727V44H51.8842ZM57.9897 44.1491C57.5948 44.1491 57.234 44.0724 56.9073 43.919C56.5806 43.7628 56.3207 43.5384 56.1275 43.2457C55.9343 42.9503 55.8377 42.5923 55.8377 42.1719C55.8377 41.848 55.8988 41.5753 56.021 41.3537C56.1431 41.1321 56.3164 40.9503 56.5408 40.8082C56.7653 40.6662 57.0309 40.554 57.3377 40.4716C57.6445 40.3892 57.9826 40.3253 58.3519 40.2798C58.7184 40.2344 59.0281 40.1946 59.2809 40.1605C59.5366 40.1264 59.7312 40.0724 59.8647 39.9986C59.9982 39.9247 60.065 39.8054 60.065 39.6406V39.4872C60.065 39.0412 59.9315 38.6903 59.6644 38.4347C59.4002 38.1761 59.0195 38.0469 58.5224 38.0469C58.0508 38.0469 57.6658 38.1506 57.3675 38.358C57.0721 38.5653 56.8647 38.8097 56.7454 39.0909L56.0252 38.831C56.1729 38.473 56.3775 38.1875 56.6388 37.9744C56.9002 37.7585 57.1928 37.6037 57.5167 37.5099C57.8406 37.4134 58.1687 37.3651 58.5011 37.3651C58.7511 37.3651 59.011 37.3977 59.2809 37.4631C59.5536 37.5284 59.8065 37.642 60.0394 37.804C60.2724 37.9631 60.4613 38.1861 60.6062 38.473C60.7511 38.7571 60.8235 39.1179 60.8235 39.5554V44H60.065V42.9645H60.0181C59.9272 43.1577 59.7923 43.3452 59.6133 43.527C59.4343 43.7088 59.2099 43.858 58.94 43.9744C58.6701 44.0909 58.3533 44.1491 57.9897 44.1491ZM58.092 43.4545C58.4954 43.4545 58.8448 43.3651 59.1403 43.1861C59.4357 43.0071 59.663 42.7699 59.8221 42.4744C59.984 42.1761 60.065 41.848 60.065 41.4901V40.544C60.0082 40.598 59.913 40.6463 59.7795 40.6889C59.6488 40.7315 59.4968 40.7699 59.3235 40.804C59.1531 40.8352 58.9826 40.8622 58.8121 40.8849C58.6417 40.9077 58.4883 40.9276 58.3519 40.9446C57.9826 40.9901 57.6673 41.0611 57.4059 41.1577C57.1445 41.2543 56.9442 41.3878 56.805 41.5582C56.6658 41.7259 56.5962 41.9418 56.5962 42.206C56.5962 42.6037 56.7383 42.9119 57.0224 43.1307C57.3065 43.3466 57.663 43.4545 58.092 43.4545ZM65.4194 37.4545V38.1151H62.2958V37.4545H65.4194ZM63.2717 35.8864H64.0344V42.2912C64.0344 42.5639 64.0813 42.7784 64.1751 42.9347C64.2688 43.0881 64.391 43.1974 64.5415 43.2628C64.6921 43.3253 64.8526 43.3565 65.0231 43.3565C65.1225 43.3565 65.2077 43.3509 65.2788 43.3395C65.3498 43.3253 65.4123 43.3111 65.4663 43.2969L65.6282 43.983C65.5543 44.0114 65.4634 44.0369 65.3555 44.0597C65.2475 44.0852 65.114 44.098 64.9549 44.098C64.6765 44.098 64.408 44.0369 64.1495 43.9148C63.8938 43.7926 63.6836 43.6108 63.5188 43.3693C63.354 43.1278 63.2717 42.8281 63.2717 42.4702V35.8864ZM69.718 44.1364C69.1072 44.1364 68.5788 43.9943 68.1328 43.7102C67.6868 43.4233 67.3416 43.027 67.0973 42.5213C66.8558 42.0128 66.7351 41.4276 66.7351 40.7656C66.7351 40.1065 66.8558 39.5213 67.0973 39.0099C67.3416 38.4957 67.6783 38.0937 68.1072 37.804C68.5391 37.5114 69.0376 37.3651 69.603 37.3651C69.9581 37.3651 70.3004 37.4304 70.63 37.5611C70.9595 37.6889 71.255 37.8864 71.5163 38.1534C71.7805 38.4176 71.9893 38.7514 72.1428 39.1548C72.2962 39.5554 72.3729 40.0298 72.3729 40.5781V40.9531H67.2592V40.2841H71.5973C71.5973 39.8636 71.5121 39.4858 71.3416 39.1506C71.174 38.8125 70.9396 38.5455 70.6385 38.3494C70.3402 38.1534 69.995 38.0554 69.603 38.0554C69.1882 38.0554 68.8232 38.1662 68.5078 38.3878C68.1925 38.6094 67.9453 38.902 67.7663 39.2656C67.5902 39.6293 67.5007 40.027 67.4979 40.4588V40.8594C67.4979 41.3793 67.5874 41.8338 67.7663 42.223C67.9482 42.6094 68.2053 42.9091 68.5376 43.1222C68.87 43.3352 69.2635 43.4418 69.718 43.4418C70.0277 43.4418 70.299 43.3935 70.532 43.2969C70.7678 43.2003 70.9652 43.071 71.1243 42.9091C71.2862 42.7443 71.4084 42.5639 71.4908 42.3679L72.2109 42.6023C72.1115 42.8778 71.9482 43.1321 71.7209 43.3651C71.4964 43.598 71.2152 43.7855 70.8771 43.9276C70.5419 44.0668 70.1555 44.1364 69.718 44.1364ZM76.4009 44.1364C75.864 44.1364 75.3938 43.9943 74.9904 43.7102C74.587 43.4261 74.2717 43.0298 74.0444 42.5213C73.82 42.0128 73.7077 41.4205 73.7077 40.7443C73.7077 40.071 73.82 39.4815 74.0444 38.9759C74.2717 38.4673 74.5884 38.0724 74.9947 37.7912C75.4009 37.5071 75.8739 37.3651 76.4137 37.3651C76.8114 37.3651 77.1424 37.4361 77.4066 37.5781C77.6708 37.7173 77.8825 37.8906 78.0415 38.098C78.2006 38.3054 78.3242 38.5071 78.4123 38.7031H78.4805V35.2727H79.2433V44H78.5018V42.7855H78.4123C78.3242 42.9844 78.1992 43.1889 78.0373 43.3991C77.8754 43.6065 77.6609 43.7812 77.3938 43.9233C77.1296 44.0653 76.7987 44.1364 76.4009 44.1364ZM76.4904 43.4418C76.9137 43.4418 77.2745 43.3267 77.5728 43.0966C77.8711 42.8636 78.0984 42.544 78.2546 42.1378C78.4137 41.7287 78.4933 41.2599 78.4933 40.7315C78.4933 40.2088 78.4151 39.7472 78.2589 39.3466C78.1026 38.9432 77.8754 38.6278 77.5771 38.4006C77.2788 38.1705 76.9165 38.0554 76.4904 38.0554C76.0529 38.0554 75.6836 38.1747 75.3825 38.4134C75.0842 38.6491 74.8569 38.9687 74.7006 39.3722C74.5472 39.7756 74.4705 40.2287 74.4705 40.7315C74.4705 41.2401 74.5487 41.6989 74.7049 42.108C74.8612 42.517 75.0884 42.8423 75.3867 43.0838C75.6879 43.3224 76.0558 43.4418 76.4904 43.4418ZM86.2319 44L84.2546 37.4545H85.0558L86.6069 42.8537H86.6623L88.2092 37.4545H89.0146L90.5487 42.8409H90.6083L92.1594 37.4545H92.9606L90.9833 44H90.1992L88.6481 38.6349H88.5671L87.016 44H86.2319ZM94.4435 44V37.4545H95.2063V44H94.4435ZM94.8313 36.3295C94.6751 36.3295 94.5415 36.277 94.4308 36.1719C94.32 36.0639 94.2646 35.9347 94.2646 35.7841C94.2646 35.6335 94.32 35.5057 94.4308 35.4006C94.5415 35.2926 94.6751 35.2386 94.8313 35.2386C94.9876 35.2386 95.1211 35.2926 95.2319 35.4006C95.3427 35.5057 95.3981 35.6335 95.3981 35.7841C95.3981 35.9347 95.3427 36.0639 95.2319 36.1719C95.1211 36.277 94.9876 36.3295 94.8313 36.3295ZM99.7905 37.4545V38.1151H96.6669V37.4545H99.7905ZM97.6428 35.8864H98.4055V42.2912C98.4055 42.5639 98.4524 42.7784 98.5462 42.9347C98.6399 43.0881 98.7621 43.1974 98.9126 43.2628C99.0632 43.3253 99.2237 43.3565 99.3942 43.3565C99.4936 43.3565 99.5788 43.3509 99.6499 43.3395C99.7209 43.3253 99.7834 43.3111 99.8374 43.2969L99.9993 43.983C99.9254 44.0114 99.8345 44.0369 99.7266 44.0597C99.6186 44.0852 99.4851 44.098 99.326 44.098C99.0476 44.098 98.7791 44.0369 98.5206 43.9148C98.2649 43.7926 98.0547 43.6108 97.8899 43.3693C97.7251 43.1278 97.6428 42.8281 97.6428 42.4702V35.8864ZM102.412 39.9091V44H101.654V35.2727H102.412V38.4815H102.48C102.634 38.1435 102.871 37.8736 103.192 37.6719C103.516 37.4702 103.925 37.3693 104.419 37.3693C104.863 37.3693 105.252 37.4602 105.587 37.642C105.922 37.8239 106.184 38.0923 106.371 38.4474C106.559 38.8026 106.652 39.2401 106.652 39.7599V44H105.89V39.8068C105.89 39.267 105.739 38.8423 105.438 38.5327C105.14 38.2202 104.736 38.0639 104.228 38.0639C103.878 38.0639 103.567 38.1378 103.294 38.2855C103.022 38.4332 102.806 38.6463 102.647 38.9247C102.49 39.2003 102.412 39.5284 102.412 39.9091ZM112.025 46.4545V37.4545H112.762V38.7031H112.852C112.942 38.5071 113.067 38.3068 113.227 38.1023C113.386 37.8949 113.596 37.7202 113.857 37.5781C114.121 37.4361 114.454 37.3651 114.854 37.3651C115.394 37.3651 115.866 37.5071 116.269 37.7912C116.675 38.0724 116.991 38.4673 117.215 38.9759C117.442 39.4815 117.556 40.071 117.556 40.7443C117.556 41.4205 117.442 42.0128 117.215 42.5213C116.991 43.0298 116.675 43.4261 116.269 43.7102C115.866 43.9943 115.397 44.1364 114.863 44.1364C114.468 44.1364 114.137 44.0653 113.87 43.9233C113.606 43.7812 113.391 43.6065 113.227 43.3991C113.065 43.1889 112.94 42.9844 112.852 42.7855H112.783V46.4545H112.025ZM112.775 40.7315C112.775 41.2599 112.853 41.7287 113.009 42.1378C113.168 42.544 113.396 42.8636 113.691 43.0966C113.989 43.3267 114.35 43.4418 114.773 43.4418C115.208 43.4418 115.575 43.3224 115.873 43.0838C116.174 42.8423 116.403 42.517 116.559 42.108C116.718 41.6989 116.798 41.2401 116.798 40.7315C116.798 40.2287 116.719 39.7756 116.563 39.3722C116.41 38.9687 116.183 38.6491 115.881 38.4134C115.58 38.1747 115.211 38.0554 114.773 38.0554C114.347 38.0554 113.985 38.1705 113.687 38.4006C113.388 38.6278 113.161 38.9432 113.005 39.3466C112.852 39.7472 112.775 40.2088 112.775 40.7315ZM119.22 44V37.4545H119.957V38.4602H120.013C120.143 38.1307 120.371 37.8651 120.695 37.6634C121.021 37.4588 121.391 37.3565 121.803 37.3565C121.865 37.3565 121.935 37.358 122.011 37.3608C122.088 37.3636 122.152 37.3665 122.203 37.3693V38.1406C122.169 38.1349 122.109 38.1264 122.024 38.1151C121.939 38.1037 121.847 38.098 121.747 38.098C121.406 38.098 121.102 38.1705 120.835 38.3153C120.571 38.4574 120.362 38.6548 120.209 38.9077C120.055 39.1605 119.979 39.4489 119.979 39.7727V44H119.22ZM125.842 44.1364C125.277 44.1364 124.777 43.9929 124.342 43.706C123.911 43.419 123.572 43.0227 123.328 42.517C123.084 42.0085 122.962 41.4219 122.962 40.7571C122.962 40.0866 123.084 39.4972 123.328 38.9886C123.572 38.4773 123.911 38.0795 124.342 37.7955C124.777 37.5085 125.277 37.3651 125.842 37.3651C126.408 37.3651 126.906 37.5085 127.338 37.7955C127.77 38.0824 128.108 38.4801 128.352 38.9886C128.599 39.4972 128.723 40.0866 128.723 40.7571C128.723 41.4219 128.601 42.0085 128.357 42.517C128.112 43.0227 127.773 43.419 127.338 43.706C126.906 43.9929 126.408 44.1364 125.842 44.1364ZM125.842 43.4418C126.297 43.4418 126.682 43.3196 126.997 43.0753C127.313 42.831 127.551 42.5057 127.713 42.0994C127.878 41.6932 127.96 41.2457 127.96 40.7571C127.96 40.2685 127.878 39.8196 127.713 39.4105C127.551 39.0014 127.313 38.6733 126.997 38.4261C126.682 38.179 126.297 38.0554 125.842 38.0554C125.391 38.0554 125.006 38.179 124.688 38.4261C124.372 38.6733 124.132 39.0014 123.967 39.4105C123.805 39.8196 123.724 40.2685 123.724 40.7571C123.724 41.2457 123.805 41.6932 123.967 42.0994C124.132 42.5057 124.372 42.831 124.688 43.0753C125.003 43.3196 125.388 43.4418 125.842 43.4418ZM130.388 44V37.4545H131.125V38.4602H131.194C131.324 38.1222 131.542 37.8565 131.846 37.6634C132.152 37.4673 132.52 37.3693 132.949 37.3693C133.401 37.3693 133.772 37.4759 134.061 37.6889C134.354 37.8991 134.573 38.1889 134.718 38.5582H134.773C134.921 38.1946 135.161 37.9062 135.493 37.6932C135.828 37.4773 136.235 37.3693 136.712 37.3693C137.32 37.3693 137.8 37.5611 138.152 37.9446C138.505 38.3253 138.681 38.8821 138.681 39.6151V44H137.922V39.6151C137.922 39.098 137.79 38.7102 137.526 38.4517C137.262 38.1932 136.914 38.0639 136.482 38.0639C135.982 38.0639 135.597 38.2173 135.327 38.5241C135.057 38.831 134.922 39.2202 134.922 39.6918V44H134.147V39.5469C134.147 39.1037 134.023 38.7457 133.776 38.473C133.529 38.2003 133.181 38.0639 132.732 38.0639C132.431 38.0639 132.159 38.1378 131.918 38.2855C131.679 38.4332 131.49 38.6392 131.351 38.9034C131.215 39.1648 131.147 39.4659 131.147 39.8068V44H130.388ZM140.689 46.4545V37.4545H141.426V38.7031H141.516C141.607 38.5071 141.732 38.3068 141.891 38.1023C142.05 37.8949 142.26 37.7202 142.521 37.5781C142.786 37.4361 143.118 37.3651 143.518 37.3651C144.058 37.3651 144.53 37.5071 144.933 37.7912C145.339 38.0724 145.655 38.4673 145.879 38.9759C146.107 39.4815 146.22 40.071 146.22 40.7443C146.22 41.4205 146.107 42.0128 145.879 42.5213C145.655 43.0298 145.339 43.4261 144.933 43.7102C144.53 43.9943 144.061 44.1364 143.527 44.1364C143.132 44.1364 142.801 44.0653 142.534 43.9233C142.27 43.7812 142.055 43.6065 141.891 43.3991C141.729 43.1889 141.604 42.9844 141.516 42.7855H141.447V46.4545H140.689ZM141.439 40.7315C141.439 41.2599 141.517 41.7287 141.673 42.1378C141.832 42.544 142.06 42.8636 142.355 43.0966C142.653 43.3267 143.014 43.4418 143.438 43.4418C143.872 43.4418 144.239 43.3224 144.537 43.0838C144.838 42.8423 145.067 42.517 145.223 42.108C145.382 41.6989 145.462 41.2401 145.462 40.7315C145.462 40.2287 145.384 39.7756 145.227 39.3722C145.074 38.9687 144.847 38.6491 144.545 38.4134C144.244 38.1747 143.875 38.0554 143.438 38.0554C143.011 38.0554 142.649 38.1705 142.351 38.4006C142.053 38.6278 141.825 38.9432 141.669 39.3466C141.516 39.7472 141.439 40.2088 141.439 40.7315ZM150.462 37.4545V38.1151H147.339V37.4545H150.462ZM148.315 35.8864H149.077V42.2912C149.077 42.5639 149.124 42.7784 149.218 42.9347C149.312 43.0881 149.434 43.1974 149.585 43.2628C149.735 43.3253 149.896 43.3565 150.066 43.3565C150.165 43.3565 150.251 43.3509 150.322 43.3395C150.393 43.3253 150.455 43.3111 150.509 43.2969L150.671 43.983C150.597 44.0114 150.506 44.0369 150.398 44.0597C150.29 44.0852 150.157 44.098 149.998 44.098C149.719 44.098 149.451 44.0369 149.192 43.9148C148.937 43.7926 148.727 43.6108 148.562 43.3693C148.397 43.1278 148.315 42.8281 148.315 42.4702V35.8864ZM156.466 38.8906L155.771 39.0866C155.703 38.8906 155.606 38.7131 155.481 38.554C155.356 38.3949 155.193 38.2685 154.991 38.1747C154.792 38.081 154.545 38.0341 154.25 38.0341C153.806 38.0341 153.443 38.1392 153.159 38.3494C152.875 38.5597 152.733 38.831 152.733 39.1634C152.733 39.4446 152.829 39.6733 153.022 39.8494C153.218 40.0227 153.52 40.1605 153.926 40.2628L154.914 40.5057C155.463 40.6392 155.873 40.8509 156.146 41.1406C156.422 41.4304 156.559 41.794 156.559 42.2315C156.559 42.6009 156.457 42.929 156.252 43.2159C156.048 43.5028 155.762 43.7287 155.396 43.8935C155.032 44.0554 154.61 44.1364 154.13 44.1364C153.491 44.1364 152.964 43.9929 152.549 43.706C152.135 43.4162 151.869 42.9986 151.752 42.4531L152.481 42.2741C152.575 42.6634 152.758 42.9574 153.031 43.1562C153.306 43.3551 153.669 43.4545 154.118 43.4545C154.62 43.4545 155.022 43.3423 155.324 43.1179C155.625 42.8906 155.775 42.6065 155.775 42.2656C155.775 42.0014 155.687 41.7798 155.511 41.6009C155.335 41.419 155.068 41.2855 154.71 41.2003L153.64 40.9446C153.072 40.8082 152.652 40.5923 152.379 40.2969C152.106 40.0014 151.97 39.6349 151.97 39.1974C151.97 38.8366 152.068 38.5199 152.264 38.2472C152.46 37.9716 152.73 37.7557 153.074 37.5994C153.417 37.4432 153.809 37.3651 154.25 37.3651C154.849 37.3651 155.328 37.5014 155.686 37.7741C156.047 38.044 156.306 38.4162 156.466 38.8906Z" fill="#333333"/>
<path d="M128.762 84.0031C143 70 139.5 61 139.5 53.6789" stroke="#A4A2A2" stroke-linecap="round" stroke-dasharray="1 6"/>
<defs>
<filter id="filter0_d_106_195" x="121.537" y="86.5222" width="23.7691" height="20.6653" filterUnits="userSpaceOnUse" color-interpolation-filters="sRGB">
<feFlood flood-opacity="0" result="BackgroundImageFix"/>
<feColorMatrix in="SourceAlpha" type="matrix" values="0 0 0 0 0 0 0 0 0 0 0 0 0 0 0 0 0 0 127 0" result="hardAlpha"/>
<feOffset dy="1"/>
<feGaussianBlur stdDeviation="1.5"/>
<feComposite in2="hardAlpha" operator="out"/>
<feColorMatrix type="matrix" values="0 0 0 0 0 0 0 0 0 0 0 0 0 0 0 0 0 0 0.25 0"/>
<feBlend mode="normal" in2="BackgroundImageFix" result="effect1_dropShadow_106_195"/>
<feBlend mode="normal" in="SourceGraphic" in2="effect1_dropShadow_106_195" result="shape"/>
</filter>
<clipPath id="clip0_106_195">
<rect width="113.438" height="22" fill="white" transform="translate(34 86)"/>
</clipPath>
</defs>
</svg>
