<svg width="180" height="129" viewBox="0 0 180 129" fill="none" xmlns="http://www.w3.org/2000/svg">
<g clip-path="url(#clip0_106_196)">
<mask id="mask0_106_196" style="mask-type:luminance" maskUnits="userSpaceOnUse" x="45" y="86" width="97" height="22">
<path d="M141.25 86H45V108H141.25V86Z" fill="white"/>
</mask>
<g mask="url(#mask0_106_196)">
<path d="M82.8125 90.8125V90.125C82.8125 89.7603 82.9574 89.4106 83.2152 89.1527C83.4731 88.8949 83.8229 88.75 84.1875 88.75H90.0312L93.8125 92.5312V101.125C93.8125 101.49 93.6676 101.839 93.4098 102.097C93.1519 102.355 92.8021 102.5 92.4375 102.5H82.8125" stroke="#FFA216" stroke-width="2" stroke-linecap="round" stroke-linejoin="round"/>
<path d="M89.6875 88.75V92.875H93.8125" stroke="#FFA216" stroke-width="2" stroke-linecap="round" stroke-linejoin="round"/>
<path d="M86.25 96.3125H82.125C81.7453 96.3125 81.4375 96.6203 81.4375 97V99.0625C81.4375 99.4422 81.7453 99.75 82.125 99.75H86.25C86.6297 99.75 86.9375 99.4422 86.9375 99.0625V97C86.9375 96.6203 86.6297 96.3125 86.25 96.3125Z" stroke="#F03E06" stroke-width="2" stroke-linecap="round" stroke-linejoin="round"/>
<path d="M85.5625 96.3125V94.9375C85.5625 94.5729 85.4176 94.2231 85.1598 93.9652C84.9019 93.7074 84.5521 93.5625 84.1875 93.5625C83.8229 93.5625 83.4731 93.7074 83.2152 93.9652C82.9574 94.2231 82.8125 94.5729 82.8125 94.9375V96.3125" stroke="#F03E06" stroke-width="2" stroke-linecap="round" stroke-linejoin="round"/>
<path d="M45.8599 103.188V88.1468H50.1077V99.7481H53.932V103.188H45.8599ZM60.409 101.917C60.7855 101.917 61.0721 101.763 61.2689 101.455C61.4742 101.138 61.5769 100.706 61.5769 100.159V96.1035C61.5769 94.4351 61.1833 93.601 60.3962 93.601C60.0283 93.601 59.7417 93.7507 59.5364 94.0501C59.331 94.3496 59.2284 94.7731 59.2284 95.3206V99.4915C59.2284 101.109 59.6219 101.917 60.409 101.917ZM60.3064 103.457C58.3472 103.457 56.9141 103.012 56.0072 102.122C55.1003 101.233 54.6469 99.8124 54.6469 97.8616C54.6469 95.9281 55.1046 94.4736 56.02 93.4984C56.9355 92.5144 58.4242 92.0225 60.486 92.0225C62.4966 92.0225 63.9468 92.4931 64.8365 93.4341C65.7349 94.3667 66.184 95.7826 66.184 97.682C66.184 99.6498 65.7092 101.104 64.7595 102.045C63.8184 102.986 62.334 103.457 60.3064 103.457ZM72.5229 107.718C71.8556 107.718 71.1027 107.564 70.2643 107.256C69.4258 106.956 68.8825 106.67 68.6344 106.396L69.4429 104.638C69.6568 104.8 70.0033 104.95 70.4824 105.087C70.9615 105.224 71.3722 105.292 71.7144 105.292C72.0567 105.292 72.3518 105.245 72.5999 105.151C72.8566 105.065 73.0533 104.954 73.1903 104.817C73.3272 104.689 73.4383 104.526 73.5239 104.33C73.6094 104.141 73.6608 103.97 73.6779 103.816C73.7036 103.662 73.7207 103.491 73.7293 103.303V102.212C73.002 102.965 72.1165 103.342 71.0728 103.342C69.6611 103.342 68.6258 102.858 67.9671 101.891C67.3083 100.925 66.9789 99.5814 66.9789 97.8616C66.9789 97.0575 67.0688 96.3174 67.2484 95.6415C67.4281 94.957 67.689 94.3581 68.0313 93.8449C68.382 93.323 68.8354 92.9165 69.3916 92.6257C69.9477 92.3262 70.5765 92.1765 71.2781 92.1765C72.3389 92.1765 73.2587 92.4118 74.0373 92.8824L74.2554 92.2792H76.2189L78.6316 92.3947V93.601L77.8616 94.14V102.713C77.8616 106.049 76.082 107.718 72.5229 107.718ZM72.9336 101.006C73.1903 101.006 73.4554 100.933 73.7293 100.788V94.0245C73.5239 93.9817 73.3357 93.9604 73.1646 93.9604C72.0267 93.9689 71.4534 94.8459 71.4449 96.5911V98.5804C71.4449 99.1279 71.5177 99.5985 71.6631 99.992C71.9198 100.668 72.3433 101.006 72.9336 101.006Z" fill="#333333"/>
<path d="M97.4224 103.188V88.1468H101.67V99.7481H105.495V103.188H97.4224ZM111.972 101.917C112.348 101.917 112.635 101.763 112.831 101.455C113.037 101.138 113.139 100.706 113.139 100.159V96.1035C113.139 94.4351 112.746 93.601 111.959 93.601C111.591 93.601 111.304 93.7507 111.099 94.0501C110.894 94.3496 110.791 94.7731 110.791 95.3206V99.4915C110.791 101.109 111.184 101.917 111.972 101.917ZM111.869 103.457C109.91 103.457 108.477 103.012 107.57 102.122C106.663 101.233 106.209 99.8124 106.209 97.8616C106.209 95.9281 106.667 94.4736 107.583 93.4984C108.498 92.5145 109.987 92.0225 112.049 92.0225C114.059 92.0225 115.509 92.4931 116.399 93.4341C117.298 94.3667 117.746 95.7826 117.746 97.682C117.746 99.6498 117.271 101.104 116.322 102.045C115.381 102.986 113.896 103.457 111.869 103.457ZM127.73 102.122L127.615 102.264C127.538 102.349 127.401 102.46 127.204 102.597C127.016 102.726 126.785 102.858 126.511 102.995C126.246 103.123 125.886 103.23 125.433 103.316C124.988 103.41 124.509 103.457 123.996 103.457C122.259 103.457 120.928 102.948 120.004 101.93C119.089 100.912 118.631 99.5642 118.631 97.8874C118.631 96.9805 118.772 96.1549 119.055 95.4105C119.337 94.6661 119.722 94.0501 120.21 93.5625C120.706 93.0663 121.284 92.6856 121.942 92.4203C122.61 92.1466 123.328 92.0097 124.098 92.0097C125.587 92.0097 126.742 92.3647 127.563 93.0749C127.743 93.2545 127.833 93.3444 127.833 93.3444L127.64 96.3601L125.818 96.373L125.086 94.4095C125.018 94.3924 124.924 94.3839 124.804 94.3839C124.025 94.3839 123.486 94.6534 123.187 95.1924C122.897 95.7228 122.751 96.6468 122.751 97.9644C122.751 98.5375 122.798 99.0295 122.892 99.4401C122.986 99.8423 123.093 100.146 123.213 100.351C123.332 100.548 123.491 100.702 123.688 100.813C123.893 100.925 124.06 100.989 124.188 101.006C124.316 101.023 124.475 101.032 124.663 101.032C125.091 101.032 125.527 100.98 125.972 100.878C126.425 100.775 126.797 100.608 127.088 100.377L127.73 102.122ZM135.357 103.188L133.369 97.9386L135.473 92.2792H140.285L136.924 97.3226L140.362 103.188H135.357ZM128.928 103.188V88.673L128.158 88.211V87.0175L132.277 86.3758H133.112V103.188H128.928Z" fill="#333333"/>
</g>
</g>
<path d="M44.6593 26H42.1025V17.2727H44.8127C45.6451 17.2727 46.3567 17.446 46.9476 17.7926C47.5414 18.1392 47.9959 18.6364 48.3113 19.2841C48.6266 19.9318 48.7843 20.7088 48.7843 21.6151C48.7843 22.5298 48.6223 23.3153 48.2985 23.9716C47.9775 24.625 47.5087 25.1264 46.8922 25.4759C46.2786 25.8253 45.5343 26 44.6593 26ZM42.8993 25.2841H44.6124C45.3624 25.2841 45.9902 25.1364 46.4959 24.8409C47.0016 24.5455 47.3809 24.1236 47.6337 23.5753C47.8865 23.027 48.013 22.3736 48.013 21.6151C48.0101 20.8622 47.8851 20.2145 47.638 19.6719C47.3936 19.1293 47.03 18.7131 46.5471 18.4233C46.0669 18.1335 45.4732 17.9886 44.7658 17.9886H42.8993V25.2841ZM52.3862 26.1491C51.9913 26.1491 51.6305 26.0724 51.3038 25.919C50.9771 25.7628 50.7172 25.5384 50.524 25.2457C50.3308 24.9503 50.2342 24.5923 50.2342 24.1719C50.2342 23.848 50.2953 23.5753 50.4174 23.3537C50.5396 23.1321 50.7129 22.9503 50.9373 22.8082C51.1618 22.6662 51.4274 22.554 51.7342 22.4716C52.041 22.3892 52.3791 22.3253 52.7484 22.2798C53.1149 22.2344 53.4245 22.1946 53.6774 22.1605C53.9331 22.1264 54.1277 22.0724 54.2612 21.9986C54.3947 21.9247 54.4615 21.8054 54.4615 21.6406V21.4872C54.4615 21.0412 54.3279 20.6903 54.0609 20.4347C53.7967 20.1761 53.416 20.0469 52.9189 20.0469C52.4473 20.0469 52.0623 20.1506 51.764 20.358C51.4686 20.5653 51.2612 20.8097 51.1419 21.0909L50.4217 20.831C50.5694 20.473 50.774 20.1875 51.0353 19.9744C51.2967 19.7585 51.5893 19.6037 51.9132 19.5099C52.237 19.4134 52.5652 19.3651 52.8975 19.3651C53.1475 19.3651 53.4075 19.3977 53.6774 19.4631C53.9501 19.5284 54.2029 19.642 54.4359 19.804C54.6689 19.9631 54.8578 20.1861 55.0027 20.473C55.1475 20.7571 55.22 21.1179 55.22 21.5554V26H54.4615V24.9645H54.4146C54.3237 25.1577 54.1887 25.3452 54.0098 25.527C53.8308 25.7088 53.6064 25.858 53.3365 25.9744C53.0666 26.0909 52.7498 26.1491 52.3862 26.1491ZM52.4885 25.4545C52.8919 25.4545 53.2413 25.3651 53.5368 25.1861C53.8322 25.0071 54.0595 24.7699 54.2186 24.4744C54.3805 24.1761 54.4615 23.848 54.4615 23.4901V22.544C54.4047 22.598 54.3095 22.6463 54.176 22.6889C54.0453 22.7315 53.8933 22.7699 53.72 22.804C53.5495 22.8352 53.3791 22.8622 53.2086 22.8849C53.0382 22.9077 52.8848 22.9276 52.7484 22.9446C52.3791 22.9901 52.0637 23.0611 51.8024 23.1577C51.541 23.2543 51.3407 23.3878 51.2015 23.5582C51.0623 23.7259 50.9927 23.9418 50.9927 24.206C50.9927 24.6037 51.1348 24.9119 51.4189 25.1307C51.7029 25.3466 52.0595 25.4545 52.4885 25.4545ZM59.8159 19.4545V20.1151H56.6923V19.4545H59.8159ZM57.6681 17.8864H58.4309V24.2912C58.4309 24.5639 58.4778 24.7784 58.5716 24.9347C58.6653 25.0881 58.7875 25.1974 58.938 25.2628C59.0886 25.3253 59.2491 25.3565 59.4196 25.3565C59.519 25.3565 59.6042 25.3509 59.6752 25.3395C59.7463 25.3253 59.8088 25.3111 59.8627 25.2969L60.0247 25.983C59.9508 26.0114 59.8599 26.0369 59.752 26.0597C59.644 26.0852 59.5105 26.098 59.3514 26.098C59.073 26.098 58.8045 26.0369 58.546 25.9148C58.2903 25.7926 58.0801 25.6108 57.9153 25.3693C57.7505 25.1278 57.6681 24.8281 57.6681 24.4702V17.8864ZM63.3667 26.1491C62.9718 26.1491 62.611 26.0724 62.2843 25.919C61.9576 25.7628 61.6976 25.5384 61.5044 25.2457C61.3113 24.9503 61.2147 24.5923 61.2147 24.1719C61.2147 23.848 61.2757 23.5753 61.3979 23.3537C61.5201 23.1321 61.6934 22.9503 61.9178 22.8082C62.1422 22.6662 62.4078 22.554 62.7147 22.4716C63.0215 22.3892 63.3596 22.3253 63.7289 22.2798C64.0953 22.2344 64.405 22.1946 64.6578 22.1605C64.9135 22.1264 65.1081 22.0724 65.2417 21.9986C65.3752 21.9247 65.4419 21.8054 65.4419 21.6406V21.4872C65.4419 21.0412 65.3084 20.6903 65.0414 20.4347C64.7772 20.1761 64.3965 20.0469 63.8993 20.0469C63.4277 20.0469 63.0428 20.1506 62.7445 20.358C62.449 20.5653 62.2417 20.8097 62.1223 21.0909L61.4022 20.831C61.5499 20.473 61.7544 20.1875 62.0158 19.9744C62.2772 19.7585 62.5698 19.6037 62.8936 19.5099C63.2175 19.4134 63.5456 19.3651 63.878 19.3651C64.128 19.3651 64.388 19.3977 64.6578 19.4631C64.9306 19.5284 65.1834 19.642 65.4164 19.804C65.6493 19.9631 65.8382 20.1861 65.9831 20.473C66.128 20.7571 66.2005 21.1179 66.2005 21.5554V26H65.4419V24.9645H65.3951C65.3042 25.1577 65.1692 25.3452 64.9902 25.527C64.8113 25.7088 64.5868 25.858 64.3169 25.9744C64.0471 26.0909 63.7303 26.1491 63.3667 26.1491ZM63.4689 25.4545C63.8723 25.4545 64.2218 25.3651 64.5172 25.1861C64.8127 25.0071 65.04 24.7699 65.199 24.4744C65.361 24.1761 65.4419 23.848 65.4419 23.4901V22.544C65.3851 22.598 65.29 22.6463 65.1564 22.6889C65.0257 22.7315 64.8738 22.7699 64.7005 22.804C64.53 22.8352 64.3596 22.8622 64.1891 22.8849C64.0186 22.9077 63.8652 22.9276 63.7289 22.9446C63.3596 22.9901 63.0442 23.0611 62.7828 23.1577C62.5215 23.2543 62.3212 23.3878 62.182 23.5582C62.0428 23.7259 61.9732 23.9418 61.9732 24.206C61.9732 24.6037 62.1152 24.9119 62.3993 25.1307C62.6834 25.3466 63.04 25.4545 63.4689 25.4545ZM74.1713 19.4545V20.1151H71.0478V19.4545H74.1713ZM72.0236 17.8864H72.7864V24.2912C72.7864 24.5639 72.8333 24.7784 72.927 24.9347C73.0208 25.0881 73.1429 25.1974 73.2935 25.2628C73.4441 25.3253 73.6046 25.3565 73.775 25.3565C73.8745 25.3565 73.9597 25.3509 74.0307 25.3395C74.1017 25.3253 74.1642 25.3111 74.2182 25.2969L74.3801 25.983C74.3063 26.0114 74.2154 26.0369 74.1074 26.0597C73.9995 26.0852 73.8659 26.098 73.7069 26.098C73.4284 26.098 73.16 26.0369 72.9015 25.9148C72.6458 25.7926 72.4355 25.6108 72.2708 25.3693C72.106 25.1278 72.0236 24.8281 72.0236 24.4702V17.8864ZM75.894 26V19.4545H76.6312V20.4602H76.6866C76.8173 20.1307 77.0446 19.8651 77.3684 19.6634C77.6951 19.4588 78.0645 19.3565 78.4764 19.3565C78.5389 19.3565 78.6085 19.358 78.6852 19.3608C78.7619 19.3636 78.8258 19.3665 78.877 19.3693V20.1406C78.8429 20.1349 78.7832 20.1264 78.698 20.1151C78.6127 20.1037 78.5204 20.098 78.421 20.098C78.0801 20.098 77.7761 20.1705 77.5091 20.3153C77.2449 20.4574 77.036 20.6548 76.8826 20.9077C76.7292 21.1605 76.6525 21.4489 76.6525 21.7727V26H75.894ZM81.9995 26.1491C81.6046 26.1491 81.2438 26.0724 80.9171 25.919C80.5904 25.7628 80.3304 25.5384 80.1373 25.2457C79.9441 24.9503 79.8475 24.5923 79.8475 24.1719C79.8475 23.848 79.9086 23.5753 80.0307 23.3537C80.1529 23.1321 80.3262 22.9503 80.5506 22.8082C80.775 22.6662 81.0407 22.554 81.3475 22.4716C81.6543 22.3892 81.9924 22.3253 82.3617 22.2798C82.7282 22.2344 83.0378 22.1946 83.2907 22.1605C83.5463 22.1264 83.7409 22.0724 83.8745 21.9986C84.008 21.9247 84.0748 21.8054 84.0748 21.6406V21.4872C84.0748 21.0412 83.9412 20.6903 83.6742 20.4347C83.41 20.1761 83.0293 20.0469 82.5321 20.0469C82.0605 20.0469 81.6756 20.1506 81.3773 20.358C81.0819 20.5653 80.8745 20.8097 80.7551 21.0909L80.035 20.831C80.1827 20.473 80.3873 20.1875 80.6486 19.9744C80.91 19.7585 81.2026 19.6037 81.5265 19.5099C81.8503 19.4134 82.1784 19.3651 82.5108 19.3651C82.7608 19.3651 83.0208 19.3977 83.2907 19.4631C83.5634 19.5284 83.8162 19.642 84.0492 19.804C84.2821 19.9631 84.4711 20.1861 84.6159 20.473C84.7608 20.7571 84.8333 21.1179 84.8333 21.5554V26H84.0748V24.9645H84.0279C83.937 25.1577 83.802 25.3452 83.623 25.527C83.4441 25.7088 83.2196 25.858 82.9498 25.9744C82.6799 26.0909 82.3631 26.1491 81.9995 26.1491ZM82.1017 25.4545C82.5051 25.4545 82.8546 25.3651 83.15 25.1861C83.4455 25.0071 83.6728 24.7699 83.8319 24.4744C83.9938 24.1761 84.0748 23.848 84.0748 23.4901V22.544C84.0179 22.598 83.9228 22.6463 83.7892 22.6889C83.6586 22.7315 83.5066 22.7699 83.3333 22.804C83.1628 22.8352 82.9924 22.8622 82.8219 22.8849C82.6515 22.9077 82.498 22.9276 82.3617 22.9446C81.9924 22.9901 81.677 23.0611 81.4157 23.1577C81.1543 23.2543 80.954 23.3878 80.8148 23.5582C80.6756 23.7259 80.606 23.9418 80.606 24.206C80.606 24.6037 80.748 24.9119 81.0321 25.1307C81.3162 25.3466 81.6728 25.4545 82.1017 25.4545ZM87.6096 21.9091V26H86.851V19.4545H87.5882V20.4815H87.6564C87.8098 20.1463 88.0485 19.8778 88.3723 19.6761C88.699 19.4716 89.1025 19.3693 89.5826 19.3693C90.0229 19.3693 90.4093 19.4616 90.7417 19.6463C91.0769 19.8281 91.3368 20.0966 91.5215 20.4517C91.709 20.8068 91.8027 21.2429 91.8027 21.7599V26H91.0442V21.8068C91.0442 21.2699 90.8936 20.8452 90.5925 20.5327C90.2942 20.2202 89.8936 20.0639 89.3908 20.0639C89.0471 20.0639 88.7417 20.1378 88.4746 20.2855C88.2076 20.4332 87.9959 20.6463 87.8397 20.9247C87.6863 21.2003 87.6096 21.5284 87.6096 21.9091ZM98.198 20.8906L97.5034 21.0866C97.4352 20.8906 97.3386 20.7131 97.2136 20.554C97.0886 20.3949 96.9252 20.2685 96.7235 20.1747C96.5247 20.081 96.2775 20.0341 95.9821 20.0341C95.5389 20.0341 95.1752 20.1392 94.8912 20.3494C94.6071 20.5597 94.465 20.831 94.465 21.1634C94.465 21.4446 94.5616 21.6733 94.7548 21.8494C94.9508 22.0227 95.252 22.1605 95.6582 22.2628L96.6468 22.5057C97.1951 22.6392 97.6056 22.8509 97.8784 23.1406C98.1539 23.4304 98.2917 23.794 98.2917 24.2315C98.2917 24.6009 98.1895 24.929 97.9849 25.2159C97.7804 25.5028 97.4949 25.7287 97.1284 25.8935C96.7647 26.0554 96.3429 26.1364 95.8627 26.1364C95.2235 26.1364 94.6966 25.9929 94.2818 25.706C93.867 25.4162 93.6014 24.9986 93.4849 24.4531L94.2136 24.2741C94.3074 24.6634 94.4906 24.9574 94.7633 25.1562C95.0389 25.3551 95.4011 25.4545 95.85 25.4545C96.3528 25.4545 96.7548 25.3423 97.0559 25.1179C97.3571 24.8906 97.5076 24.6065 97.5076 24.2656C97.5076 24.0014 97.4196 23.7798 97.2434 23.6009C97.0673 23.419 96.8002 23.2855 96.4423 23.2003L95.3727 22.9446C94.8045 22.8082 94.3841 22.5923 94.1113 22.2969C93.8386 22.0014 93.7022 21.6349 93.7022 21.1974C93.7022 20.8366 93.8002 20.5199 93.9963 20.2472C94.1923 19.9716 94.4622 19.7557 94.8059 19.5994C95.1497 19.4432 95.5417 19.3651 95.9821 19.3651C96.5815 19.3651 97.0602 19.5014 97.4181 19.7741C97.7789 20.044 98.0389 20.4162 98.198 20.8906ZM99.9526 28.4545V19.4545H100.69V20.7031H100.779C100.87 20.5071 100.995 20.3068 101.154 20.1023C101.313 19.8949 101.524 19.7202 101.785 19.5781C102.049 19.4361 102.382 19.3651 102.782 19.3651C103.322 19.3651 103.794 19.5071 104.197 19.7912C104.603 20.0724 104.919 20.4673 105.143 20.9759C105.37 21.4815 105.484 22.071 105.484 22.7443C105.484 23.4205 105.37 24.0128 105.143 24.5213C104.919 25.0298 104.603 25.4261 104.197 25.7102C103.794 25.9943 103.325 26.1364 102.791 26.1364C102.396 26.1364 102.065 26.0653 101.798 25.9233C101.534 25.7812 101.319 25.6065 101.154 25.3991C100.992 25.1889 100.867 24.9844 100.779 24.7855H100.711V28.4545H99.9526ZM100.703 22.7315C100.703 23.2599 100.781 23.7287 100.937 24.1378C101.096 24.544 101.323 24.8636 101.619 25.0966C101.917 25.3267 102.278 25.4418 102.701 25.4418C103.136 25.4418 103.502 25.3224 103.801 25.0838C104.102 24.8423 104.33 24.517 104.487 24.108C104.646 23.6989 104.725 23.2401 104.725 22.7315C104.725 22.2287 104.647 21.7756 104.491 21.3722C104.338 20.9687 104.11 20.6491 103.809 20.4134C103.508 20.1747 103.139 20.0554 102.701 20.0554C102.275 20.0554 101.913 20.1705 101.615 20.4006C101.316 20.6278 101.089 20.9432 100.933 21.3466C100.779 21.7472 100.703 22.2088 100.703 22.7315ZM108.976 26.1491C108.581 26.1491 108.22 26.0724 107.894 25.919C107.567 25.7628 107.307 25.5384 107.114 25.2457C106.921 24.9503 106.824 24.5923 106.824 24.1719C106.824 23.848 106.885 23.5753 107.007 23.3537C107.129 23.1321 107.303 22.9503 107.527 22.8082C107.752 22.6662 108.017 22.554 108.324 22.4716C108.631 22.3892 108.969 22.3253 109.338 22.2798C109.705 22.2344 110.014 22.1946 110.267 22.1605C110.523 22.1264 110.718 22.0724 110.851 21.9986C110.985 21.9247 111.051 21.8054 111.051 21.6406V21.4872C111.051 21.0412 110.918 20.6903 110.651 20.4347C110.387 20.1761 110.006 20.0469 109.509 20.0469C109.037 20.0469 108.652 20.1506 108.354 20.358C108.058 20.5653 107.851 20.8097 107.732 21.0909L107.012 20.831C107.159 20.473 107.364 20.1875 107.625 19.9744C107.887 19.7585 108.179 19.6037 108.503 19.5099C108.827 19.4134 109.155 19.3651 109.487 19.3651C109.737 19.3651 109.997 19.3977 110.267 19.4631C110.54 19.5284 110.793 19.642 111.026 19.804C111.259 19.9631 111.448 20.1861 111.593 20.473C111.737 20.7571 111.81 21.1179 111.81 21.5554V26H111.051V24.9645H111.004C110.914 25.1577 110.779 25.3452 110.6 25.527C110.421 25.7088 110.196 25.858 109.926 25.9744C109.656 26.0909 109.34 26.1491 108.976 26.1491ZM109.078 25.4545C109.482 25.4545 109.831 25.3651 110.127 25.1861C110.422 25.0071 110.649 24.7699 110.808 24.4744C110.97 24.1761 111.051 23.848 111.051 23.4901V22.544C110.994 22.598 110.899 22.6463 110.766 22.6889C110.635 22.7315 110.483 22.7699 110.31 22.804C110.139 22.8352 109.969 22.8622 109.798 22.8849C109.628 22.9077 109.475 22.9276 109.338 22.9446C108.969 22.9901 108.654 23.0611 108.392 23.1577C108.131 23.2543 107.931 23.3878 107.791 23.5582C107.652 23.7259 107.583 23.9418 107.583 24.206C107.583 24.6037 107.725 24.9119 108.009 25.1307C108.293 25.3466 108.649 25.4545 109.078 25.4545ZM113.828 26V19.4545H114.565V20.4602H114.62C114.751 20.1307 114.978 19.8651 115.302 19.6634C115.629 19.4588 115.998 19.3565 116.41 19.3565C116.472 19.3565 116.542 19.358 116.619 19.3608C116.695 19.3636 116.759 19.3665 116.811 19.3693V20.1406C116.776 20.1349 116.717 20.1264 116.632 20.1151C116.546 20.1037 116.454 20.098 116.355 20.098C116.014 20.098 115.71 20.1705 115.443 20.3153C115.178 20.4574 114.97 20.6548 114.816 20.9077C114.663 21.1605 114.586 21.4489 114.586 21.7727V26H113.828ZM120.552 26.1364C119.941 26.1364 119.413 25.9943 118.967 25.7102C118.521 25.4233 118.176 25.027 117.931 24.5213C117.69 24.0128 117.569 23.4276 117.569 22.7656C117.569 22.1065 117.69 21.5213 117.931 21.0099C118.176 20.4957 118.512 20.0937 118.941 19.804C119.373 19.5114 119.872 19.3651 120.437 19.3651C120.792 19.3651 121.134 19.4304 121.464 19.5611C121.794 19.6889 122.089 19.8864 122.35 20.1534C122.615 20.4176 122.823 20.7514 122.977 21.1548C123.13 21.5554 123.207 22.0298 123.207 22.5781V22.9531H118.093V22.2841H122.431C122.431 21.8636 122.346 21.4858 122.176 21.1506C122.008 20.8125 121.774 20.5455 121.472 20.3494C121.174 20.1534 120.829 20.0554 120.437 20.0554C120.022 20.0554 119.657 20.1662 119.342 20.3878C119.026 20.6094 118.779 20.902 118.6 21.2656C118.424 21.6293 118.335 22.027 118.332 22.4588V22.8594C118.332 23.3793 118.421 23.8338 118.6 24.223C118.782 24.6094 119.039 24.9091 119.372 25.1222C119.704 25.3352 120.097 25.4418 120.552 25.4418C120.862 25.4418 121.133 25.3935 121.366 25.2969C121.602 25.2003 121.799 25.071 121.958 24.9091C122.12 24.7443 122.242 24.5639 122.325 24.3679L123.045 24.6023C122.945 24.8778 122.782 25.1321 122.555 25.3651C122.33 25.598 122.049 25.7855 121.711 25.9276C121.376 26.0668 120.99 26.1364 120.552 26.1364ZM125.637 21.9091V26H124.878V19.4545H125.616V20.4815H125.684C125.837 20.1463 126.076 19.8778 126.4 19.6761C126.726 19.4716 127.13 19.3693 127.61 19.3693C128.05 19.3693 128.437 19.4616 128.769 19.6463C129.104 19.8281 129.364 20.0966 129.549 20.4517C129.736 20.8068 129.83 21.2429 129.83 21.7599V26H129.072V21.8068C129.072 21.2699 128.921 20.8452 128.62 20.5327C128.322 20.2202 127.921 20.0639 127.418 20.0639C127.074 20.0639 126.769 20.1378 126.502 20.2855C126.235 20.4332 126.023 20.6463 125.867 20.9247C125.714 21.2003 125.637 21.5284 125.637 21.9091ZM134.384 26.1364C133.799 26.1364 133.289 25.9901 132.855 25.6974C132.423 25.4048 132.088 25.0043 131.849 24.4957C131.61 23.9872 131.491 23.4077 131.491 22.7571C131.491 22.1009 131.612 21.517 131.853 21.0057C132.097 20.4943 132.436 20.0937 132.867 19.804C133.299 19.5114 133.801 19.3651 134.372 19.3651C134.809 19.3651 135.205 19.4503 135.561 19.6207C135.916 19.7884 136.208 20.0256 136.438 20.3324C136.671 20.6364 136.818 20.9915 136.877 21.3977H136.11C136.031 21.0284 135.839 20.7131 135.535 20.4517C135.234 20.1875 134.85 20.0554 134.384 20.0554C133.967 20.0554 133.597 20.169 133.276 20.3963C132.955 20.6207 132.704 20.9347 132.522 21.3381C132.343 21.7386 132.254 22.2031 132.254 22.7315C132.254 23.2628 132.342 23.733 132.518 24.142C132.694 24.5483 132.941 24.8665 133.259 25.0966C133.58 25.3267 133.955 25.4418 134.384 25.4418C134.674 25.4418 134.938 25.3878 135.177 25.2798C135.419 25.169 135.62 25.0128 135.782 24.8111C135.947 24.6094 136.058 24.3693 136.115 24.0909H136.882C136.825 24.4858 136.684 24.8381 136.46 25.1477C136.238 25.4545 135.95 25.696 135.595 25.8722C135.242 26.0483 134.839 26.1364 134.384 26.1364ZM139.036 28.4545C138.885 28.4545 138.744 28.4403 138.614 28.4119C138.483 28.3835 138.379 28.3523 138.303 28.3182L138.507 27.6491C138.766 27.7287 138.996 27.7571 139.198 27.7344C139.399 27.7145 139.578 27.6236 139.735 27.4616C139.891 27.3026 140.03 27.0582 140.152 26.7287L140.391 26.0639L137.983 19.4545H138.806L140.749 24.9986H140.808L142.752 19.4545H143.574L140.804 27.0355C140.688 27.3509 140.544 27.6136 140.374 27.8239C140.203 28.0369 140.006 28.1946 139.781 28.2969C139.56 28.402 139.311 28.4545 139.036 28.4545ZM33.0188 44.1364C32.408 44.1364 31.8796 43.9943 31.4336 43.7102C30.9876 43.4233 30.6424 43.027 30.3981 42.5213C30.1566 42.0128 30.0359 41.4276 30.0359 40.7656C30.0359 40.1065 30.1566 39.5213 30.3981 39.0099C30.6424 38.4957 30.979 38.0937 31.408 37.804C31.8398 37.5114 32.3384 37.3651 32.9038 37.3651C33.2589 37.3651 33.6012 37.4304 33.9308 37.5611C34.2603 37.6889 34.5558 37.8864 34.8171 38.1534C35.0813 38.4176 35.2901 38.7514 35.4435 39.1548C35.5969 39.5554 35.6737 40.0298 35.6737 40.5781V40.9531H30.56V40.2841H34.8981C34.8981 39.8636 34.8129 39.4858 34.6424 39.1506C34.4748 38.8125 34.2404 38.5455 33.9393 38.3494C33.641 38.1534 33.2958 38.0554 32.9038 38.0554C32.489 38.0554 32.1239 38.1662 31.8086 38.3878C31.4933 38.6094 31.2461 38.902 31.0671 39.2656C30.891 39.6293 30.8015 40.027 30.7987 40.4588V40.8594C30.7987 41.3793 30.8881 41.8338 31.0671 42.223C31.2489 42.6094 31.506 42.9091 31.8384 43.1222C32.1708 43.3352 32.5643 43.4418 33.0188 43.4418C33.3285 43.4418 33.5998 43.3935 33.8327 43.2969C34.0685 43.2003 34.266 43.071 34.4251 42.9091C34.587 42.7443 34.7092 42.5639 34.7915 42.3679L35.5117 42.6023C35.4123 42.8778 35.2489 43.1321 35.0217 43.3651C34.7972 43.598 34.516 43.7855 34.1779 43.9276C33.8427 44.0668 33.4563 44.1364 33.0188 44.1364ZM38.1037 39.9091V44H37.3452V37.4545H38.0824V38.4815H38.1506C38.304 38.1463 38.5426 37.8778 38.8665 37.6761C39.1932 37.4716 39.5966 37.3693 40.0767 37.3693C40.517 37.3693 40.9034 37.4616 41.2358 37.6463C41.571 37.8281 41.831 38.0966 42.0156 38.4517C42.2031 38.8068 42.2969 39.2429 42.2969 39.7599V44H41.5384V39.8068C41.5384 39.2699 41.3878 38.8452 41.0866 38.5327C40.7884 38.2202 40.3878 38.0639 39.8849 38.0639C39.5412 38.0639 39.2358 38.1378 38.9688 38.2855C38.7017 38.4332 38.4901 38.6463 38.3338 38.9247C38.1804 39.2003 38.1037 39.5284 38.1037 39.9091ZM48.6921 38.8906L47.9975 39.0866C47.9293 38.8906 47.8327 38.7131 47.7077 38.554C47.5827 38.3949 47.4194 38.2685 47.2177 38.1747C47.0188 38.081 46.7717 38.0341 46.4762 38.0341C46.033 38.0341 45.6694 38.1392 45.3853 38.3494C45.1012 38.5597 44.9592 38.831 44.9592 39.1634C44.9592 39.4446 45.0558 39.6733 45.2489 39.8494C45.445 40.0227 45.7461 40.1605 46.1523 40.2628L47.141 40.5057C47.6893 40.6392 48.0998 40.8509 48.3725 41.1406C48.6481 41.4304 48.7859 41.794 48.7859 42.2315C48.7859 42.6009 48.6836 42.929 48.479 43.2159C48.2745 43.5028 47.989 43.7287 47.6225 43.8935C47.2589 44.0554 46.837 44.1364 46.3569 44.1364C45.7177 44.1364 45.1907 43.9929 44.7759 43.706C44.3612 43.4162 44.0955 42.9986 43.979 42.4531L44.7077 42.2741C44.8015 42.6634 44.9847 42.9574 45.2575 43.1562C45.533 43.3551 45.8952 43.4545 46.3441 43.4545C46.8469 43.4545 47.2489 43.3423 47.5501 43.1179C47.8512 42.8906 48.0018 42.6065 48.0018 42.2656C48.0018 42.0014 47.9137 41.7798 47.7376 41.6009C47.5614 41.419 47.2944 41.2855 46.9364 41.2003L45.8668 40.9446C45.2987 40.8082 44.8782 40.5923 44.6055 40.2969C44.3327 40.0014 44.1964 39.6349 44.1964 39.1974C44.1964 38.8366 44.2944 38.5199 44.4904 38.2472C44.6864 37.9716 44.9563 37.7557 45.3001 37.5994C45.6438 37.4432 46.0359 37.3651 46.4762 37.3651C47.0756 37.3651 47.5543 37.5014 47.9123 37.7741C48.2731 38.044 48.533 38.4162 48.6921 38.8906ZM54.6058 41.4986V37.4545H55.3643V44H54.6058V42.9134H54.5462C54.3928 43.2486 54.1499 43.5284 53.8175 43.7528C53.4851 43.9744 53.0788 44.0852 52.5987 44.0852C52.1811 44.0852 51.8104 43.9943 51.4865 43.8125C51.1626 43.6278 50.9084 43.358 50.7237 43.0028C50.5391 42.6477 50.4467 42.2116 50.4467 41.6946V37.4545H51.2053V41.6477C51.2053 42.1591 51.3558 42.571 51.657 42.8835C51.9581 43.1932 52.3445 43.348 52.8161 43.348C53.1115 43.348 53.3956 43.277 53.6683 43.1349C53.9411 42.9929 54.1655 42.7855 54.3416 42.5128C54.5178 42.2372 54.6058 41.8991 54.6058 41.4986ZM57.3725 44V37.4545H58.1097V38.4602H58.1651C58.2958 38.1307 58.5231 37.8651 58.8469 37.6634C59.1737 37.4588 59.543 37.3565 59.9549 37.3565C60.0174 37.3565 60.087 37.358 60.1637 37.3608C60.2404 37.3636 60.3043 37.3665 60.3555 37.3693V38.1406C60.3214 38.1349 60.2617 38.1264 60.1765 38.1151C60.0913 38.1037 59.9989 38.098 59.8995 38.098C59.5586 38.098 59.2546 38.1705 58.9876 38.3153C58.7234 38.4574 58.5146 38.6548 58.3612 38.9077C58.2077 39.1605 58.131 39.4489 58.131 39.7727V44H57.3725ZM64.0969 44.1364C63.4862 44.1364 62.9577 43.9943 62.5117 43.7102C62.0657 43.4233 61.7205 43.027 61.4762 42.5213C61.2347 42.0128 61.114 41.4276 61.114 40.7656C61.114 40.1065 61.2347 39.5213 61.4762 39.0099C61.7205 38.4957 62.0572 38.0937 62.4862 37.804C62.918 37.5114 63.4165 37.3651 63.9819 37.3651C64.337 37.3651 64.6793 37.4304 65.0089 37.5611C65.3384 37.6889 65.6339 37.8864 65.8952 38.1534C66.1594 38.4176 66.3683 38.7514 66.5217 39.1548C66.6751 39.5554 66.7518 40.0298 66.7518 40.5781V40.9531H61.6381V40.2841H65.9762C65.9762 39.8636 65.891 39.4858 65.7205 39.1506C65.5529 38.8125 65.3185 38.5455 65.0174 38.3494C64.7191 38.1534 64.3739 38.0554 63.9819 38.0554C63.5671 38.0554 63.2021 38.1662 62.8867 38.3878C62.5714 38.6094 62.3242 38.902 62.1452 39.2656C61.9691 39.6293 61.8796 40.027 61.8768 40.4588V40.8594C61.8768 41.3793 61.9663 41.8338 62.1452 42.223C62.3271 42.6094 62.5842 42.9091 62.9165 43.1222C63.2489 43.3352 63.6424 43.4418 64.0969 43.4418C64.4066 43.4418 64.6779 43.3935 64.9109 43.2969C65.1467 43.2003 65.3441 43.071 65.5032 42.9091C65.6651 42.7443 65.7873 42.5639 65.8697 42.3679L66.5898 42.6023C66.4904 42.8778 66.3271 43.1321 66.0998 43.3651C65.8754 43.598 65.5941 43.7855 65.256 43.9276C64.9208 44.0668 64.5344 44.1364 64.0969 44.1364ZM70.7798 44.1364C70.2429 44.1364 69.7727 43.9943 69.3693 43.7102C68.9659 43.4261 68.6506 43.0298 68.4233 42.5213C68.1989 42.0128 68.0866 41.4205 68.0866 40.7443C68.0866 40.071 68.1989 39.4815 68.4233 38.9759C68.6506 38.4673 68.9673 38.0724 69.3736 37.7912C69.7798 37.5071 70.2528 37.3651 70.7926 37.3651C71.1903 37.3651 71.5213 37.4361 71.7855 37.5781C72.0497 37.7173 72.2614 37.8906 72.4205 38.098C72.5795 38.3054 72.7031 38.5071 72.7912 38.7031H72.8594V35.2727H73.6222V44H72.8807V42.7855H72.7912C72.7031 42.9844 72.5781 43.1889 72.4162 43.3991C72.2543 43.6065 72.0398 43.7812 71.7727 43.9233C71.5085 44.0653 71.1776 44.1364 70.7798 44.1364ZM70.8693 43.4418C71.2926 43.4418 71.6534 43.3267 71.9517 43.0966C72.25 42.8636 72.4773 42.544 72.6335 42.1378C72.7926 41.7287 72.8722 41.2599 72.8722 40.7315C72.8722 40.2088 72.794 39.7472 72.6378 39.3466C72.4815 38.9432 72.2543 38.6278 71.956 38.4006C71.6577 38.1705 71.2955 38.0554 70.8693 38.0554C70.4318 38.0554 70.0625 38.1747 69.7614 38.4134C69.4631 38.6491 69.2358 38.9687 69.0795 39.3722C68.9261 39.7756 68.8494 40.2287 68.8494 40.7315C68.8494 41.2401 68.9276 41.6989 69.0838 42.108C69.2401 42.517 69.4673 42.8423 69.7656 43.0838C70.0668 43.3224 70.4347 43.4418 70.8693 43.4418ZM79.3153 44V35.2727H80.0781V38.7031H80.1463C80.2315 38.5071 80.3537 38.3054 80.5128 38.098C80.6747 37.8906 80.8864 37.7173 81.1477 37.5781C81.4119 37.4361 81.7443 37.3651 82.1449 37.3651C82.6818 37.3651 83.1534 37.5071 83.5597 37.7912C83.9659 38.0724 84.2827 38.4673 84.5099 38.9759C84.7372 39.4815 84.8509 40.071 84.8509 40.7443C84.8509 41.4205 84.7372 42.0128 84.5099 42.5213C84.2855 43.0298 83.9702 43.4261 83.5639 43.7102C83.1605 43.9943 82.6918 44.1364 82.1577 44.1364C81.7599 44.1364 81.4276 44.0653 81.1605 43.9233C80.8963 43.7812 80.6832 43.6065 80.5213 43.3991C80.3594 43.1889 80.2344 42.9844 80.1463 42.7855H80.0526V44H79.3153ZM80.0653 40.7315C80.0653 41.2599 80.1435 41.7287 80.2997 42.1378C80.4588 42.544 80.6861 42.8636 80.9815 43.0966C81.2798 43.3267 81.6406 43.4418 82.0639 43.4418C82.4986 43.4418 82.8665 43.3224 83.1676 43.0838C83.4688 42.8423 83.6974 42.517 83.8537 42.108C84.0099 41.6989 84.0881 41.2401 84.0881 40.7315C84.0881 40.2287 84.0099 39.7756 83.8537 39.3722C83.7003 38.9687 83.473 38.6491 83.1719 38.4134C82.8707 38.1747 82.5014 38.0554 82.0639 38.0554C81.6378 38.0554 81.2756 38.1705 80.9773 38.4006C80.6818 38.6278 80.456 38.9432 80.2997 39.3466C80.1435 39.7472 80.0653 40.2088 80.0653 40.7315ZM86.8111 46.4545C86.6605 46.4545 86.5199 46.4403 86.3892 46.4119C86.2585 46.3835 86.1548 46.3523 86.0781 46.3182L86.2827 45.6491C86.5412 45.7287 86.7713 45.7571 86.973 45.7344C87.1747 45.7145 87.3537 45.6236 87.5099 45.4616C87.6662 45.3026 87.8054 45.0582 87.9276 44.7287L88.1662 44.0639L85.7585 37.4545H86.581L88.5241 42.9986H88.5838L90.527 37.4545H91.3494L88.5795 45.0355C88.4631 45.3509 88.3196 45.6136 88.1491 45.8239C87.9787 46.0369 87.7813 46.1946 87.5568 46.2969C87.3352 46.402 87.0866 46.4545 86.8111 46.4545ZM96.3661 44V35.2727H99.3107C99.8789 35.2727 100.352 35.3722 100.73 35.571C101.11 35.7699 101.396 36.0412 101.586 36.3849C101.777 36.7287 101.872 37.1193 101.872 37.5568C101.872 37.9205 101.811 38.2315 101.689 38.4901C101.566 38.7486 101.4 38.9574 101.19 39.1165C100.98 39.2756 100.745 39.3906 100.487 39.4616V39.5298C100.768 39.5497 101.041 39.6491 101.305 39.8281C101.569 40.0043 101.787 40.2514 101.957 40.5696C102.127 40.8878 102.213 41.2685 102.213 41.7116C102.213 42.152 102.115 42.5455 101.919 42.892C101.723 43.2358 101.422 43.5071 101.015 43.706C100.612 43.902 100.098 44 99.4727 44H96.3661ZM97.163 43.2841H99.4727C100.146 43.2841 100.643 43.1349 100.964 42.8366C101.288 42.5384 101.45 42.1634 101.45 41.7116C101.45 41.3793 101.369 41.0781 101.207 40.8082C101.048 40.5355 100.822 40.3196 100.529 40.1605C100.24 40.0014 99.8988 39.9219 99.5067 39.9219H97.163V43.2841ZM97.163 39.2145H99.3832C99.7269 39.2145 100.028 39.1435 100.287 39.0014C100.545 38.8594 100.747 38.6634 100.892 38.4134C101.037 38.1634 101.109 37.8778 101.109 37.5568C101.109 37.0937 100.958 36.7173 100.657 36.4276C100.356 36.1349 99.9073 35.9886 99.3107 35.9886H97.163V39.2145ZM104.737 35.2727V44H103.978V35.2727H104.737ZM109.288 44.1364C108.722 44.1364 108.222 43.9929 107.788 43.706C107.356 43.419 107.018 43.0227 106.773 42.517C106.529 42.0085 106.407 41.4219 106.407 40.7571C106.407 40.0866 106.529 39.4972 106.773 38.9886C107.018 38.4773 107.356 38.0795 107.788 37.7955C108.222 37.5085 108.722 37.3651 109.288 37.3651C109.853 37.3651 110.352 37.5085 110.783 37.7955C111.215 38.0824 111.553 38.4801 111.798 38.9886C112.045 39.4972 112.168 40.0866 112.168 40.7571C112.168 41.4219 112.046 42.0085 111.802 42.517C111.558 43.0227 111.218 43.419 110.783 43.706C110.352 43.9929 109.853 44.1364 109.288 44.1364ZM109.288 43.4418C109.742 43.4418 110.127 43.3196 110.442 43.0753C110.758 42.831 110.996 42.5057 111.158 42.0994C111.323 41.6932 111.406 41.2457 111.406 40.7571C111.406 40.2685 111.323 39.8196 111.158 39.4105C110.996 39.0014 110.758 38.6733 110.442 38.4261C110.127 38.179 109.742 38.0554 109.288 38.0554C108.836 38.0554 108.451 38.179 108.133 38.4261C107.817 38.6733 107.577 39.0014 107.413 39.4105C107.251 39.8196 107.17 40.2685 107.17 40.7571C107.17 41.2457 107.251 41.6932 107.413 42.0994C107.577 42.5057 107.817 42.831 108.133 43.0753C108.448 43.3196 108.833 43.4418 109.288 43.4418ZM116.39 44.1364C115.805 44.1364 115.295 43.9901 114.86 43.6974C114.429 43.4048 114.093 43.0043 113.855 42.4957C113.616 41.9872 113.497 41.4077 113.497 40.7571C113.497 40.1009 113.618 39.517 113.859 39.0057C114.103 38.4943 114.441 38.0937 114.873 37.804C115.305 37.5114 115.806 37.3651 116.377 37.3651C116.815 37.3651 117.211 37.4503 117.566 37.6207C117.922 37.7884 118.214 38.0256 118.444 38.3324C118.677 38.6364 118.824 38.9915 118.883 39.3977H118.116C118.037 39.0284 117.845 38.7131 117.541 38.4517C117.24 38.1875 116.856 38.0554 116.39 38.0554C115.973 38.0554 115.603 38.169 115.282 38.3963C114.961 38.6207 114.71 38.9347 114.528 39.3381C114.349 39.7386 114.26 40.2031 114.26 40.7315C114.26 41.2628 114.348 41.733 114.524 42.142C114.7 42.5483 114.947 42.8665 115.265 43.0966C115.586 43.3267 115.961 43.4418 116.39 43.4418C116.68 43.4418 116.944 43.3878 117.183 43.2798C117.424 43.169 117.626 43.0128 117.788 42.8111C117.953 42.6094 118.064 42.3693 118.12 42.0909H118.887C118.831 42.4858 118.69 42.8381 118.466 43.1477C118.244 43.4545 117.956 43.696 117.6 43.8722C117.248 44.0483 116.845 44.1364 116.39 44.1364ZM121.203 41.5284L121.195 40.5355H121.365L124.434 37.4545H125.392L122.363 40.4886L122.294 40.5014L121.203 41.5284ZM120.513 44V35.2727H121.272V44H120.513ZM124.591 44L121.932 40.6378L122.478 40.1136L125.563 44H124.591ZM129.105 44.1364C128.52 44.1364 128.01 43.9901 127.575 43.6974C127.143 43.4048 126.808 43.0043 126.57 42.4957C126.331 41.9872 126.212 41.4077 126.212 40.7571C126.212 40.1009 126.332 39.517 126.574 39.0057C126.818 38.4943 127.156 38.0937 127.588 37.804C128.02 37.5114 128.521 37.3651 129.092 37.3651C129.53 37.3651 129.926 37.4503 130.281 37.6207C130.636 37.7884 130.929 38.0256 131.159 38.3324C131.392 38.6364 131.538 38.9915 131.598 39.3977H130.831C130.751 39.0284 130.56 38.7131 130.256 38.4517C129.955 38.1875 129.571 38.0554 129.105 38.0554C128.688 38.0554 128.318 38.169 127.997 38.3963C127.676 38.6207 127.425 38.9347 127.243 39.3381C127.064 39.7386 126.974 40.2031 126.974 40.7315C126.974 41.2628 127.063 41.733 127.239 42.142C127.415 42.5483 127.662 42.8665 127.98 43.0966C128.301 43.3267 128.676 43.4418 129.105 43.4418C129.395 43.4418 129.659 43.3878 129.898 43.2798C130.139 43.169 130.341 43.0128 130.503 42.8111C130.668 42.6094 130.778 42.3693 130.835 42.0909H131.602C131.545 42.4858 131.405 42.8381 131.18 43.1477C130.959 43.4545 130.67 43.696 130.315 43.8722C129.963 44.0483 129.56 44.1364 129.105 44.1364ZM133.987 39.9091V44H133.228V35.2727H133.987V38.4815H134.055C134.208 38.1435 134.445 37.8736 134.766 37.6719C135.09 37.4702 135.499 37.3693 135.994 37.3693C136.437 37.3693 136.826 37.4602 137.161 37.642C137.496 37.8239 137.758 38.0923 137.945 38.4474C138.133 38.8026 138.227 39.2401 138.227 39.7599V44H137.464V39.8068C137.464 39.267 137.313 38.8423 137.012 38.5327C136.714 38.2202 136.31 38.0639 135.802 38.0639C135.452 38.0639 135.141 38.1378 134.869 38.2855C134.596 38.4332 134.38 38.6463 134.221 38.9247C134.065 39.2003 133.987 39.5284 133.987 39.9091ZM142.052 44.1491C141.657 44.1491 141.297 44.0724 140.97 43.919C140.643 43.7628 140.383 43.5384 140.19 43.2457C139.997 42.9503 139.9 42.5923 139.9 42.1719C139.9 41.848 139.961 41.5753 140.083 41.3537C140.206 41.1321 140.379 40.9503 140.603 40.8082C140.828 40.6662 141.093 40.554 141.4 40.4716C141.707 40.3892 142.045 40.3253 142.414 40.2798C142.781 40.2344 143.091 40.1946 143.343 40.1605C143.599 40.1264 143.794 40.0724 143.927 39.9986C144.061 39.9247 144.127 39.8054 144.127 39.6406V39.4872C144.127 39.0412 143.994 38.6903 143.727 38.4347C143.463 38.1761 143.082 38.0469 142.585 38.0469C142.113 38.0469 141.728 38.1506 141.43 38.358C141.135 38.5653 140.927 38.8097 140.808 39.0909L140.088 38.831C140.235 38.473 140.44 38.1875 140.701 37.9744C140.963 37.7585 141.255 37.6037 141.579 37.5099C141.903 37.4134 142.231 37.3651 142.564 37.3651C142.814 37.3651 143.074 37.3977 143.343 37.4631C143.616 37.5284 143.869 37.642 144.102 37.804C144.335 37.9631 144.524 38.1861 144.669 38.473C144.814 38.7571 144.886 39.1179 144.886 39.5554V44H144.127V42.9645H144.081C143.99 43.1577 143.855 43.3452 143.676 43.527C143.497 43.7088 143.272 43.858 143.002 43.9744C142.733 44.0909 142.416 44.1491 142.052 44.1491ZM142.154 43.4545C142.558 43.4545 142.907 43.3651 143.203 43.1861C143.498 43.0071 143.725 42.7699 143.885 42.4744C144.047 42.1761 144.127 41.848 144.127 41.4901V40.544C144.071 40.598 143.975 40.6463 143.842 40.6889C143.711 40.7315 143.559 40.7699 143.386 40.804C143.216 40.8352 143.045 40.8622 142.875 40.8849C142.704 40.9077 142.551 40.9276 142.414 40.9446C142.045 40.9901 141.73 41.0611 141.468 41.1577C141.207 41.2543 141.007 41.3878 140.868 41.5582C140.728 41.7259 140.659 41.9418 140.659 42.206C140.659 42.6037 140.801 42.9119 141.085 43.1307C141.369 43.3466 141.725 43.4545 142.154 43.4545ZM146.912 44V37.4545H147.675V44H146.912ZM147.3 36.3295C147.144 36.3295 147.01 36.277 146.9 36.1719C146.789 36.0639 146.733 35.9347 146.733 35.7841C146.733 35.6335 146.789 35.5057 146.9 35.4006C147.01 35.2926 147.144 35.2386 147.3 35.2386C147.456 35.2386 147.59 35.2926 147.701 35.4006C147.811 35.5057 147.867 35.6335 147.867 35.7841C147.867 35.9347 147.811 36.0639 147.701 36.1719C147.59 36.277 147.456 36.3295 147.3 36.3295ZM150.44 39.9091V44H149.681V37.4545H150.418V38.4815H150.487C150.64 38.1463 150.879 37.8778 151.202 37.6761C151.529 37.4716 151.933 37.3693 152.413 37.3693C152.853 37.3693 153.239 37.4616 153.572 37.6463C153.907 37.8281 154.167 38.0966 154.352 38.4517C154.539 38.8068 154.633 39.2429 154.633 39.7599V44H153.874V39.8068C153.874 39.2699 153.724 38.8452 153.423 38.5327C153.124 38.2202 152.724 38.0639 152.221 38.0639C151.877 38.0639 151.572 38.1378 151.305 38.2855C151.038 38.4332 150.826 38.6463 150.67 38.9247C150.516 39.2003 150.44 39.5284 150.44 39.9091Z" fill="#333333"/>
<path d="M89.8613 83.6431C94.2286 82.0054 98.1798 77.1342 101.137 73.8038C103.531 71.108 105.999 68.3184 107.864 65.2094C108.929 63.4338 109.908 61.58 110.761 59.7033C112.029 56.9122 112.7 53.5147 112.7 50.4625" stroke="#A4A2A2" stroke-linecap="round" stroke-dasharray="1 6"/>
<defs>
<clipPath id="clip0_106_196">
<rect width="96.25" height="22" fill="white" transform="translate(45 86)"/>
</clipPath>
</defs>
</svg>
