<svg width="65" height="25" viewBox="0 0 65 25" fill="none" xmlns="http://www.w3.org/2000/svg">
<g clip-path="url(#clip0_105_121)">
<path d="M7.15041 17.8378H8.59102V21.7543H11.108V23.0104H7.15102V17.8378H7.15041ZM12.6 20.439V20.4244C12.6 18.939 13.8031 17.7341 15.4065 17.7341C17.0106 17.7341 18.1984 18.9238 18.1984 20.4091V20.4244C18.1984 21.9098 16.9953 23.1134 15.3918 23.1134C13.789 23.1134 12.6 21.9244 12.6 20.439ZM16.7284 20.439V20.4244C16.7284 19.6787 16.1865 19.0274 15.3918 19.0274C14.6051 19.0274 14.0773 19.6628 14.0773 20.4091V20.4244C14.0773 21.1695 14.6198 21.8207 15.4065 21.8207C16.2012 21.8207 16.7284 21.1854 16.7284 20.439ZM19.9616 20.7421V17.8378H21.4243V20.7122C21.4243 21.4579 21.8027 21.8134 22.3818 21.8134C22.961 21.8134 23.3394 21.4738 23.3394 20.7494V17.8378H24.8027V20.7037C24.8027 22.3744 23.8451 23.1055 22.3671 23.1055C20.8892 23.1055 19.961 22.3598 19.961 20.7409M27.0073 17.8384H29.0118C30.8682 17.8384 31.9445 18.9018 31.9445 20.3945V20.4098C31.9445 21.9018 30.8535 23.0104 28.9825 23.0104H27.0073V17.8384ZM29.0339 21.739C29.8959 21.739 30.4665 21.2665 30.4665 20.4305V20.4159C30.4665 19.5884 29.8959 19.1079 29.0339 19.1079H28.4474V21.7396L29.0339 21.739ZM34.0384 17.8378H38.1961V19.0939H35.479V19.9732H37.9365V21.1628H35.479V23.0104H34.0384V17.8378ZM40.2006 17.8378H41.6412V21.7543H44.1582V23.0104H40.2006V17.8378ZM47.9223 17.8006H49.3108L51.5235 23.0104H49.9794L49.5998 22.0866H47.5959L47.2249 23.0104H45.7102L47.9223 17.8006ZM49.1847 20.9713L48.6055 19.5L48.0184 20.9707L49.1847 20.9713ZM53.3792 17.8378H55.8367C56.6314 17.8378 57.1806 18.0451 57.5296 18.3994C57.8345 18.6951 57.99 19.0945 57.99 19.6043V19.6189C57.99 20.4091 57.5657 20.9335 56.921 21.2073L58.1608 23.0104H56.498L55.451 21.4433H54.8204V23.0104H53.3798L53.3792 17.8378ZM55.77 20.3207C56.2598 20.3207 56.5427 20.0841 56.5427 19.7073V19.6927C56.5427 19.286 56.2451 19.0793 55.762 19.0793H54.8192V20.322L55.77 20.3207ZM60.0686 17.8378H64.2484V19.0573H61.4945V19.8402H63.9894V20.9707H61.4945V21.7915H64.2857V23.0104H60.0686V17.8378ZM3.99674 21.0451C3.79469 21.4988 3.37041 21.8207 2.80653 21.8207C2.01918 21.8207 1.47735 21.1701 1.47735 20.4244V20.4091C1.47735 19.6634 2.00388 19.0274 2.79122 19.0274C3.3851 19.0274 3.83694 19.3902 4.02796 19.8848H5.54633C5.30265 18.653 4.21592 17.7348 2.80653 17.7348C1.20245 17.7348 0 18.9402 0 20.4238V20.4384C0 21.9238 1.18776 23.114 2.79184 23.114C4.16327 23.114 5.23531 22.2299 5.51816 21.0451H3.99674Z" fill="white"/>
<path d="M54.4971 15.1555L54.6545 14.6146C54.8418 13.9707 54.772 13.3762 54.4579 12.939C54.169 12.5366 53.6871 12.2994 53.1024 12.272L42.0232 12.1323C41.989 12.1316 41.9553 12.123 41.925 12.107C41.8947 12.091 41.8686 12.0681 41.8488 12.0402C41.8294 12.0113 41.8172 11.9782 41.8129 11.9437C41.8087 11.9092 41.8126 11.8742 41.8243 11.8415C41.8433 11.7874 41.8777 11.74 41.9234 11.7053C41.9691 11.6705 42.024 11.6498 42.0814 11.6457L53.2628 11.5043C54.589 11.4439 56.0253 10.3726 56.5279 9.06646L57.1653 7.40854C57.1914 7.33838 57.1973 7.26236 57.1824 7.18902C56.4588 3.94817 53.5518 1.52439 50.0767 1.52439C46.8747 1.52439 44.1563 3.5811 43.181 6.43963C42.522 5.94749 41.7007 5.72123 40.8814 5.8061C40.4134 5.85463 39.9613 6.00292 39.5559 6.2409C39.1505 6.47887 38.8013 6.80096 38.5319 7.18529C38.2626 7.56961 38.0795 8.00716 37.995 8.46822C37.9106 8.92927 37.9267 9.40303 38.0424 9.85732C35.5328 9.93049 33.5204 11.9762 33.5204 14.4915C33.5204 14.7159 33.5375 14.9396 33.5706 15.1622C33.5778 15.2135 33.6033 15.2605 33.6424 15.2947C33.6815 15.3288 33.7316 15.3478 33.7837 15.3482L54.2375 15.3506H54.243C54.3008 15.3495 54.3567 15.33 54.4024 15.2948C54.4482 15.2597 54.4814 15.2108 54.4971 15.1555Z" fill="white"/>
<path d="M58.1877 7.52866C58.0855 7.52866 57.9833 7.53109 57.8816 7.53658C57.8651 7.53769 57.8488 7.54118 57.8333 7.54695C57.8066 7.55604 57.7825 7.57144 57.7631 7.59183C57.7437 7.61222 57.7295 7.63699 57.7218 7.66402L57.2859 9.16158C57.0992 9.80488 57.1684 10.3994 57.4831 10.836C57.7714 11.239 58.2533 11.4762 58.8379 11.503L61.2 11.6445C61.2332 11.6457 61.2657 11.6545 61.2949 11.6702C61.3241 11.686 61.3493 11.7083 61.3684 11.7354C61.388 11.7644 61.4006 11.7976 61.4049 11.8324C61.4093 11.8671 61.4054 11.9024 61.3935 11.9354C61.3742 11.9892 61.3396 12.0363 61.294 12.0709C61.2483 12.1056 61.1936 12.1263 61.1363 12.1305L58.6824 12.2719C57.3502 12.3329 55.9145 13.4037 55.4118 14.7098L55.2343 15.1707C55.223 15.1999 55.2226 15.2321 55.2333 15.2615C55.244 15.2908 55.265 15.3154 55.2924 15.3305C55.3108 15.3409 55.3304 15.3469 55.3512 15.3476H63.8014C63.8505 15.3481 63.8984 15.3326 63.9378 15.3034C63.9772 15.2742 64.0058 15.233 64.0194 15.186C64.1692 14.6547 64.2449 14.1055 64.2441 13.5537C64.2435 10.2262 61.5324 7.52927 58.1884 7.52927L58.1877 7.52866Z" fill="white"/>
</g>
<defs>
<clipPath id="clip0_105_121">
<rect width="64.2857" height="25" fill="white"/>
</clipPath>
</defs>
</svg>
