<svg width="172" height="32" viewBox="0 0 172 32" fill="none" xmlns="http://www.w3.org/2000/svg">
<g clip-path="url(#clip0_98_32)">
<path d="M15.064 23.4507L14.896 23.656C14.7716 23.7804 14.56 23.9422 14.2613 24.1413C13.9751 24.328 13.6267 24.5209 13.216 24.72C12.8178 24.9067 12.2827 25.0622 11.6107 25.1867C10.9387 25.3236 10.2169 25.392 9.44533 25.392C7.81511 25.392 6.42133 25.1244 5.264 24.5893C4.10667 24.0418 3.19822 23.2516 2.53867 22.2187C1.89156 21.1733 1.42489 19.9973 1.13867 18.6907C0.852444 17.3716 0.709333 15.8471 0.709333 14.1173C0.709333 12.2756 0.852444 10.6889 1.13867 9.35733C1.42489 8.01333 1.89778 6.83733 2.55733 5.82933C3.22933 4.80889 4.15022 4.04356 5.32 3.53333C6.48978 3.02311 7.91467 2.768 9.59467 2.768C10.3662 2.768 11.088 2.83645 11.76 2.97333C12.4444 3.11022 12.9796 3.26578 13.3653 3.44C13.7636 3.61422 14.1182 3.81333 14.4293 4.03733C14.7529 4.26133 14.952 4.41689 15.0267 4.504C15.1138 4.59111 15.176 4.65956 15.2133 4.70933L14.9333 9.00267H12.096L11.1253 6.78133C10.9013 6.71911 10.7147 6.688 10.5653 6.688C9.73156 6.688 9.09067 6.88089 8.64267 7.26667C8.19467 7.64 7.85244 8.38044 7.616 9.488C7.37956 10.5831 7.26133 12.1636 7.26133 14.2293C7.26133 15.4613 7.336 16.5378 7.48533 17.4587C7.64711 18.3796 7.84 19.0889 8.064 19.5867C8.288 20.072 8.55556 20.464 8.86667 20.7627C9.17778 21.0613 9.45778 21.2542 9.70667 21.3413C9.95556 21.416 10.2231 21.4533 10.5093 21.4533C11.144 21.4533 11.8098 21.3787 12.5067 21.2293C13.2036 21.0676 13.776 20.8249 14.224 20.5013L15.064 23.4507ZM22.9619 25H16.9326V12.9227L15.8126 12.232V10.1227L19.8259 9.13333H21.3379L21.8792 13.576C22.3895 10.5271 24.0259 9.00267 26.7886 9.00267C27.0997 9.00267 27.4232 9.05867 27.7592 9.17067L27.1246 15.816C26.8632 15.5796 26.2908 15.4613 25.4072 15.4613C24.1379 15.4613 23.3228 15.7973 22.9619 16.4693V25ZM36.8906 31.4213C35.6088 31.4213 34.4017 31.2347 33.2692 30.8613C32.1368 30.488 31.3092 29.984 30.7866 29.3493L31.7573 27.3333C32.479 27.744 33.6239 27.9493 35.1919 27.9493C35.6897 27.9493 36.119 27.8933 36.4799 27.7813C36.8408 27.6693 37.1644 27.4702 37.4506 27.184C37.7368 26.9102 37.9546 26.5182 38.1039 26.008C38.2532 25.4978 38.3341 24.8693 38.3466 24.1227V22.5173L38.1599 22.816C38.0355 23.0151 37.8426 23.2578 37.5812 23.544C37.3324 23.8178 37.0461 24.0978 36.7226 24.384C36.399 24.6578 36.0008 24.8942 35.5279 25.0933C35.0675 25.2924 34.5946 25.392 34.1092 25.392C32.255 25.392 30.9484 24.8756 30.1892 23.8427C29.4301 22.7973 29.0506 21.0427 29.0506 18.5787V11.952L28.3786 11.28V9.13333H35.1732V19.7547C35.1732 20.3271 35.2604 20.7502 35.4346 21.024C35.6213 21.2853 35.9884 21.416 36.5359 21.416C36.6977 21.416 36.8595 21.3911 37.0212 21.3413C37.183 21.2791 37.3386 21.1982 37.4879 21.0987C37.6497 20.9991 37.8177 20.8747 37.9919 20.7253V11.952L36.9653 11.28V9.13333H44.0773V22.816C44.0773 25.5662 43.4924 27.688 42.3226 29.1813C41.1528 30.6747 39.3421 31.4213 36.8906 31.4213ZM56.1305 25C55.4087 25 54.7492 24.9253 54.1519 24.776C53.5545 24.6267 53.0319 24.44 52.5839 24.216V30.6373H46.5732V12.9227L45.4532 12.232V10.2347L49.4665 9.13333H52.5839V10.384C53.0319 9.92356 53.5732 9.53778 54.2079 9.22667C54.8425 8.91556 55.583 8.76 56.4292 8.76C58.4825 8.76 59.9883 9.46311 60.9465 10.8693C61.9172 12.2756 62.4025 14.2231 62.4025 16.712C62.4025 17.8818 62.2719 18.9644 62.0105 19.96C61.7492 20.9431 61.3634 21.8142 60.8532 22.5733C60.343 23.3324 59.6834 23.9298 58.8745 24.3653C58.0781 24.7884 57.1634 25 56.1305 25ZM53.3865 22.4053C55.0541 22.4053 55.8879 21.1298 55.8879 18.5787V15.4053C55.8879 14.2853 55.695 13.4516 55.3092 12.904C54.9359 12.3564 54.4505 12.0827 53.8532 12.0827C53.4425 12.0827 53.0194 12.2071 52.5839 12.456V22.312C52.7332 22.3493 52.8701 22.3742 52.9945 22.3867C53.1314 22.3991 53.2621 22.4053 53.3865 22.4053ZM68.9334 25.392C67.2534 25.392 66.0774 24.888 65.4054 23.88C64.7458 22.872 64.416 21.1671 64.416 18.7653V12.4187H63.128V9.824L65.3307 9.13333L67.2347 4.784H70.52V9.13333H73.5814V12.4187H70.464V19.3627C70.464 20.3582 70.6072 21.0178 70.8934 21.3413C71.1796 21.6649 71.6214 21.8267 72.2187 21.8267C72.48 21.8267 72.7165 21.7956 72.928 21.7333C73.1396 21.6711 73.3138 21.584 73.4507 21.472V24.0107C73.264 24.1973 73.0214 24.384 72.7227 24.5707C72.424 24.7449 71.9263 24.9253 71.2294 25.112C70.5449 25.2987 69.7796 25.392 68.9334 25.392ZM82.7334 23.152C83.281 23.152 83.6979 22.928 83.9841 22.48C84.2828 22.0196 84.4321 21.3911 84.4321 20.5947V14.696C84.4321 12.2693 83.8597 11.056 82.7148 11.056C82.1797 11.056 81.7628 11.2738 81.4641 11.7093C81.1654 12.1449 81.0161 12.7609 81.0161 13.5573V19.624C81.0161 21.976 81.5885 23.152 82.7334 23.152ZM82.5841 25.392C79.7343 25.392 77.6499 24.7449 76.3308 23.4507C75.0117 22.1564 74.3521 20.0907 74.3521 17.2533C74.3521 14.4409 75.0179 12.3253 76.3494 10.9067C77.681 9.47556 79.8463 8.76 82.8454 8.76C85.7699 8.76 87.8792 9.44444 89.1734 10.8133C90.4801 12.1698 91.1334 14.2293 91.1334 16.992C91.1334 19.8542 90.4428 21.9698 89.0614 23.3387C87.6925 24.7076 85.5334 25.392 82.5841 25.392Z" fill="#333333"/>
<path d="M129.835 25C129.685 24.8133 129.362 24.0853 128.864 22.816C128.379 21.5342 127.806 20.0907 127.147 18.4853C126.5 16.8676 125.927 15.6418 125.429 14.808V25H119.251V3.12267H125.429V13.5947L130.077 3.12267H136.293L130.731 13.3893C131.092 13.6382 131.571 14.3164 132.168 15.424C132.765 16.5316 133.325 17.6951 133.848 18.9147C134.371 20.1342 134.912 21.36 135.472 22.592C136.032 23.8116 136.443 24.6142 136.704 25H129.835ZM146.267 15.3493C146.267 13.7689 146.186 12.6489 146.024 11.9893C145.863 11.3298 145.564 11 145.128 11C144.755 11 144.45 11.0684 144.214 11.2053C143.977 11.3298 143.803 11.5351 143.691 11.8213C143.579 12.0951 143.504 12.3813 143.467 12.68C143.442 12.9662 143.43 13.3333 143.43 13.7813V15.3493H146.267ZM144.774 25.392C143.38 25.392 142.167 25.1804 141.134 24.7573C140.113 24.3342 139.304 23.7431 138.707 22.984C138.122 22.2249 137.693 21.3724 137.419 20.4267C137.145 19.4684 137.008 18.4044 137.008 17.2347C137.008 14.4471 137.718 12.3378 139.136 10.9067C140.555 9.47556 142.54 8.76 145.091 8.76C147.543 8.76 149.297 9.33867 150.355 10.496C151.413 11.6409 151.942 13.4889 151.942 16.04V18.112H143.411V18.4667C143.411 19.2009 143.486 19.8044 143.635 20.2773C143.797 20.7502 144.027 21.0987 144.326 21.3227C144.624 21.5467 144.929 21.696 145.24 21.7707C145.551 21.8453 145.931 21.8827 146.379 21.8827C146.815 21.8827 147.281 21.8267 147.779 21.7147C148.289 21.6027 148.799 21.4284 149.31 21.192C149.832 20.9556 150.268 20.6756 150.616 20.352L151.718 22.2373C151.257 22.984 150.579 23.6124 149.683 24.1227C148.799 24.6204 147.947 24.9564 147.126 25.1307C146.304 25.3049 145.52 25.392 144.774 25.392ZM161.617 31.4213C160.335 31.4213 159.128 31.2347 157.996 30.8613C156.863 30.488 156.036 29.984 155.513 29.3493L156.484 27.3333C157.206 27.744 158.35 27.9493 159.918 27.9493C160.416 27.9493 160.846 27.8933 161.206 27.7813C161.567 27.6693 161.891 27.4702 162.177 27.184C162.463 26.9102 162.681 26.5182 162.83 26.008C162.98 25.4978 163.061 24.8693 163.073 24.1227V22.5173L162.886 22.816C162.762 23.0151 162.569 23.2578 162.308 23.544C162.059 23.8178 161.773 24.0978 161.449 24.384C161.126 24.6578 160.727 24.8942 160.254 25.0933C159.794 25.2924 159.321 25.392 158.836 25.392C156.982 25.392 155.675 24.8756 154.916 23.8427C154.157 22.7973 153.777 21.0427 153.777 18.5787V11.952L153.105 11.28V9.13333H159.9V19.7547C159.9 20.3271 159.987 20.7502 160.161 21.024C160.348 21.2853 160.715 21.416 161.262 21.416C161.424 21.416 161.586 21.3911 161.748 21.3413C161.91 21.2791 162.065 21.1982 162.214 21.0987C162.376 20.9991 162.544 20.8747 162.718 20.7253V11.952L161.692 11.28V9.13333H168.804V22.816C168.804 25.5662 168.219 27.688 167.049 29.1813C165.879 30.6747 164.069 31.4213 161.617 31.4213Z" fill="#333333"/>
<path d="M101 17C104.314 17 107 14.3137 107 11C107 7.68629 104.314 5 101 5C97.6863 5 95 7.68629 95 11C95 14.3137 97.6863 17 101 17Z" stroke="#F03E06" stroke-width="2" stroke-linecap="round" stroke-linejoin="round"/>
<path d="M111.09 13.37C112.035 13.7224 112.876 14.3075 113.536 15.0712C114.195 15.8349 114.651 16.7524 114.862 17.7391C115.072 18.7257 115.031 19.7495 114.741 20.7158C114.451 21.6822 113.922 22.5598 113.203 23.2676C112.484 23.9754 111.599 24.4905 110.628 24.7652C109.657 25.04 108.633 25.0655 107.65 24.8395C106.666 24.6134 105.756 24.1431 105.003 23.472C104.25 22.8009 103.678 21.9507 103.34 21" stroke="#F03E06" stroke-width="2" stroke-linecap="round" stroke-linejoin="round"/>
<path d="M100 9H101V13" stroke="#FFA216" stroke-width="2" stroke-linecap="round" stroke-linejoin="round"/>
<path d="M109.71 16.88L110.41 17.59L107.59 20.41" stroke="#FFA216" stroke-width="2" stroke-linecap="round" stroke-linejoin="round"/>
</g>
<defs>
<clipPath id="clip0_98_32">
<rect width="172" height="32" fill="white"/>
</clipPath>
</defs>
</svg>
