<svg width="122" height="32" viewBox="0 0 122 32" fill="none" xmlns="http://www.w3.org/2000/svg">
<g clip-path="url(#clip0_98_34)">
<path d="M11.8373 15.3493C11.8373 13.7689 11.7564 12.6489 11.5947 11.9893C11.4329 11.3298 11.1342 11 10.6987 11C10.3253 11 10.0204 11.0684 9.784 11.2053C9.54756 11.3298 9.37333 11.5351 9.26133 11.8213C9.14933 12.0951 9.07467 12.3813 9.03733 12.68C9.01244 12.9662 9 13.3333 9 13.7813V15.3493H11.8373ZM10.344 25.392C8.95022 25.392 7.73689 25.1804 6.704 24.7573C5.68356 24.3342 4.87467 23.7431 4.27733 22.984C3.69244 22.2249 3.26311 21.3724 2.98933 20.4267C2.71556 19.4684 2.57867 18.4044 2.57867 17.2347C2.57867 14.4471 3.288 12.3378 4.70667 10.9067C6.12533 9.47556 8.11022 8.76 10.6613 8.76C13.1129 8.76 14.8676 9.33867 15.9253 10.496C16.9831 11.6409 17.512 13.4889 17.512 16.04V18.112H8.98133V18.4667C8.98133 19.2009 9.056 19.8044 9.20533 20.2773C9.36711 20.7502 9.59733 21.0987 9.896 21.3227C10.1947 21.5467 10.4996 21.696 10.8107 21.7707C11.1218 21.8453 11.5013 21.8827 11.9493 21.8827C12.3849 21.8827 12.8516 21.8267 13.3493 21.7147C13.8596 21.6027 14.3698 21.4284 14.88 21.192C15.4027 20.9556 15.8382 20.6756 16.1867 20.352L17.288 22.2373C16.8276 22.984 16.1493 23.6124 15.2533 24.1227C14.3698 24.6204 13.5173 24.9564 12.696 25.1307C11.8747 25.3049 11.0907 25.392 10.344 25.392ZM23.0435 25H17.9661L22.0168 17.216L17.6861 9.13333H24.8728L26.5155 13.352L28.4568 9.13333H33.5528L29.3715 16.712L33.8141 25H26.7395L24.8728 20.576L23.0435 25ZM39.2146 25.392C37.5346 25.392 36.3586 24.888 35.6866 23.88C35.0271 22.872 34.6973 21.1671 34.6973 18.7653V12.4187H33.4093V9.824L35.612 9.13333L37.516 4.784H40.8013V9.13333H43.8626V12.4187H40.7453V19.3627C40.7453 20.3582 40.8884 21.0178 41.1746 21.3413C41.4608 21.6649 41.9026 21.8267 42.5 21.8267C42.7613 21.8267 42.9977 21.7956 43.2093 21.7333C43.4208 21.6711 43.5951 21.584 43.732 21.472V24.0107C43.5453 24.1973 43.3026 24.384 43.004 24.5707C42.7053 24.7449 42.2075 24.9253 41.5106 25.112C40.8262 25.2987 40.0608 25.392 39.2146 25.392ZM51.54 25H45.5107V12.9227L44.3907 12.232V10.1227L48.404 9.13333H49.916L50.4574 13.576C50.9676 10.5271 52.604 9.00267 55.3667 9.00267C55.6778 9.00267 56.0014 9.05867 56.3374 9.17067L55.7027 15.816C55.4414 15.5796 54.8689 15.4613 53.9854 15.4613C52.716 15.4613 51.9009 15.7973 51.54 16.4693V25ZM65.3194 23.152C65.8669 23.152 66.2838 22.928 66.57 22.48C66.8687 22.0196 67.018 21.3911 67.018 20.5947V14.696C67.018 12.2693 66.4456 11.056 65.3007 11.056C64.7656 11.056 64.3487 11.2738 64.05 11.7093C63.7514 12.1449 63.602 12.7609 63.602 13.5573V19.624C63.602 21.976 64.1745 23.152 65.3194 23.152ZM65.17 25.392C62.3203 25.392 60.2358 24.7449 58.9167 23.4507C57.5976 22.1564 56.938 20.0907 56.938 17.2533C56.938 14.4409 57.6038 12.3253 58.9354 10.9067C60.2669 9.47556 62.4323 8.76 65.4314 8.76C68.3558 8.76 70.4652 9.44444 71.7594 10.8133C73.066 12.1698 73.7194 14.2293 73.7194 16.992C73.7194 19.8542 73.0287 21.9698 71.6474 23.3387C70.2785 24.7076 68.1194 25.392 65.17 25.392ZM85.3102 25C84.5884 25 83.9289 24.9253 83.3315 24.776C82.7342 24.6267 82.2115 24.44 81.7635 24.216V30.6373H75.7529V12.9227L74.6329 12.232V10.2347L78.6462 9.13333H81.7635V10.384C82.2115 9.92356 82.7529 9.53778 83.3875 9.22667C84.0222 8.91556 84.7627 8.76 85.6089 8.76C87.6622 8.76 89.168 9.46311 90.1262 10.8693C91.0969 12.2756 91.5822 14.2231 91.5822 16.712C91.5822 17.8818 91.4515 18.9644 91.1902 19.96C90.9289 20.9431 90.5431 21.8142 90.0329 22.5733C89.5227 23.3324 88.8631 23.9298 88.0542 24.3653C87.2578 24.7884 86.3431 25 85.3102 25ZM82.5662 22.4053C84.2338 22.4053 85.0675 21.1298 85.0675 18.5787V15.4053C85.0675 14.2853 84.8747 13.4516 84.4889 12.904C84.1155 12.3564 83.6302 12.0827 83.0329 12.0827C82.6222 12.0827 82.1991 12.2071 81.7635 12.456V22.312C81.9129 22.3493 82.0498 22.3742 82.1742 22.3867C82.3111 22.3991 82.4418 22.4053 82.5662 22.4053Z" fill="#333333"/>
<rect x="94" y="7" width="24" height="24" rx="5" fill="#F03E06"/>
<path d="M94 12C94 9.23858 96.2386 7 99 7H113C115.761 7 118 9.23858 118 12V15H94V12Z" fill="#FFA216"/>
<path d="M94 15H118V23H94V15Z" fill="#FF6939"/>
<g clip-path="url(#clip1_98_34)">
<path d="M109.667 25.4565L106 29.1232L102.333 25.4565" stroke="white" stroke-width="2" stroke-linecap="round" stroke-linejoin="round"/>
<path d="M106 27.2101L106 18.725C105.995 18.2367 106.087 17.7524 106.272 17.3003C106.456 16.8482 106.729 16.4375 107.074 16.0923L113.333 9.83333" stroke="white" stroke-width="3" stroke-linecap="round" stroke-linejoin="round"/>
<path d="M98.6666 9.83333L103.293 14.4601" stroke="white" stroke-width="3" stroke-linecap="round" stroke-linejoin="round"/>
</g>
</g>
<defs>
<clipPath id="clip0_98_34">
<rect width="122" height="32" fill="white"/>
</clipPath>
<clipPath id="clip1_98_34">
<rect width="22" height="22" fill="white" transform="translate(117 30) rotate(180)"/>
</clipPath>
</defs>
</svg>
