<svg width="143" height="52" viewBox="0 0 143 52" fill="none" xmlns="http://www.w3.org/2000/svg">
<rect width="1064" height="243" transform="translate(-58 -55)" fill="#3F3F3F"/>
<path d="M12.2967 12.9367C12.2967 10.9611 12.1956 9.56111 11.9933 8.73667C11.7911 7.91222 11.4178 7.5 10.8733 7.5C10.4067 7.5 10.0256 7.58556 9.73 7.75667C9.43444 7.91222 9.21667 8.16889 9.07667 8.52667C8.93667 8.86889 8.84333 9.22667 8.79667 9.6C8.76556 9.95778 8.75 10.4167 8.75 10.9767V12.9367H12.2967ZM10.43 25.49C8.68778 25.49 7.17111 25.2256 5.88 24.6967C4.60444 24.1678 3.59333 23.4289 2.84667 22.48C2.11556 21.5311 1.57889 20.4656 1.23667 19.2833C0.894444 18.0856 0.723333 16.7556 0.723333 15.2933C0.723333 11.8089 1.61 9.17222 3.38333 7.38333C5.15667 5.59444 7.63778 4.7 10.8267 4.7C13.8911 4.7 16.0844 5.42333 17.4067 6.87C18.7289 8.30111 19.39 10.6111 19.39 13.8V16.39H8.72667V16.8333C8.72667 17.7511 8.82 18.5056 9.00667 19.0967C9.20889 19.6878 9.49667 20.1233 9.87 20.4033C10.2433 20.6833 10.6244 20.87 11.0133 20.9633C11.4022 21.0567 11.8767 21.1033 12.4367 21.1033C12.9811 21.1033 13.5644 21.0333 14.1867 20.8933C14.8244 20.7533 15.4622 20.5356 16.1 20.24C16.7533 19.9444 17.2978 19.5944 17.7333 19.19L19.11 21.5467C18.5344 22.48 17.6867 23.2656 16.5667 23.9033C15.4622 24.5256 14.3967 24.9456 13.37 25.1633C12.3433 25.3811 11.3633 25.49 10.43 25.49ZM26.3043 25H19.9577L25.021 15.27L19.6077 5.16667H28.591L30.6443 10.44L33.071 5.16667H39.441L34.2143 14.64L39.7677 25H30.9243L28.591 19.47L26.3043 25ZM46.5183 25.49C44.4183 25.49 42.9483 24.86 42.1083 23.6C41.2838 22.34 40.8716 20.2089 40.8716 17.2067V9.27333H39.2616V6.03L42.0149 5.16667L44.3949 -0.27H48.5016V5.16667H52.3283V9.27333H48.4316V17.9533C48.4316 19.1978 48.6105 20.0222 48.9683 20.4267C49.3261 20.8311 49.8783 21.0333 50.6249 21.0333C50.9516 21.0333 51.2472 20.9944 51.5116 20.9167C51.7761 20.8389 51.9938 20.73 52.1649 20.59V23.7633C51.9316 23.9967 51.6283 24.23 51.2549 24.4633C50.8816 24.6811 50.2594 24.9067 49.3883 25.14C48.5327 25.3733 47.5761 25.49 46.5183 25.49ZM61.925 25H54.3884V9.90333L52.9884 9.04V6.40333L58.005 5.16667H59.895L60.5717 10.72C61.2095 6.90889 63.255 5.00333 66.7084 5.00333C67.0972 5.00333 67.5017 5.07333 67.9217 5.21333L67.1284 13.52C66.8017 13.2244 66.0861 13.0767 64.9817 13.0767C63.395 13.0767 62.3761 13.4967 61.925 14.3367V25ZM79.1492 22.69C79.8337 22.69 80.3548 22.41 80.7126 21.85C81.0859 21.2744 81.2726 20.4889 81.2726 19.4933V12.12C81.2726 9.08667 80.557 7.57 79.1259 7.57C78.457 7.57 77.9359 7.84222 77.5626 8.38667C77.1892 8.93111 77.0026 9.70111 77.0026 10.6967V18.28C77.0026 21.22 77.7181 22.69 79.1492 22.69ZM78.9626 25.49C75.4003 25.49 72.7948 24.6811 71.1459 23.0633C69.497 21.4456 68.6726 18.8633 68.6726 15.3167C68.6726 11.8011 69.5048 9.15667 71.1692 7.38333C72.8337 5.59444 75.5403 4.7 79.2892 4.7C82.9448 4.7 85.5814 5.55556 87.1992 7.26667C88.8326 8.96222 89.6492 11.5367 89.6492 14.99C89.6492 18.5678 88.7859 21.2122 87.0592 22.9233C85.3481 24.6344 82.6492 25.49 78.9626 25.49ZM104.138 25C103.236 25 102.411 24.9067 101.664 24.72C100.918 24.5333 100.264 24.3 99.7044 24.02V32.0467H92.1911V9.90333L90.7911 9.04V6.54333L95.8078 5.16667H99.7044V6.73C100.264 6.15444 100.941 5.67222 101.734 5.28333C102.528 4.89444 103.453 4.7 104.511 4.7C107.078 4.7 108.96 5.57889 110.158 7.33667C111.371 9.09444 111.978 11.5289 111.978 14.64C111.978 16.1022 111.814 17.4556 111.488 18.7C111.161 19.9289 110.679 21.0178 110.041 21.9667C109.403 22.9156 108.579 23.6622 107.568 24.2067C106.572 24.7356 105.429 25 104.138 25ZM100.708 21.7567C102.792 21.7567 103.834 20.1622 103.834 16.9733V13.0067C103.834 11.6067 103.593 10.5644 103.111 9.88C102.644 9.19556 102.038 8.85333 101.291 8.85333C100.778 8.85333 100.249 9.00889 99.7044 9.32V21.64C99.8911 21.6867 100.062 21.7178 100.218 21.7333C100.389 21.7489 100.552 21.7567 100.708 21.7567Z" fill="white"/>
<path d="M0.917969 51.25V43H1.59375V44.1445H1.67578C1.75911 43.9648 1.8737 43.7812 2.01953 43.5937C2.16536 43.4036 2.35807 43.2435 2.59766 43.1133C2.83984 42.9831 3.14453 42.918 3.51172 42.918C4.00651 42.918 4.4388 43.0482 4.80859 43.3086C5.18099 43.5664 5.47005 43.9284 5.67578 44.3945C5.88411 44.8581 5.98828 45.3984 5.98828 46.0156C5.98828 46.6354 5.88411 47.1784 5.67578 47.6445C5.47005 48.1107 5.18099 48.474 4.80859 48.7344C4.4388 48.9948 4.00911 49.125 3.51953 49.125C3.15755 49.125 2.85417 49.0599 2.60938 48.9297C2.36719 48.7995 2.17057 48.6393 2.01953 48.4492C1.87109 48.2565 1.75651 48.069 1.67578 47.8867H1.61328V51.25H0.917969ZM1.60547 46.0039C1.60547 46.4883 1.67708 46.918 1.82031 47.293C1.96615 47.6654 2.17448 47.9583 2.44531 48.1719C2.71875 48.3828 3.04948 48.4883 3.4375 48.4883C3.83594 48.4883 4.17188 48.3789 4.44531 48.1602C4.72135 47.9388 4.93099 47.6406 5.07422 47.2656C5.22005 46.8906 5.29297 46.4701 5.29297 46.0039C5.29297 45.543 5.22135 45.1276 5.07813 44.7578C4.9375 44.388 4.72917 44.0951 4.45313 43.8789C4.17708 43.6602 3.83854 43.5508 3.4375 43.5508C3.04688 43.5508 2.71484 43.6562 2.44141 43.8672C2.16797 44.0755 1.95964 44.3646 1.81641 44.7344C1.67578 45.1016 1.60547 45.5247 1.60547 46.0039ZM7.51367 49V43H8.18945V43.9219H8.24023C8.36003 43.6198 8.56836 43.3763 8.86523 43.1914C9.16471 43.0039 9.50326 42.9102 9.88086 42.9102C9.93815 42.9102 10.002 42.9115 10.0723 42.9141C10.1426 42.9167 10.2012 42.9193 10.248 42.9219V43.6289C10.2168 43.6237 10.1621 43.6159 10.084 43.6055C10.0059 43.5951 9.92122 43.5898 9.83008 43.5898C9.51758 43.5898 9.23893 43.6562 8.99414 43.7891C8.75195 43.9193 8.56055 44.1003 8.41992 44.332C8.2793 44.5638 8.20898 44.8281 8.20898 45.125V49H7.51367ZM13.584 49.125C13.0658 49.125 12.6074 48.9935 12.209 48.7305C11.8132 48.4674 11.5033 48.1042 11.2793 47.6406C11.0553 47.1745 10.9434 46.6367 10.9434 46.0273C10.9434 45.4128 11.0553 44.8724 11.2793 44.4062C11.5033 43.9375 11.8132 43.5729 12.209 43.3125C12.6074 43.0495 13.0658 42.918 13.584 42.918C14.1022 42.918 14.5592 43.0495 14.9551 43.3125C15.3509 43.5755 15.6608 43.9401 15.8848 44.4062C16.1113 44.8724 16.2246 45.4128 16.2246 46.0273C16.2246 46.6367 16.1126 47.1745 15.8887 47.6406C15.6647 48.1042 15.3535 48.4674 14.9551 48.7305C14.5592 48.9935 14.1022 49.125 13.584 49.125ZM13.584 48.4883C14.0007 48.4883 14.3535 48.3763 14.6426 48.1523C14.9316 47.9284 15.1504 47.6302 15.2988 47.2578C15.4499 46.8854 15.5254 46.4753 15.5254 46.0273C15.5254 45.5794 15.4499 45.168 15.2988 44.793C15.1504 44.418 14.9316 44.1172 14.6426 43.8906C14.3535 43.6641 14.0007 43.5508 13.584 43.5508C13.1699 43.5508 12.8171 43.6641 12.5254 43.8906C12.2363 44.1172 12.0163 44.418 11.8652 44.793C11.7168 45.168 11.6426 45.5794 11.6426 46.0273C11.6426 46.4753 11.7168 46.8854 11.8652 47.2578C12.0163 47.6302 12.2363 47.9284 12.5254 48.1523C12.8145 48.3763 13.1673 48.4883 13.584 48.4883ZM20.04 51.375C19.6312 51.375 19.2731 51.3216 18.9658 51.2148C18.6585 51.1107 18.3994 50.9674 18.1885 50.7852C17.9775 50.6029 17.8135 50.3984 17.6963 50.1719L18.2666 49.7969C18.3525 49.9479 18.4671 50.0964 18.6104 50.2422C18.7562 50.388 18.945 50.5091 19.1768 50.6055C19.4111 50.7018 19.6989 50.75 20.04 50.75C20.5713 50.75 20.9997 50.6172 21.3252 50.3516C21.6533 50.0859 21.8174 49.6732 21.8174 49.1133V47.7617H21.7549C21.6742 47.944 21.5583 48.1263 21.4072 48.3086C21.2562 48.4883 21.0583 48.638 20.8135 48.7578C20.5713 48.8776 20.2705 48.9375 19.9111 48.9375C19.432 48.9375 19.0062 48.819 18.6338 48.582C18.264 48.3451 17.9723 48.0065 17.7588 47.5664C17.5479 47.1237 17.4424 46.5964 17.4424 45.9844C17.4424 45.3776 17.5452 44.8437 17.751 44.3828C17.9593 43.9219 18.2497 43.5625 18.6221 43.3047C18.9945 43.0469 19.4281 42.918 19.9229 42.918C20.29 42.918 20.5947 42.9831 20.8369 43.1133C21.0791 43.2409 21.2731 43.3997 21.4189 43.5898C21.5674 43.7799 21.6833 43.9648 21.7666 44.1445H21.8369V43H22.5166V49.1563C22.5166 49.6641 22.4085 50.082 22.1924 50.4102C21.9762 50.7383 21.682 50.9805 21.3096 51.1367C20.9372 51.2956 20.514 51.375 20.04 51.375ZM19.9932 48.3008C20.3786 48.3008 20.708 48.2083 20.9814 48.0234C21.2549 47.8359 21.4645 47.5677 21.6104 47.2187C21.7562 46.8698 21.8291 46.4544 21.8291 45.9727C21.8291 45.5039 21.7575 45.0885 21.6143 44.7266C21.471 44.362 21.2627 44.0755 20.9893 43.8672C20.7184 43.6562 20.3864 43.5508 19.9932 43.5508C19.5921 43.5508 19.2536 43.6589 18.9775 43.875C18.7015 44.0911 18.4932 44.3828 18.3525 44.75C18.2119 45.1146 18.1416 45.5221 18.1416 45.9727C18.1416 46.431 18.2132 46.8359 18.3564 47.1875C18.4997 47.5365 18.7093 47.8099 18.9854 48.0078C19.2614 48.2031 19.5973 48.3008 19.9932 48.3008ZM24.3574 49V43H25.0332V43.9219H25.084C25.2038 43.6198 25.4121 43.3763 25.709 43.1914C26.0085 43.0039 26.347 42.9102 26.7246 42.9102C26.7819 42.9102 26.8457 42.9115 26.916 42.9141C26.9863 42.9167 27.0449 42.9193 27.0918 42.9219V43.6289C27.0605 43.6237 27.0059 43.6159 26.9277 43.6055C26.8496 43.5951 26.765 43.5898 26.6738 43.5898C26.3613 43.5898 26.0827 43.6562 25.8379 43.7891C25.5957 43.9193 25.4043 44.1003 25.2637 44.332C25.123 44.5638 25.0527 44.8281 25.0527 45.125V49H24.3574ZM29.9541 49.1367C29.5921 49.1367 29.2614 49.0664 28.9619 48.9258C28.6624 48.7826 28.4242 48.5768 28.2471 48.3086C28.07 48.0378 27.9814 47.7096 27.9814 47.3242C27.9814 47.0273 28.0374 46.7773 28.1494 46.5742C28.2614 46.3711 28.4202 46.2044 28.626 46.0742C28.8317 45.944 29.0752 45.8411 29.3564 45.7656C29.6377 45.6901 29.9476 45.6315 30.2861 45.5898C30.6221 45.5482 30.9059 45.5117 31.1377 45.4805C31.3721 45.4492 31.5505 45.3997 31.6729 45.332C31.7952 45.2643 31.8564 45.1549 31.8564 45.0039V44.8633C31.8564 44.4544 31.734 44.1328 31.4893 43.8984C31.2471 43.6615 30.8981 43.543 30.4424 43.543C30.0101 43.543 29.6572 43.638 29.3838 43.8281C29.113 44.0182 28.9229 44.2422 28.8135 44.5L28.1533 44.2617C28.2887 43.9336 28.4762 43.6719 28.7158 43.4766C28.9554 43.2786 29.2236 43.1367 29.5205 43.0508C29.8174 42.9622 30.1182 42.918 30.4229 42.918C30.652 42.918 30.8903 42.9479 31.1377 43.0078C31.3877 43.0677 31.6195 43.1719 31.833 43.3203C32.0465 43.4661 32.2197 43.6706 32.3525 43.9336C32.4854 44.194 32.5518 44.5247 32.5518 44.9258V49H31.8564V48.0508H31.8135C31.7301 48.2279 31.6064 48.3997 31.4424 48.5664C31.2783 48.7331 31.0726 48.8698 30.8252 48.9766C30.5778 49.0833 30.2874 49.1367 29.9541 49.1367ZM30.0479 48.5C30.4176 48.5 30.738 48.418 31.0088 48.2539C31.2796 48.0898 31.488 47.8724 31.6338 47.6016C31.7822 47.3281 31.8564 47.0273 31.8564 46.6992V45.832C31.8044 45.8815 31.7171 45.9258 31.5947 45.9648C31.4749 46.0039 31.3356 46.0391 31.1768 46.0703C31.0205 46.099 30.8643 46.1237 30.708 46.1445C30.5518 46.1654 30.4111 46.1836 30.2861 46.1992C29.9476 46.2409 29.6585 46.306 29.4189 46.3945C29.1794 46.4831 28.9958 46.6055 28.8682 46.7617C28.7406 46.9154 28.6768 47.1133 28.6768 47.3555C28.6768 47.7201 28.807 48.0026 29.0674 48.2031C29.3278 48.401 29.6546 48.5 30.0479 48.5ZM34.4014 49V43H35.0771V43.9219H35.1396C35.2594 43.612 35.4587 43.3685 35.7373 43.1914C36.0186 43.0117 36.3558 42.9219 36.749 42.9219C37.1631 42.9219 37.5029 43.0195 37.7686 43.2148C38.0368 43.4076 38.2373 43.6732 38.3701 44.0117H38.4209C38.5563 43.6784 38.7764 43.4141 39.0811 43.2187C39.3883 43.0208 39.7607 42.9219 40.1982 42.9219C40.7555 42.9219 41.1956 43.0977 41.5186 43.4492C41.8415 43.7982 42.0029 44.3086 42.0029 44.9805V49H41.3076V44.9805C41.3076 44.5065 41.1865 44.151 40.9443 43.9141C40.7021 43.6771 40.3831 43.5586 39.9873 43.5586C39.529 43.5586 39.1761 43.6992 38.9287 43.9805C38.6813 44.2617 38.5576 44.6185 38.5576 45.0508V49H37.8467V44.918C37.8467 44.5117 37.7334 44.1836 37.5068 43.9336C37.2803 43.6836 36.9613 43.5586 36.5498 43.5586C36.2738 43.5586 36.0251 43.6263 35.8037 43.7617C35.585 43.8971 35.4118 44.0859 35.2842 44.3281C35.1592 44.5677 35.0967 44.8437 35.0967 45.1562V49H34.4014ZM43.8438 49V43H44.5195V43.9219H44.582C44.7018 43.612 44.901 43.3685 45.1797 43.1914C45.4609 43.0117 45.7982 42.9219 46.1914 42.9219C46.6055 42.9219 46.9453 43.0195 47.2109 43.2148C47.4792 43.4076 47.6797 43.6732 47.8125 44.0117H47.8633C47.9987 43.6784 48.2188 43.4141 48.5234 43.2187C48.8307 43.0208 49.2031 42.9219 49.6406 42.9219C50.1979 42.9219 50.638 43.0977 50.9609 43.4492C51.2839 43.7982 51.4453 44.3086 51.4453 44.9805V49H50.75V44.9805C50.75 44.5065 50.6289 44.151 50.3867 43.9141C50.1445 43.6771 49.8255 43.5586 49.4297 43.5586C48.9714 43.5586 48.6185 43.6992 48.3711 43.9805C48.1237 44.2617 48 44.6185 48 45.0508V49H47.2891V44.918C47.2891 44.5117 47.1758 44.1836 46.9492 43.9336C46.7227 43.6836 46.4036 43.5586 45.9922 43.5586C45.7161 43.5586 45.4674 43.6263 45.2461 43.7617C45.0273 43.8971 44.8542 44.0859 44.7266 44.3281C44.6016 44.5677 44.5391 44.8437 44.5391 45.1562V49H43.8438ZM53.2939 49V43H53.9932V49H53.2939ZM53.6494 41.9687C53.5062 41.9687 53.3838 41.9206 53.2822 41.8242C53.1807 41.7253 53.1299 41.6068 53.1299 41.4687C53.1299 41.3307 53.1807 41.2135 53.2822 41.1172C53.3838 41.0182 53.5062 40.9687 53.6494 40.9687C53.7926 40.9687 53.915 41.0182 54.0166 41.1172C54.1182 41.2135 54.1689 41.3307 54.1689 41.4687C54.1689 41.6068 54.1182 41.7253 54.0166 41.8242C53.915 41.9206 53.7926 41.9687 53.6494 41.9687ZM56.5273 45.25V49H55.832V43H56.5078V43.9414H56.5703C56.7109 43.6341 56.9297 43.388 57.2266 43.2031C57.526 43.0156 57.8958 42.9219 58.3359 42.9219C58.7396 42.9219 59.0938 43.0065 59.3984 43.1758C59.7057 43.3424 59.944 43.5885 60.1133 43.9141C60.2852 44.2396 60.3711 44.6393 60.3711 45.1133V49H59.6758V45.1562C59.6758 44.6641 59.5378 44.2747 59.2617 43.9883C58.9883 43.7018 58.6211 43.5586 58.1602 43.5586C57.8451 43.5586 57.5651 43.6263 57.3203 43.7617C57.0755 43.8971 56.8815 44.0924 56.7383 44.3477C56.5977 44.6003 56.5273 44.901 56.5273 45.25ZM64.4912 51.375C64.0824 51.375 63.7243 51.3216 63.417 51.2148C63.1097 51.1107 62.8506 50.9674 62.6396 50.7852C62.4287 50.6029 62.2646 50.3984 62.1475 50.1719L62.7178 49.7969C62.8037 49.9479 62.9183 50.0964 63.0615 50.2422C63.2074 50.388 63.3962 50.5091 63.6279 50.6055C63.8623 50.7018 64.1501 50.75 64.4912 50.75C65.0225 50.75 65.4508 50.6172 65.7764 50.3516C66.1045 50.0859 66.2686 49.6732 66.2686 49.1133V47.7617H66.2061C66.1253 47.944 66.0094 48.1263 65.8584 48.3086C65.7074 48.4883 65.5094 48.638 65.2646 48.7578C65.0225 48.8776 64.7217 48.9375 64.3623 48.9375C63.8831 48.9375 63.4574 48.819 63.085 48.582C62.7152 48.3451 62.4235 48.0065 62.21 47.5664C61.999 47.1237 61.8936 46.5964 61.8936 45.9844C61.8936 45.3776 61.9964 44.8437 62.2021 44.3828C62.4105 43.9219 62.7008 43.5625 63.0732 43.3047C63.4456 43.0469 63.8792 42.918 64.374 42.918C64.7412 42.918 65.0459 42.9831 65.2881 43.1133C65.5303 43.2409 65.7243 43.3997 65.8701 43.5898C66.0186 43.7799 66.1344 43.9648 66.2178 44.1445H66.2881V43H66.9678V49.1563C66.9678 49.6641 66.8597 50.082 66.6436 50.4102C66.4274 50.7383 66.1331 50.9805 65.7607 51.1367C65.3883 51.2956 64.9652 51.375 64.4912 51.375ZM64.4443 48.3008C64.8298 48.3008 65.1592 48.2083 65.4326 48.0234C65.7061 47.8359 65.9157 47.5677 66.0615 47.2187C66.2074 46.8698 66.2803 46.4544 66.2803 45.9727C66.2803 45.5039 66.2087 45.0885 66.0654 44.7266C65.9222 44.362 65.7139 44.0755 65.4404 43.8672C65.1696 43.6562 64.8376 43.5508 64.4443 43.5508C64.0433 43.5508 63.7048 43.6589 63.4287 43.875C63.1527 44.0911 62.9443 44.3828 62.8037 44.75C62.6631 45.1146 62.5928 45.5221 62.5928 45.9727C62.5928 46.431 62.6644 46.8359 62.8076 47.1875C62.9508 47.5365 63.1605 47.8099 63.4365 48.0078C63.7126 48.2031 64.0485 48.3008 64.4443 48.3008ZM69.9648 47.9062L69.8945 48.3242C69.8503 48.6055 69.7878 48.9154 69.707 49.2539C69.6263 49.5924 69.543 49.9141 69.457 50.2188C69.3711 50.5234 69.2969 50.7682 69.2344 50.9531H68.6992C68.7331 50.776 68.776 50.5508 68.8281 50.2773C68.8828 50.0039 68.9388 49.7005 68.9961 49.3672C69.0534 49.0365 69.1055 48.6953 69.1523 48.3437L69.207 47.9062H69.9648ZM77.0596 49.125C76.5674 49.125 76.1364 48.9948 75.7666 48.7344C75.3968 48.474 75.1077 48.1107 74.8994 47.6445C74.6937 47.1784 74.5908 46.6354 74.5908 46.0156C74.5908 45.3984 74.6937 44.8581 74.8994 44.3945C75.1077 43.9284 75.3981 43.5664 75.7705 43.3086C76.1429 43.0482 76.5765 42.918 77.0713 42.918C77.4359 42.918 77.7393 42.9831 77.9814 43.1133C78.2236 43.2409 78.4176 43.3997 78.5635 43.5898C78.7093 43.7799 78.8226 43.9648 78.9033 44.1445H78.9658V41H79.665V49H78.9854V47.8867H78.9033C78.8226 48.069 78.708 48.2565 78.5596 48.4492C78.4111 48.6393 78.2145 48.7995 77.9697 48.9297C77.7275 49.0599 77.4242 49.125 77.0596 49.125ZM77.1416 48.4883C77.5296 48.4883 77.8604 48.3828 78.1338 48.1719C78.4072 47.9583 78.6156 47.6654 78.7588 47.293C78.9046 46.918 78.9775 46.4883 78.9775 46.0039C78.9775 45.5247 78.9059 45.1016 78.7627 44.7344C78.6195 44.3646 78.4111 44.0755 78.1377 43.8672C77.8643 43.6562 77.5322 43.5508 77.1416 43.5508C76.7406 43.5508 76.402 43.6602 76.126 43.8789C75.8525 44.0951 75.6442 44.388 75.501 44.7578C75.3604 45.1276 75.29 45.543 75.29 46.0039C75.29 46.4701 75.3617 46.8906 75.5049 47.2656C75.6481 47.6406 75.8564 47.9388 76.1299 48.1602C76.4059 48.3789 76.7432 48.4883 77.1416 48.4883ZM84.0713 49.125C83.5114 49.125 83.027 48.9948 82.6182 48.7344C82.2093 48.4714 81.8929 48.1081 81.6689 47.6445C81.4476 47.1784 81.3369 46.6419 81.3369 46.0352C81.3369 45.431 81.4476 44.8945 81.6689 44.4258C81.8929 43.9544 82.2015 43.5859 82.5947 43.3203C82.9906 43.0521 83.4476 42.918 83.9658 42.918C84.2913 42.918 84.6051 42.9779 84.9072 43.0977C85.2093 43.2148 85.4801 43.3958 85.7197 43.6406C85.9619 43.8828 86.1533 44.1888 86.2939 44.5586C86.4346 44.9258 86.5049 45.3607 86.5049 45.8633V46.207H81.8174V45.5937H85.7939C85.7939 45.2083 85.7158 44.862 85.5596 44.5547C85.4059 44.2448 85.1911 44 84.915 43.8203C84.6416 43.6406 84.3252 43.5508 83.9658 43.5508C83.5856 43.5508 83.251 43.6523 82.9619 43.8555C82.6729 44.0586 82.4463 44.3268 82.2822 44.6602C82.1208 44.9935 82.0387 45.3581 82.0361 45.7539V46.1211C82.0361 46.5977 82.1182 47.0143 82.2822 47.3711C82.4489 47.7253 82.6846 48 82.9893 48.1953C83.2939 48.3906 83.6546 48.4883 84.0713 48.4883C84.3551 48.4883 84.6038 48.444 84.8174 48.3555C85.0335 48.2669 85.2145 48.1484 85.3604 48C85.5088 47.849 85.6208 47.6836 85.6963 47.5039L86.3564 47.7187C86.2653 47.9714 86.1156 48.2044 85.9072 48.418C85.7015 48.6315 85.4437 48.8034 85.1338 48.9336C84.8265 49.0612 84.4723 49.125 84.0713 49.125ZM92.0684 44.3164L91.4316 44.4961C91.3691 44.3164 91.2806 44.1536 91.166 44.0078C91.0514 43.862 90.9017 43.7461 90.7168 43.6602C90.5345 43.5742 90.3079 43.5312 90.0371 43.5312C89.6309 43.5312 89.2975 43.6276 89.0371 43.8203C88.7767 44.013 88.6465 44.2617 88.6465 44.5664C88.6465 44.8242 88.735 45.0339 88.9121 45.1953C89.0918 45.3542 89.3678 45.4805 89.7402 45.5742L90.6465 45.7969C91.1491 45.9193 91.5254 46.1133 91.7754 46.3789C92.028 46.6445 92.1543 46.9779 92.1543 47.3789C92.1543 47.7174 92.0605 48.0182 91.873 48.2812C91.6855 48.5443 91.4238 48.7513 91.0879 48.9023C90.7546 49.0508 90.3678 49.125 89.9277 49.125C89.3418 49.125 88.8587 48.9935 88.4785 48.7305C88.0983 48.4648 87.8548 48.082 87.748 47.582L88.416 47.418C88.502 47.7747 88.6699 48.0443 88.9199 48.2266C89.1725 48.4089 89.5046 48.5 89.916 48.5C90.377 48.5 90.7454 48.3971 91.0215 48.1914C91.2975 47.9831 91.4355 47.7227 91.4355 47.4102C91.4355 47.168 91.3548 46.9648 91.1934 46.8008C91.0319 46.6341 90.7871 46.5117 90.459 46.4336L89.4785 46.1992C88.9577 46.0742 88.5723 45.8763 88.3223 45.6055C88.0723 45.3346 87.9473 44.9987 87.9473 44.5977C87.9473 44.2669 88.0371 43.9766 88.2168 43.7266C88.3965 43.474 88.6439 43.276 88.959 43.1328C89.2741 42.9896 89.6335 42.918 90.0371 42.918C90.5866 42.918 91.0254 43.043 91.3535 43.293C91.6842 43.5404 91.9225 43.8815 92.0684 44.3164ZM93.6846 49V43H94.3838V49H93.6846ZM94.04 41.9687C93.8968 41.9687 93.7744 41.9206 93.6729 41.8242C93.5713 41.7253 93.5205 41.6068 93.5205 41.4687C93.5205 41.3307 93.5713 41.2135 93.6729 41.1172C93.7744 41.0182 93.8968 40.9687 94.04 40.9687C94.1833 40.9687 94.3057 41.0182 94.4072 41.1172C94.5088 41.2135 94.5596 41.3307 94.5596 41.4687C94.5596 41.6068 94.5088 41.7253 94.4072 41.8242C94.3057 41.9206 94.1833 41.9687 94.04 41.9687ZM98.5117 51.375C98.1029 51.375 97.7448 51.3216 97.4375 51.2148C97.1302 51.1107 96.8711 50.9674 96.6602 50.7852C96.4492 50.6029 96.2852 50.3984 96.168 50.1719L96.7383 49.7969C96.8242 49.9479 96.9388 50.0964 97.082 50.2422C97.2279 50.388 97.4167 50.5091 97.6484 50.6055C97.8828 50.7018 98.1706 50.75 98.5117 50.75C99.043 50.75 99.4714 50.6172 99.7969 50.3516C100.125 50.0859 100.289 49.6732 100.289 49.1133V47.7617H100.227C100.146 47.944 100.03 48.1263 99.8789 48.3086C99.7279 48.4883 99.5299 48.638 99.2852 48.7578C99.043 48.8776 98.7422 48.9375 98.3828 48.9375C97.9036 48.9375 97.4779 48.819 97.1055 48.582C96.7357 48.3451 96.444 48.0065 96.2305 47.5664C96.0195 47.1237 95.9141 46.5964 95.9141 45.9844C95.9141 45.3776 96.0169 44.8437 96.2227 44.3828C96.431 43.9219 96.7214 43.5625 97.0938 43.3047C97.4661 43.0469 97.8997 42.918 98.3945 42.918C98.7617 42.918 99.0664 42.9831 99.3086 43.1133C99.5508 43.2409 99.7448 43.3997 99.8906 43.5898C100.039 43.7799 100.155 43.9648 100.238 44.1445H100.309V43H100.988V49.1563C100.988 49.6641 100.88 50.082 100.664 50.4102C100.448 50.7383 100.154 50.9805 99.7813 51.1367C99.4089 51.2956 98.9857 51.375 98.5117 51.375ZM98.4648 48.3008C98.8503 48.3008 99.1797 48.2083 99.4531 48.0234C99.7266 47.8359 99.9362 47.5677 100.082 47.2187C100.228 46.8698 100.301 46.4544 100.301 45.9727C100.301 45.5039 100.229 45.0885 100.086 44.7266C99.9427 44.362 99.7344 44.0755 99.4609 43.8672C99.1901 43.6562 98.8581 43.5508 98.4648 43.5508C98.0638 43.5508 97.7253 43.6589 97.4492 43.875C97.1732 44.0911 96.9648 44.3828 96.8242 44.75C96.6836 45.1146 96.6133 45.5221 96.6133 45.9727C96.6133 46.431 96.6849 46.8359 96.8281 47.1875C96.9714 47.5365 97.181 47.8099 97.457 48.0078C97.7331 48.2031 98.069 48.3008 98.4648 48.3008ZM103.524 45.25V49H102.829V43H103.505V43.9414H103.567C103.708 43.6341 103.927 43.388 104.224 43.2031C104.523 43.0156 104.893 42.9219 105.333 42.9219C105.737 42.9219 106.091 43.0065 106.396 43.1758C106.703 43.3424 106.941 43.5885 107.11 43.9141C107.282 44.2396 107.368 44.6393 107.368 45.1133V49H106.673V45.1562C106.673 44.6641 106.535 44.2747 106.259 43.9883C105.985 43.7018 105.618 43.5586 105.157 43.5586C104.842 43.5586 104.562 43.6263 104.317 43.7617C104.073 43.8971 103.879 44.0924 103.735 44.3477C103.595 44.6003 103.524 44.901 103.524 45.25ZM110.355 47.9062L110.285 48.3242C110.241 48.6055 110.178 48.9154 110.098 49.2539C110.017 49.5924 109.934 49.9141 109.848 50.2188C109.762 50.5234 109.688 50.7682 109.625 50.9531H109.09C109.124 50.776 109.167 50.5508 109.219 50.2773C109.273 50.0039 109.329 49.7005 109.387 49.3672C109.444 49.0365 109.496 48.6953 109.543 48.3437L109.598 47.9062H110.355ZM117.431 49.1094C116.938 49.1094 116.509 49.0143 116.142 48.8242C115.774 48.6315 115.489 48.3698 115.286 48.0391C115.083 47.7083 114.981 47.3346 114.981 46.918C114.981 46.6159 115.043 46.3438 115.165 46.1016C115.29 45.8568 115.47 45.625 115.704 45.4062C115.938 45.1849 116.222 44.9557 116.556 44.7187L117.716 43.8555C117.992 43.6576 118.201 43.4635 118.345 43.2734C118.491 43.0807 118.563 42.8451 118.563 42.5664C118.563 42.2982 118.462 42.0586 118.259 41.8477C118.058 41.6341 117.798 41.5273 117.478 41.5273C117.254 41.5273 117.053 41.5833 116.876 41.6953C116.701 41.8073 116.562 41.9531 116.458 42.1328C116.356 42.3099 116.306 42.4961 116.306 42.6914C116.306 42.8737 116.353 43.0573 116.446 43.2422C116.54 43.4245 116.666 43.6172 116.825 43.8203C116.984 44.0208 117.161 44.2422 117.356 44.4844L121.013 49H120.169L116.981 45.0898C116.713 44.7617 116.475 44.4687 116.267 44.2109C116.058 43.9505 115.894 43.7005 115.774 43.4609C115.655 43.2187 115.595 42.9596 115.595 42.6836C115.595 42.3424 115.674 42.0391 115.833 41.7734C115.992 41.5052 116.211 41.2943 116.489 41.1406C116.771 40.987 117.092 40.9102 117.454 40.9102C117.824 40.9102 118.144 40.9857 118.415 41.1367C118.688 41.2878 118.899 41.4883 119.048 41.7383C119.199 41.9883 119.274 42.2643 119.274 42.5664C119.274 42.9284 119.181 43.2487 118.993 43.5273C118.808 43.806 118.539 44.0794 118.185 44.3477L116.731 45.4336C116.333 45.7331 116.06 46.0104 115.911 46.2656C115.763 46.5208 115.688 46.7383 115.688 46.918C115.688 47.1992 115.761 47.4583 115.907 47.6953C116.053 47.9323 116.255 48.1224 116.513 48.2656C116.773 48.4089 117.071 48.4818 117.407 48.4844C117.741 48.4818 118.054 48.4154 118.349 48.2852C118.643 48.1523 118.906 47.9635 119.138 47.7187C119.372 47.474 119.56 47.181 119.7 46.8398C119.843 46.4987 119.927 46.1185 119.95 45.6992L120.626 45.707C120.616 46.1367 120.557 46.5013 120.45 46.8008C120.346 47.0977 120.226 47.3424 120.091 47.5352C119.955 47.7279 119.837 47.8828 119.735 48C119.707 48.0391 119.678 48.0781 119.649 48.1172C119.621 48.1562 119.591 48.1953 119.56 48.2344C119.299 48.5208 118.975 48.7383 118.587 48.8867C118.201 49.0352 117.816 49.1094 117.431 49.1094ZM125.36 49V41H126.091V44.668H130.63V41H131.36V49H130.63V45.3242H126.091V49H125.36ZM139.747 43.5H139.013C138.958 43.2266 138.859 42.974 138.716 42.7422C138.575 42.5078 138.398 42.3034 138.185 42.1289C137.971 41.9544 137.729 41.819 137.458 41.7227C137.187 41.6263 136.894 41.5781 136.579 41.5781C136.074 41.5781 135.613 41.7096 135.196 41.9727C134.782 42.2357 134.45 42.6224 134.2 43.1328C133.953 43.6406 133.829 44.263 133.829 45C133.829 45.7422 133.953 46.3672 134.2 46.875C134.45 47.3828 134.782 47.7682 135.196 48.0312C135.613 48.2917 136.074 48.4219 136.579 48.4219C136.894 48.4219 137.187 48.3737 137.458 48.2773C137.729 48.181 137.971 48.0469 138.185 47.875C138.398 47.7005 138.575 47.4961 138.716 47.2617C138.859 47.0273 138.958 46.7734 139.013 46.5H139.747C139.682 46.8672 139.56 47.2096 139.38 47.5273C139.203 47.8424 138.976 48.1185 138.7 48.3555C138.427 48.5924 138.112 48.7773 137.755 48.9102C137.398 49.043 137.006 49.1094 136.579 49.1094C135.907 49.1094 135.311 48.9414 134.79 48.6055C134.269 48.2669 133.86 47.7904 133.563 47.1758C133.269 46.5612 133.122 45.8359 133.122 45C133.122 44.1641 133.269 43.4388 133.563 42.8242C133.86 42.2096 134.269 41.7344 134.79 41.3984C135.311 41.0599 135.907 40.8906 136.579 40.8906C137.006 40.8906 137.398 40.957 137.755 41.0898C138.112 41.2201 138.427 41.4049 138.7 41.6445C138.976 41.8815 139.203 42.1576 139.38 42.4727C139.56 42.7878 139.682 43.1302 139.747 43.5ZM142.193 41V49H141.463V41H142.193Z" fill="white"/>
<rect x="115.066" y="4.27869" width="27.9344" height="27.9344" rx="5" fill="#F03E06"/>
<path d="M115.066 9.27869C115.066 6.51726 117.304 4.27869 120.066 4.27869H138C140.761 4.27869 143 6.51726 143 9.27869V13.5902H115.066V9.27869Z" fill="#FFA216"/>
<path d="M115.066 13.5902H143V22.9016H115.066V13.5902Z" fill="#FF6939"/>
<g clip-path="url(#clip0_105_24)">
<path d="M133.301 25.7609L129.033 30.0286L124.765 25.7609" stroke="white" stroke-width="2" stroke-linecap="round" stroke-linejoin="round"/>
<path d="M129.033 27.802L129.033 17.9258C129.027 17.3575 129.134 16.7937 129.349 16.2675C129.564 15.7413 129.881 15.2633 130.283 14.8616L137.568 7.5765" stroke="white" stroke-width="3" stroke-linecap="round" stroke-linejoin="round"/>
<path d="M120.497 7.5765L125.883 12.9618" stroke="white" stroke-width="3" stroke-linecap="round" stroke-linejoin="round"/>
</g>
<defs>
<clipPath id="clip0_105_24">
<rect width="25.6066" height="25.6066" fill="white" transform="translate(141.836 31.0492) rotate(180)"/>
</clipPath>
</defs>
</svg>
