<svg width="148" height="32" viewBox="0 0 148 32" fill="none" xmlns="http://www.w3.org/2000/svg">
<g clip-path="url(#clip0_98_33)">
<path d="M9.42933 25H3.25067V3.12267H5.71467C6.37422 3.12267 7.36978 3.09778 8.70133 3.048C10.0329 2.98578 11.128 2.95467 11.9867 2.95467C14.4009 2.95467 16.2302 3.59556 17.4747 4.87733C18.7191 6.15911 19.3413 8.08178 19.3413 10.6453C19.3413 12.1884 19.136 13.5947 18.7253 14.864C18.3271 16.1209 17.7858 17.1538 17.1013 17.9627C16.4169 18.7716 15.6391 19.3938 14.768 19.8293C13.8969 20.2649 12.976 20.4827 12.0053 20.4827C11.8809 20.4827 11.7502 20.4827 11.6133 20.4827C11.4889 20.4827 11.3707 20.4827 11.2587 20.4827C11.1591 20.4702 11.0347 20.464 10.8853 20.464C10.7484 20.4516 10.6364 20.4453 10.5493 20.4453C10.4747 20.4329 10.3627 20.4267 10.2133 20.4267C10.0764 20.4142 9.98311 20.408 9.93333 20.408C9.88356 20.408 9.79022 20.4018 9.65333 20.3893C9.51644 20.3769 9.44178 20.3707 9.42933 20.3707V25ZM13.2187 9.824C13.2187 8.90311 12.9698 8.15644 12.472 7.584C11.9742 7.01156 11.2587 6.72533 10.3253 6.72533H9.42933V16.432H10.12C11.1031 16.432 11.8622 16.1022 12.3973 15.4427C12.9449 14.7831 13.2187 13.8311 13.2187 12.5867V9.824ZM28.46 23.152C29.0076 23.152 29.4244 22.928 29.7107 22.48C30.0093 22.0196 30.1587 21.3911 30.1587 20.5947V14.696C30.1587 12.2693 29.5862 11.056 28.4413 11.056C27.9062 11.056 27.4893 11.2738 27.1907 11.7093C26.892 12.1449 26.7427 12.7609 26.7427 13.5573V19.624C26.7427 21.976 27.3151 23.152 28.46 23.152ZM28.3107 25.392C25.4609 25.392 23.3764 24.7449 22.0573 23.4507C20.7382 22.1564 20.0787 20.0907 20.0787 17.2533C20.0787 14.4409 20.7444 12.3253 22.076 10.9067C23.4076 9.47556 25.5729 8.76 28.572 8.76C31.4964 8.76 33.6058 9.44444 34.9 10.8133C36.2067 12.1698 36.86 14.2293 36.86 16.992C36.86 19.8542 36.1693 21.9698 34.788 23.3387C33.4191 24.7076 31.26 25.392 28.3107 25.392ZM47.4988 25H41.8055L37.0455 9.13333H43.7842L46.0428 19.2507L47.7415 12.3067L46.8642 9.13333H53.3228L55.2268 19.2507L57.7468 9.13333H61.7415L56.9628 25H51.2882L49.4588 18.4667L47.4988 25ZM71.1733 15.3493C71.1733 13.7689 71.0924 12.6489 70.9306 11.9893C70.7688 11.3298 70.4702 11 70.0346 11C69.6613 11 69.3564 11.0684 69.1199 11.2053C68.8835 11.3298 68.7093 11.5351 68.5973 11.8213C68.4853 12.0951 68.4106 12.3813 68.3733 12.68C68.3484 12.9662 68.3359 13.3333 68.3359 13.7813V15.3493H71.1733ZM69.6799 25.392C68.2862 25.392 67.0728 25.1804 66.0399 24.7573C65.0195 24.3342 64.2106 23.7431 63.6133 22.984C63.0284 22.2249 62.599 21.3724 62.3253 20.4267C62.0515 19.4684 61.9146 18.4044 61.9146 17.2347C61.9146 14.4471 62.6239 12.3378 64.0426 10.9067C65.4613 9.47556 67.4462 8.76 69.9973 8.76C72.4488 8.76 74.2035 9.33867 75.2613 10.496C76.319 11.6409 76.8479 13.4889 76.8479 16.04V18.112H68.3173V18.4667C68.3173 19.2009 68.3919 19.8044 68.5413 20.2773C68.703 20.7502 68.9333 21.0987 69.2319 21.3227C69.5306 21.5467 69.8355 21.696 70.1466 21.7707C70.4577 21.8453 70.8373 21.8827 71.2853 21.8827C71.7208 21.8827 72.1875 21.8267 72.6853 21.7147C73.1955 21.6027 73.7057 21.4284 74.2159 21.192C74.7386 20.9556 75.1742 20.6756 75.5226 20.352L76.6239 22.2373C76.1635 22.984 75.4853 23.6124 74.5893 24.1227C73.7057 24.6204 72.8533 24.9564 72.0319 25.1307C71.2106 25.3049 70.4266 25.392 69.6799 25.392ZM84.8994 25H78.8701V12.9227L77.7501 12.232V10.1227L81.7634 9.13333H83.2754L83.8167 13.576C84.327 10.5271 85.9634 9.00267 88.7261 9.00267C89.0372 9.00267 89.3607 9.05867 89.6967 9.17067L89.0621 15.816C88.8007 15.5796 88.2283 15.4613 87.3447 15.4613C86.0754 15.4613 85.2603 15.7973 84.8994 16.4693V25Z" fill="#333333"/>
<path d="M123.115 25.3547C122.206 25.3547 121.385 25.2364 120.651 25C119.916 24.7511 119.419 24.5022 119.157 24.2533L119.101 20.3893C119.512 20.6133 119.842 20.7627 120.091 20.8373C120.34 20.912 120.663 20.9493 121.061 20.9493C121.733 20.9493 122.262 20.7502 122.648 20.352C123.046 19.9538 123.245 19.2818 123.245 18.336V4.76533L122.349 3.12267H129.312V17.9813C129.312 18.8524 129.262 19.6302 129.163 20.3147C129.076 20.9867 128.895 21.6524 128.621 22.312C128.348 22.9591 127.987 23.5004 127.539 23.936C127.091 24.3591 126.493 24.7013 125.747 24.9627C125 25.224 124.123 25.3547 123.115 25.3547ZM136.725 25.392C135.555 25.392 134.373 25.1991 133.178 24.8133C131.983 24.4151 131.218 24.0293 130.882 23.656L131.367 20.6507C131.79 21.0613 132.494 21.416 133.477 21.7147C134.472 22.0133 135.486 22.1627 136.519 22.1627C137.266 22.1627 137.776 22.0693 138.05 21.8827C138.336 21.696 138.479 21.4347 138.479 21.0987C138.479 20.7751 138.23 20.4889 137.733 20.24C137.235 19.9787 136.426 19.68 135.306 19.344C132.406 18.4729 130.957 16.6684 130.957 13.9307C130.957 12.8107 131.28 11.8524 131.927 11.056C132.574 10.2471 133.402 9.66222 134.41 9.30133C135.418 8.94044 136.544 8.76 137.789 8.76C139.917 8.76 141.485 9.152 142.493 9.936C142.717 10.1476 142.829 10.2533 142.829 10.2533L142.007 12.9227C141.186 12.1138 140.054 11.7093 138.61 11.7093C137.428 11.7093 136.837 12.0578 136.837 12.7547C136.837 12.9538 136.88 13.1218 136.967 13.2587C137.054 13.3831 137.198 13.4951 137.397 13.5947C137.608 13.6818 137.814 13.7564 138.013 13.8187C138.212 13.8684 138.492 13.9431 138.853 14.0427C139.214 14.1298 139.525 14.2107 139.786 14.2853C141.242 14.7707 142.3 15.4551 142.959 16.3387C143.619 17.2222 143.949 18.3236 143.949 19.6427C143.949 23.4756 141.541 25.392 136.725 25.392Z" fill="#333333"/>
<path d="M105 4L95 16H104L103 24L113 12H104L105 4Z" fill="#F03E06"/>
<path d="M93.5 8.16667V5.83333C93.5 5.21449 93.7458 4.621 94.1834 4.18342C94.621 3.74583 95.2145 3.5 95.8333 3.5H98.1667" stroke="#FFA216" stroke-width="2" stroke-linecap="round" stroke-linejoin="round"/>
<path d="M109.833 3.5H112.167C112.785 3.5 113.379 3.74583 113.817 4.18342C114.254 4.621 114.5 5.21449 114.5 5.83333V8.16667" stroke="#FFA216" stroke-width="2" stroke-linecap="round" stroke-linejoin="round"/>
<path d="M114.5 19.8333V22.1667C114.5 22.7855 114.254 23.379 113.817 23.8166C113.379 24.2542 112.785 24.5 112.167 24.5H109.833" stroke="#FFA216" stroke-width="2" stroke-linecap="round" stroke-linejoin="round"/>
<path d="M98.1667 24.5H95.8333C95.2145 24.5 94.621 24.2542 94.1834 23.8166C93.7458 23.379 93.5 22.7855 93.5 22.1667V19.8333" stroke="#FFA216" stroke-width="2" stroke-linecap="round" stroke-linejoin="round"/>
</g>
<defs>
<clipPath id="clip0_98_33">
<rect width="148" height="32" fill="white"/>
</clipPath>
</defs>
</svg>
