<svg width="128" height="32" viewBox="0 0 128 32" fill="none" xmlns="http://www.w3.org/2000/svg">
<g clip-path="url(#clip0_98_31)">
<rect width="128" height="32" fill="white"/>
<path d="M9.42933 25H3.25067V3.12267H15.5707V7.88267L9.42933 7.50933V12.5867H14.4693V17.216L9.42933 16.8427V25ZM17.0866 25V3.888L15.9666 3.216V1.48L21.9586 0.546667H23.1719V25H17.0866ZM34.7871 22.5173C34.7125 22.6916 34.5569 22.9218 34.3205 23.208C34.0965 23.4942 33.7978 23.8116 33.4245 24.16C33.0511 24.496 32.5907 24.7822 32.0431 25.0187C31.4956 25.2676 30.9418 25.392 30.3818 25.392C28.6271 25.392 27.3702 24.8693 26.6111 23.824C25.8645 22.7787 25.4911 21.0364 25.4911 18.5973V11.952L24.8378 11.28V9.13333H31.6138V19.7733C31.6013 20.3333 31.6947 20.7502 31.8938 21.024C32.0929 21.2853 32.4538 21.416 32.9765 21.416C33.0511 21.416 33.1196 21.416 33.1818 21.416C33.244 21.4036 33.3062 21.3911 33.3685 21.3787C33.4307 21.3538 33.4805 21.3351 33.5178 21.3227C33.5676 21.3102 33.6236 21.2916 33.6858 21.2667C33.748 21.2293 33.7978 21.1982 33.8351 21.1733C33.8725 21.1484 33.9222 21.1173 33.9845 21.08C34.0467 21.0302 34.0902 20.9929 34.1151 20.968C34.1525 20.9431 34.2022 20.9058 34.2645 20.856C34.3391 20.7938 34.3951 20.7502 34.4325 20.7253V11.952L33.4245 11.28V9.13333H40.5365V25H35.3658L34.7871 22.5173ZM51.4858 15.3493C51.4858 13.7689 51.4049 12.6489 51.2431 11.9893C51.0813 11.3298 50.7827 11 50.3471 11C49.9738 11 49.6689 11.0684 49.4324 11.2053C49.196 11.3298 49.0218 11.5351 48.9098 11.8213C48.7978 12.0951 48.7231 12.3813 48.6858 12.68C48.6609 12.9662 48.6484 13.3333 48.6484 13.7813V15.3493H51.4858ZM49.9924 25.392C48.5987 25.392 47.3853 25.1804 46.3524 24.7573C45.332 24.3342 44.5231 23.7431 43.9258 22.984C43.3409 22.2249 42.9115 21.3724 42.6378 20.4267C42.364 19.4684 42.2271 18.4044 42.2271 17.2347C42.2271 14.4471 42.9364 12.3378 44.3551 10.9067C45.7738 9.47556 47.7587 8.76 50.3098 8.76C52.7613 8.76 54.516 9.33867 55.5738 10.496C56.6315 11.6409 57.1604 13.4889 57.1604 16.04V18.112H48.6298V18.4667C48.6298 19.2009 48.7044 19.8044 48.8538 20.2773C49.0155 20.7502 49.2458 21.0987 49.5444 21.3227C49.8431 21.5467 50.148 21.696 50.4591 21.7707C50.7702 21.8453 51.1498 21.8827 51.5978 21.8827C52.0333 21.8827 52.5 21.8267 52.9978 21.7147C53.508 21.6027 54.0182 21.4284 54.5284 21.192C55.0511 20.9556 55.4867 20.6756 55.8351 20.352L56.9364 22.2373C56.476 22.984 55.7978 23.6124 54.9018 24.1227C54.0182 24.6204 53.1658 24.9564 52.3444 25.1307C51.5231 25.3049 50.7391 25.392 49.9924 25.392ZM65.2119 25H59.1826V12.9227L58.0626 12.232V10.2347L62.0759 9.13333H65.2492V11.5413L65.4732 11.2613C65.6226 11.0622 65.8403 10.8258 66.1266 10.552C66.4252 10.2782 66.755 10.0107 67.1159 9.74933C67.4768 9.47556 67.9061 9.24533 68.4039 9.05867C68.9141 8.85956 69.4119 8.76 69.8972 8.76C71.6021 8.76 72.803 9.22667 73.4999 10.16C74.2092 11.0933 74.5639 12.6551 74.5639 14.8453C74.5639 14.92 74.5639 15.032 74.5639 15.1813C74.5515 15.3307 74.5452 15.4489 74.5452 15.536V25H68.3852V14.9947C68.4226 13.8249 67.9248 13.24 66.8919 13.24C66.8172 13.24 66.7426 13.2462 66.6679 13.2587C66.6057 13.2711 66.5435 13.2836 66.4812 13.296C66.4315 13.3084 66.3692 13.3333 66.2946 13.3707C66.2323 13.3956 66.1763 13.4204 66.1266 13.4453C66.0768 13.4578 66.0208 13.4889 65.9586 13.5387C65.8963 13.576 65.8466 13.6071 65.8092 13.632C65.7719 13.6569 65.7159 13.7004 65.6412 13.7627C65.579 13.8124 65.5292 13.8498 65.4919 13.8747C65.467 13.8996 65.4172 13.9431 65.3426 14.0053C65.2803 14.0551 65.2368 14.0924 65.2119 14.1173V25ZM81.2693 25.392C79.5893 25.392 78.4133 24.888 77.7413 23.88C77.0818 22.872 76.752 21.1671 76.752 18.7653V12.4187H75.464V9.824L77.6666 9.13333L79.5706 4.784H82.856V9.13333H85.9173V12.4187H82.8V19.3627C82.8 20.3582 82.9431 21.0178 83.2293 21.3413C83.5155 21.6649 83.9573 21.8267 84.5546 21.8267C84.816 21.8267 85.0524 21.7956 85.264 21.7333C85.4755 21.6711 85.6498 21.584 85.7866 21.472V24.0107C85.6 24.1973 85.3573 24.384 85.0586 24.5707C84.76 24.7449 84.2622 24.9253 83.5653 25.112C82.8809 25.2987 82.1155 25.392 81.2693 25.392Z" fill="#333333"/>
<mask id="mask0_98_31" style="mask-type:alpha" maskUnits="userSpaceOnUse" x="85" y="2" width="41" height="27">
<path d="M90 7C90 4.23858 92.2386 2 95 2H121C123.761 2 126 4.23858 126 7V24C126 26.7614 123.761 29 121 29H85L88.1235 26.5012C89.3096 25.5524 90 24.1158 90 22.5969V7Z" fill="white"/>
</mask>
<g mask="url(#mask0_98_31)">
<rect x="86" y="2" width="44" height="9" fill="#FFA216"/>
<rect x="86" y="11" width="44" height="9" fill="#FF6939"/>
<rect x="86" y="20" width="44" height="9" fill="#F03E06"/>
</g>
<g filter="url(#filter0_d_98_31)">
<path d="M102.493 25.343C101.372 25.343 100.375 25.2341 99.5043 25.0163C98.6441 24.7986 97.9363 24.5046 97.381 24.1343C96.8366 23.7641 96.3847 23.3068 96.0253 22.7623C95.6769 22.207 95.4319 21.6244 95.2903 21.0147C95.1488 20.4049 95.078 19.7298 95.078 18.9893V5.85733H100.893V18.2543C100.893 19.6372 101.034 20.59 101.317 21.1127C101.611 21.6244 102.036 21.8803 102.591 21.8803C102.896 21.8803 103.163 21.8313 103.392 21.7333C103.62 21.6244 103.833 21.4448 104.029 21.1943C104.225 20.933 104.372 20.5628 104.47 20.0837C104.579 19.5937 104.633 19.0002 104.633 18.3033V5.85733H109.794V19.0873C109.794 19.8169 109.729 20.4757 109.598 21.0637C109.479 21.6517 109.25 22.2233 108.912 22.7787C108.586 23.3231 108.15 23.7804 107.606 24.1507C107.072 24.51 106.37 24.7986 105.499 25.0163C104.638 25.2341 103.637 25.343 102.493 25.343ZM114.616 25V14.4323L113.636 13.828V12.0803L117.147 11.1167H119.875V25H114.616ZM116.984 9.614L114.305 6.919V6.34733L116.984 3.66867H117.605L120.398 6.34733V6.919L117.605 9.614H116.984Z" fill="white"/>
</g>
</g>
<defs>
<filter id="filter0_d_98_31" x="92.078" y="1.66867" width="31.3196" height="27.6743" filterUnits="userSpaceOnUse" color-interpolation-filters="sRGB">
<feFlood flood-opacity="0" result="BackgroundImageFix"/>
<feColorMatrix in="SourceAlpha" type="matrix" values="0 0 0 0 0 0 0 0 0 0 0 0 0 0 0 0 0 0 127 0" result="hardAlpha"/>
<feOffset dy="1"/>
<feGaussianBlur stdDeviation="1.5"/>
<feComposite in2="hardAlpha" operator="out"/>
<feColorMatrix type="matrix" values="0 0 0 0 0 0 0 0 0 0 0 0 0 0 0 0 0 0 0.25 0"/>
<feBlend mode="normal" in2="BackgroundImageFix" result="effect1_dropShadow_98_31"/>
<feBlend mode="normal" in="SourceGraphic" in2="effect1_dropShadow_98_31" result="shape"/>
</filter>
<clipPath id="clip0_98_31">
<rect width="128" height="32" fill="white"/>
</clipPath>
</defs>
</svg>
