<svg width="165" height="32" viewBox="0 0 165 32" fill="none" xmlns="http://www.w3.org/2000/svg">
<g clip-path="url(#clip0_98_30)">
<rect width="165" height="32" fill="white"/>
<path d="M8.42933 25H2.25067V3.12267H14.5707V7.88267L8.42933 7.50933V12.5867H13.4693V17.216L8.42933 16.8427V25ZM22.3213 25H16.2919V12.9227L15.1719 12.232V10.1227L19.1853 9.13333H20.6973L21.2386 13.576C21.7488 10.5271 23.3853 9.00267 26.1479 9.00267C26.459 9.00267 26.7826 9.05867 27.1186 9.17067L26.4839 15.816C26.2226 15.5796 25.6502 15.4613 24.7666 15.4613C23.4973 15.4613 22.6822 15.7973 22.3213 16.4693V25ZM36.1006 23.152C36.6482 23.152 37.0651 22.928 37.3513 22.48C37.65 22.0196 37.7993 21.3911 37.7993 20.5947V14.696C37.7993 12.2693 37.2268 11.056 36.082 11.056C35.5468 11.056 35.13 11.2738 34.8313 11.7093C34.5326 12.1449 34.3833 12.7609 34.3833 13.5573V19.624C34.3833 21.976 34.9557 23.152 36.1006 23.152ZM35.9513 25.392C33.1015 25.392 31.0171 24.7449 29.698 23.4507C28.3788 22.1564 27.7193 20.0907 27.7193 17.2533C27.7193 14.4409 28.3851 12.3253 29.7166 10.9067C31.0482 9.47556 33.2135 8.76 36.2126 8.76C39.1371 8.76 41.2464 9.44444 42.5406 10.8133C43.8473 12.1698 44.5006 14.2293 44.5006 16.992C44.5006 19.8542 43.81 21.9698 42.4286 23.3387C41.0597 24.7076 38.9006 25.392 35.9513 25.392ZM52.5635 25H46.5341V12.9227L45.4141 12.232V10.2347L49.4275 9.13333H52.6008V11.5413L52.8248 11.2613C52.9741 11.0622 53.1919 10.8258 53.4781 10.552C53.7768 10.2782 54.1066 10.0107 54.4675 9.74933C54.8283 9.47556 55.2577 9.24533 55.7555 9.05867C56.2657 8.85956 56.7635 8.76 57.2488 8.76C58.9537 8.76 60.1546 9.22667 60.8515 10.16C61.5608 11.0933 61.9155 12.6551 61.9155 14.8453C61.9155 14.92 61.9155 15.032 61.9155 15.1813C61.903 15.3307 61.8968 15.4489 61.8968 15.536V25H55.7368V14.9947C55.7741 13.8249 55.2763 13.24 54.2435 13.24C54.1688 13.24 54.0941 13.2462 54.0195 13.2587C53.9572 13.2711 53.895 13.2836 53.8328 13.296C53.783 13.3084 53.7208 13.3333 53.6461 13.3707C53.5839 13.3956 53.5279 13.4204 53.4781 13.4453C53.4283 13.4578 53.3723 13.4889 53.3101 13.5387C53.2479 13.576 53.1981 13.6071 53.1608 13.632C53.1235 13.6569 53.0675 13.7004 52.9928 13.7627C52.9306 13.8124 52.8808 13.8498 52.8435 13.8747C52.8186 13.8996 52.7688 13.9431 52.6941 14.0053C52.6319 14.0551 52.5883 14.0924 52.5635 14.1173V25ZM68.6209 25.392C66.9409 25.392 65.7649 24.888 65.0929 23.88C64.4333 22.872 64.1035 21.1671 64.1035 18.7653V12.4187H62.8155V9.824L65.0182 9.13333L66.9222 4.784H70.2075V9.13333H73.2689V12.4187H70.1515V19.3627C70.1515 20.3582 70.2947 21.0178 70.5809 21.3413C70.8671 21.6649 71.3089 21.8267 71.9062 21.8267C72.1675 21.8267 72.404 21.7956 72.6155 21.7333C72.8271 21.6711 73.0013 21.584 73.1382 21.472V24.0107C72.9515 24.1973 72.7089 24.384 72.4102 24.5707C72.1115 24.7449 71.6138 24.9253 70.9169 25.112C70.2324 25.2987 69.4671 25.392 68.6209 25.392ZM82.0849 21.9387C83.0307 21.9387 83.7525 21.3538 84.2503 20.184C84.7605 19.0142 85.0156 17.0853 85.0156 14.3973V12.512C85.0156 10.5458 84.7792 9.02756 84.3063 7.95733C83.8334 6.88711 83.1614 6.352 82.2903 6.352H80.8903V21.9387H82.0849ZM82.6636 25.1307C82.2156 25.1307 81.5187 25.1058 80.5729 25.056C79.6396 25.0187 78.6752 25 77.6796 25H74.7116V3.12267H77.6796C78.5134 3.11022 79.4218 3.07911 80.4049 3.02933C81.388 2.97956 82.1596 2.95467 82.7196 2.95467C85.8929 2.95467 88.164 3.84445 89.5329 5.624C90.9143 7.40356 91.6049 9.99822 91.6049 13.408C91.6049 14.5653 91.524 15.6667 91.3623 16.712C91.2129 17.7573 90.9267 18.8089 90.5036 19.8667C90.0805 20.912 89.5454 21.8142 88.8983 22.5733C88.2512 23.3324 87.3925 23.9484 86.3223 24.4213C85.252 24.8942 84.0325 25.1307 82.6636 25.1307ZM101.947 15.3493C101.947 13.7689 101.866 12.6489 101.704 11.9893C101.542 11.3298 101.244 11 100.808 11C100.435 11 100.13 11.0684 99.8934 11.2053C99.6569 11.3298 99.4827 11.5351 99.3707 11.8213C99.2587 12.0951 99.184 12.3813 99.1467 12.68C99.1218 12.9662 99.1094 13.3333 99.1094 13.7813V15.3493H101.947ZM100.453 25.392C99.0596 25.392 97.8463 25.1804 96.8134 24.7573C95.7929 24.3342 94.984 23.7431 94.3867 22.984C93.8018 22.2249 93.3725 21.3724 93.0987 20.4267C92.8249 19.4684 92.688 18.4044 92.688 17.2347C92.688 14.4471 93.3974 12.3378 94.816 10.9067C96.2347 9.47556 98.2196 8.76 100.771 8.76C103.222 8.76 104.977 9.33867 106.035 10.496C107.092 11.6409 107.621 13.4889 107.621 16.04V18.112H99.0907V18.4667C99.0907 19.2009 99.1654 19.8044 99.3147 20.2773C99.4765 20.7502 99.7067 21.0987 100.005 21.3227C100.304 21.5467 100.609 21.696 100.92 21.7707C101.231 21.8453 101.611 21.8827 102.059 21.8827C102.494 21.8827 102.961 21.8267 103.459 21.7147C103.969 21.6027 104.479 21.4284 104.989 21.192C105.512 20.9556 105.948 20.6756 106.296 20.352L107.397 22.2373C106.937 22.984 106.259 23.6124 105.363 24.1227C104.479 24.6204 103.627 24.9564 102.805 25.1307C101.984 25.3049 101.2 25.392 100.453 25.392ZM113.265 25L107.777 9.13333H114.478L115.673 14.864L116.532 19.8107L117.483 14.864L118.865 9.13333H123.905L119.145 25H113.265Z" fill="#333333"/>
<mask id="mask0_98_30" style="mask-type:alpha" maskUnits="userSpaceOnUse" x="122" y="2" width="41" height="27">
<path d="M127 7C127 4.23858 129.239 2 132 2H158C160.761 2 163 4.23858 163 7V24C163 26.7614 160.761 29 158 29H122L125.123 26.5012C126.31 25.5524 127 24.1158 127 22.5969V7Z" fill="white"/>
</mask>
<g mask="url(#mask0_98_30)">
<rect x="123" y="2" width="44" height="9" fill="#FFA216"/>
<rect x="123" y="11" width="44" height="9" fill="#FF6939"/>
<rect x="123" y="20" width="44" height="9" fill="#F03E06"/>
</g>
<g filter="url(#filter0_d_98_30)">
<path d="M142.486 25L141.751 21.9457H137.112L136.492 25H131.69L136.671 7.18033L136.279 5.85733H143.025L148.48 25H142.486ZM139.219 11.476L137.782 18.6137H140.951L139.219 11.476ZM151.754 25V14.4323L150.774 13.828V12.0803L154.286 11.1167H157.014V25H151.754ZM154.123 9.614L151.444 6.919V6.34733L154.123 3.66867H154.743L157.536 6.34733V6.919L154.743 9.614H154.123Z" fill="white"/>
</g>
</g>
<defs>
<filter id="filter0_d_98_30" x="128.69" y="1.66867" width="31.8466" height="27.3313" filterUnits="userSpaceOnUse" color-interpolation-filters="sRGB">
<feFlood flood-opacity="0" result="BackgroundImageFix"/>
<feColorMatrix in="SourceAlpha" type="matrix" values="0 0 0 0 0 0 0 0 0 0 0 0 0 0 0 0 0 0 127 0" result="hardAlpha"/>
<feOffset dy="1"/>
<feGaussianBlur stdDeviation="1.5"/>
<feComposite in2="hardAlpha" operator="out"/>
<feColorMatrix type="matrix" values="0 0 0 0 0 0 0 0 0 0 0 0 0 0 0 0 0 0 0.25 0"/>
<feBlend mode="normal" in2="BackgroundImageFix" result="effect1_dropShadow_98_30"/>
<feBlend mode="normal" in="SourceGraphic" in2="effect1_dropShadow_98_30" result="shape"/>
</filter>
<clipPath id="clip0_98_30">
<rect width="165" height="32" fill="white"/>
</clipPath>
</defs>
</svg>
