<svg width="140" height="32" viewBox="0 0 140 32" fill="none" xmlns="http://www.w3.org/2000/svg">
<g clip-path="url(#clip0_98_29)">
<rect width="140" height="32" fill="white"/>
<path d="M55 7V6C55 5.46957 55.2107 4.96086 55.5858 4.58579C55.9609 4.21071 56.4696 4 57 4H65.5L71 9.5V22C71 22.5304 70.7893 23.0391 70.4142 23.4142C70.0391 23.7893 69.5304 24 69 24H55" stroke="#FFA216" stroke-width="2" stroke-linecap="round" stroke-linejoin="round"/>
<path d="M65 4V10H71" stroke="#FFA216" stroke-width="2" stroke-linecap="round" stroke-linejoin="round"/>
<path d="M60 15H54C53.4477 15 53 15.4477 53 16V19C53 19.5523 53.4477 20 54 20H60C60.5523 20 61 19.5523 61 19V16C61 15.4477 60.5523 15 60 15Z" stroke="#F03E06" stroke-width="2" stroke-linecap="round" stroke-linejoin="round"/>
<path d="M59 15V13C59 12.4696 58.7893 11.9609 58.4142 11.5858C58.0391 11.2107 57.5304 11 57 11C56.4696 11 55.9609 11.2107 55.5858 11.5858C55.2107 11.9609 55 12.4696 55 13V15" stroke="#F03E06" stroke-width="2" stroke-linecap="round" stroke-linejoin="round"/>
<path d="M1.25067 25V3.12267H7.42933V19.9973H12.992V25H1.25067ZM22.4131 23.152C22.9607 23.152 23.3776 22.928 23.6638 22.48C23.9625 22.0196 24.1118 21.3911 24.1118 20.5947V14.696C24.1118 12.2693 23.5393 11.056 22.3945 11.056C21.8593 11.056 21.4425 11.2738 21.1438 11.7093C20.8451 12.1449 20.6958 12.7609 20.6958 13.5573V19.624C20.6958 21.976 21.2682 23.152 22.4131 23.152ZM22.2638 25.392C19.414 25.392 17.3296 24.7449 16.0105 23.4507C14.6913 22.1564 14.0318 20.0907 14.0318 17.2533C14.0318 14.4409 14.6976 12.3253 16.0291 10.9067C17.3607 9.47556 19.526 8.76 22.5251 8.76C25.4496 8.76 27.5589 9.44444 28.8531 10.8133C30.1598 12.1698 30.8131 14.2293 30.8131 16.992C30.8131 19.8542 30.1225 21.9698 28.7411 23.3387C27.3722 24.7076 25.2131 25.392 22.2638 25.392ZM40.0333 31.5893C39.0626 31.5893 37.9675 31.3653 36.748 30.9173C35.5284 30.4818 34.7382 30.0649 34.3773 29.6667L35.5533 27.1093C35.8644 27.3458 36.3684 27.5636 37.0653 27.7627C37.7622 27.9618 38.3595 28.0613 38.8573 28.0613C39.3551 28.0613 39.7844 27.9929 40.1453 27.856C40.5186 27.7316 40.8048 27.5698 41.004 27.3707C41.2031 27.184 41.3648 26.9476 41.4893 26.6613C41.6137 26.3876 41.6884 26.1387 41.7133 25.9147C41.7506 25.6907 41.7755 25.4418 41.788 25.168V23.5813C40.7302 24.6764 39.4422 25.224 37.924 25.224C35.8706 25.224 34.3648 24.5209 33.4066 23.1147C32.4484 21.7084 31.9693 19.7547 31.9693 17.2533C31.9693 16.0836 32.1 15.0071 32.3613 14.024C32.6226 13.0284 33.0022 12.1573 33.5 11.4107C34.0102 10.6516 34.6697 10.0604 35.4786 9.63733C36.2875 9.20178 37.2022 8.984 38.2226 8.984C39.7657 8.984 41.1035 9.32622 42.236 10.0107L42.5533 9.13333H45.4093L48.9186 9.30133V11.056L47.7986 11.84V24.3093C47.7986 29.1627 45.2102 31.5893 40.0333 31.5893ZM40.6306 21.8267C41.004 21.8267 41.3897 21.7209 41.788 21.5093V11.672C41.4893 11.6098 41.2155 11.5787 40.9666 11.5787C39.3115 11.5911 38.4777 12.8667 38.4653 15.4053V18.2987C38.4653 19.0951 38.5711 19.7796 38.7826 20.352C39.156 21.3351 39.772 21.8267 40.6306 21.8267Z" fill="#333333"/>
<path d="M76.2507 25V3.12267H82.4293V19.9973H87.992V25H76.2507ZM97.4131 23.152C97.9607 23.152 98.3776 22.928 98.6638 22.48C98.9625 22.0196 99.1118 21.3911 99.1118 20.5947V14.696C99.1118 12.2693 98.5393 11.056 97.3945 11.056C96.8593 11.056 96.4425 11.2738 96.1438 11.7093C95.8451 12.1449 95.6958 12.7609 95.6958 13.5573V19.624C95.6958 21.976 96.2682 23.152 97.4131 23.152ZM97.2638 25.392C94.414 25.392 92.3296 24.7449 91.0105 23.4507C89.6913 22.1564 89.0318 20.0907 89.0318 17.2533C89.0318 14.4409 89.6976 12.3253 91.0291 10.9067C92.3607 9.47556 94.526 8.76 97.5251 8.76C100.45 8.76 102.559 9.44444 103.853 10.8133C105.16 12.1698 105.813 14.2293 105.813 16.992C105.813 19.8542 105.122 21.9698 103.741 23.3387C102.372 24.7076 100.213 25.392 97.2638 25.392ZM120.335 23.4507L120.167 23.656C120.055 23.7804 119.856 23.9422 119.569 24.1413C119.296 24.328 118.96 24.5209 118.561 24.72C118.176 24.9067 117.653 25.0622 116.993 25.1867C116.346 25.3236 115.649 25.392 114.903 25.392C112.376 25.392 110.441 24.6516 109.097 23.1707C107.766 21.6898 107.1 19.7298 107.1 17.2907C107.1 15.9716 107.305 14.7707 107.716 13.688C108.127 12.6053 108.687 11.7093 109.396 11C110.118 10.2782 110.958 9.72444 111.916 9.33867C112.887 8.94044 113.932 8.74133 115.052 8.74133C117.217 8.74133 118.897 9.25778 120.092 10.2907C120.353 10.552 120.484 10.6827 120.484 10.6827L120.204 15.0693L117.553 15.088L116.489 12.232C116.39 12.2071 116.253 12.1947 116.079 12.1947C114.946 12.1947 114.162 12.5867 113.727 13.3707C113.304 14.1422 113.092 15.4862 113.092 17.4027C113.092 18.2364 113.16 18.952 113.297 19.5493C113.434 20.1342 113.59 20.576 113.764 20.8747C113.938 21.1609 114.168 21.3849 114.455 21.5467C114.753 21.7084 114.996 21.8018 115.183 21.8267C115.369 21.8516 115.6 21.864 115.873 21.864C116.496 21.864 117.13 21.7893 117.777 21.64C118.437 21.4907 118.978 21.248 119.401 20.912L120.335 23.4507ZM131.429 25L128.536 17.3653L131.597 9.13333H138.597L133.707 16.4693L138.709 25H131.429ZM122.077 25V3.888L120.957 3.216V1.48L126.949 0.546667H128.163V25H122.077Z" fill="#333333"/>
</g>
<defs>
<clipPath id="clip0_98_29">
<rect width="140" height="32" fill="white"/>
</clipPath>
</defs>
</svg>
